<svg width="32" height="33" viewBox="0 0 32 33" fill="none" xmlns="http://www.w3.org/2000/svg">
<path d="M5.71026 14.1787L9.02284 15.5522C8.64935 16.4952 8.35142 17.4663 8.13187 18.4565L8.00622 19.0276L12.7552 23.7794L13.3263 23.6567C14.3165 23.4371 15.2876 23.1392 16.2306 22.7657L17.6042 26.0783C17.6176 26.1111 17.639 26.1401 17.6665 26.1626C17.6939 26.1851 17.7265 26.2004 17.7613 26.2072C17.7961 26.214 17.8321 26.2121 17.866 26.2015C17.8999 26.191 17.9306 26.1722 17.9554 26.1468L20.0315 24.0707C20.3703 23.732 20.6343 23.3259 20.8064 22.8788C20.9786 22.4317 21.0551 21.9534 21.031 21.4749L20.9567 20.1413C24.8005 17.3028 28.6899 12.3253 29.7493 3.63836C29.7794 3.42056 29.7587 3.19876 29.689 2.99025C29.6192 2.78175 29.5023 2.59216 29.3472 2.43628C29.1922 2.2804 29.0032 2.16243 28.7951 2.09157C28.587 2.02071 28.3653 1.99887 28.1473 2.02776C19.4632 3.09578 14.4829 6.98807 11.6444 10.8204L10.3136 10.7519C9.83614 10.7259 9.35852 10.8001 8.91146 10.9698C8.4644 11.1395 8.05779 11.4008 7.7178 11.7371L5.64172 13.8131C5.61296 13.8376 5.59117 13.8692 5.57856 13.9048C5.56595 13.9404 5.56298 13.9787 5.56994 14.0158C5.5769 14.0529 5.59354 14.0875 5.61818 14.1161C5.64282 14.1447 5.67459 14.1663 5.71026 14.1787ZM19.0291 9.1184C19.3889 8.75986 19.8469 8.51597 20.3452 8.41752C20.8435 8.31908 21.3598 8.37049 21.8289 8.56528C22.298 8.76007 22.6989 9.08949 22.9809 9.51195C23.2629 9.93441 23.4134 10.431 23.4134 10.9389C23.4134 11.4468 23.2629 11.9434 22.9809 12.3658C22.6989 12.7883 22.298 13.1177 21.8289 13.3125C21.3598 13.5073 20.8435 13.5587 20.3452 13.4603C19.8469 13.3618 19.3889 13.1179 19.0291 12.7594C18.7895 12.5206 18.5994 12.2369 18.4697 11.9245C18.34 11.6121 18.2732 11.2772 18.2732 10.9389C18.2732 10.6006 18.34 10.2657 18.4697 9.9533C18.5994 9.6409 18.7895 9.35718 19.0291 9.1184ZM5.09058 24.1593C4.54087 23.9663 3.95056 23.9191 3.37717 24.0222C3.32621 24.0332 3.27329 24.0311 3.22335 24.0161C3.17341 24.0012 3.12808 23.9738 3.0916 23.9365C3.04638 23.8915 3.0161 23.8336 3.00486 23.7708C2.99363 23.708 3.00197 23.6432 3.02878 23.5853C3.63704 22.2774 5.25049 19.6473 8.17185 21.7719C8.18711 21.7856 8.19932 21.8023 8.20768 21.821C8.21604 21.8397 8.22036 21.8599 8.22036 21.8804C8.22036 21.9009 8.21604 21.9212 8.20768 21.9399C8.19932 21.9586 8.18711 21.9753 8.17185 21.9889C7.78074 22.297 7.4676 22.6927 7.25776 23.1441C7.04791 23.5956 6.94724 24.0901 6.9639 24.5876C6.96603 24.646 6.99018 24.7014 7.0315 24.7428C7.07282 24.7841 7.12825 24.8082 7.18664 24.8103C7.68208 24.8303 8.17528 24.7337 8.62661 24.5284C9.07794 24.323 9.4748 24.0147 9.78531 23.6281C9.79897 23.6114 9.81617 23.5979 9.83568 23.5886C9.85519 23.5794 9.87651 23.5746 9.89811 23.5746C9.9197 23.5746 9.94102 23.5794 9.96053 23.5886C9.98004 23.5979 9.99725 23.6114 10.0109 23.6281C10.4164 24.1107 11.533 25.687 10.2965 27.2091C9.75666 27.8579 8.9832 28.2683 8.14329 28.3514C6.94391 28.4799 4.7279 28.8711 3.82266 29.9049C3.78632 29.9479 3.73897 29.9803 3.68567 29.9986C3.63237 30.0168 3.57512 30.0203 3.52001 30.0086C3.4649 29.9968 3.41401 29.9704 3.37276 29.932C3.33151 29.8936 3.30145 29.8448 3.28579 29.7906C2.96595 28.6998 2.46906 26.261 5.09058 24.1593Z" fill="#DD1D18"/>
</svg>
