<svg width="48" height="48" viewBox="0 0 48 48" fill="none" xmlns="http://www.w3.org/2000/svg">
<path d="M28.2784 38.9399V29.0293H19.8503V38.9399H13.3444L21.1811 46.7797C22.8075 48.4068 25.3212 48.4068 26.9476 46.7797L34.7843 38.9399H28.2784ZM9.05648 34.7981V13.3498L1.21985 21.1895C-0.406617 22.8166 -0.406617 25.3313 1.21985 26.9584L9.05648 34.7981ZM19.8503 9.06009V18.9707H28.2784V9.06009H34.7843L26.9476 1.22034C25.3212 -0.40678 22.8075 -0.40678 21.1811 1.22034L13.3444 9.06009H19.8503ZM46.9089 21.1895L38.9244 13.3498V34.7981L46.761 26.9584C48.3875 25.3313 48.3875 22.8166 46.9089 21.1895Z" fill="#DA291C"/>
</svg>
