<svg width="48" height="48" viewBox="0 0 48 48" fill="none" xmlns="http://www.w3.org/2000/svg">
<path d="M0 20.5275V48H11.3512L14.1637 16.9875L0 20.5275Z" fill="#DD1D18"/>
<path d="M33.8359 12.0251L36.6484 48.0001H47.9996V8.48511L33.8359 12.0251Z" fill="#AF1713"/>
<path d="M11.3516 8.51135V48.0001H24.0004L25.8754 26.1288L24.0004 4.25635L11.3516 8.51135Z" fill="#EE6663"/>
<path d="M36.6488 0V48H24V4.25625L36.6488 0Z" fill="#DD1D18"/>
<path d="M19.836 29.4976H17.0235V33.335H19.836V29.4976Z" fill="white"/>
<path d="M30.9765 29.4976H28.164V33.335H30.9765V29.4976Z" fill="#EAF4F4"/>
<path d="M25.4062 29.52H22.5938V33.3575H25.4062V29.52Z" fill="white"/>
<path d="M19.836 21.0024H17.0235V24.8387H19.836V21.0024Z" fill="white"/>
<path d="M30.9765 21.0024H28.164V24.8387H30.9765V21.0024Z" fill="#EAF4F4"/>
<path d="M25.4062 21.0264H22.5938V24.8626H25.4062V21.0264Z" fill="white"/>
<path d="M19.836 12.5037H17.0235V16.3399H19.836V12.5037Z" fill="white"/>
<path d="M30.9765 8.72119H28.164V16.3412H30.9765V8.72119Z" fill="#EAF4F4"/>
<path d="M25.4062 10.6362H22.5938V16.365H25.4062V10.6362Z" fill="white"/>
<path d="M6.98865 36.1299H4.17615V44.6949H6.98865V36.1299Z" fill="white"/>
<path d="M43.8239 36.1299H41.0114V44.6949H43.8239V36.1299Z" fill="#EAF4F4"/>
<path d="M43.8239 27.6213H41.0114V31.4588H43.8239V27.6213Z" fill="#EAF4F4"/>
<path d="M6.98865 23.7749H4.17615V31.0162H6.98865V23.7749Z" fill="white"/>
<path d="M43.8239 15.7236H41.0114V22.9649H43.8239V15.7236Z" fill="#EAF4F4"/>
<path d="M30.976 36.6101H17.0235V48.0001H30.976V36.6101Z" fill="#EAF4F4"/>
<path d="M30.9762 36.6101H24V48.0001H30.9762V36.6101Z" fill="#E2E4E9"/>
<path d="M25.4062 10.6362H24V16.365H25.4062V10.6362Z" fill="#EAF4F4"/>
<path d="M25.4062 21.0264H24V24.8626H25.4062V21.0264Z" fill="#EAF4F4"/>
<path d="M25.4062 29.52H24V33.3575H25.4062V29.52Z" fill="#EAF4F4"/>
</svg>
