<svg width="48" height="48" viewBox="0 0 48 48" fill="none" xmlns="http://www.w3.org/2000/svg">
<path d="M48 24.0001C48 30.4101 45.5037 36.4376 40.9712 40.9713H7.02875C2.49625 36.4376 0 30.4113 0 24.0001C0 17.5888 2.49625 11.5626 7.02875 7.02881H40.97C45.5037 11.5626 48 17.5888 48 24.0001Z" fill="#ED5D59"/>
<path d="M48 24.0001C48 30.4101 45.5037 36.4376 40.9712 40.9713H24V7.02881H40.9712C45.5037 11.5626 48 17.5888 48 24.0001Z" fill="#DD1D18"/>
<path d="M40.9708 7.02875L34.0758 13.9237H13.9233L7.02832 7.02875C11.5621 2.49625 17.5883 0 23.9996 0C30.4108 0 36.4371 2.49625 40.9708 7.02875Z" fill="#F49C9A"/>
<path d="M40.9708 40.9712C36.4371 45.5037 30.4108 47.9999 23.9996 47.9999C17.5883 47.9999 11.5621 45.5037 7.02832 40.9712L13.9233 34.0762H34.0758L40.9708 40.9712Z" fill="#F49C9A"/>
<path d="M34.0762 34.0762L40.9712 40.9712C36.4375 45.5037 30.4113 47.9999 24 47.9999V34.0762H34.0762Z" fill="#ED5D59"/>
<path d="M34.0762 13.9237H24V0C30.4113 0 36.4375 2.49625 40.9712 7.02875L34.0762 13.9237Z" fill="#ED5D59"/>
<path d="M39.6562 24C39.6562 32.6462 32.6462 39.6562 24 39.6562C15.3538 39.6562 8.34375 32.6462 8.34375 24C8.34375 15.3538 15.3538 8.34375 24 8.34375C32.6462 8.34375 39.6562 15.3538 39.6562 24Z" fill="#DD1D18"/>
<path d="M39.6562 24C39.6562 32.6325 32.6325 39.6562 24 39.6562V8.34375C32.6325 8.34375 39.6562 15.3675 39.6562 24Z" fill="#B31813"/>
<path d="M24.2069 32C22.4356 32 21.1071 31.6076 20.2214 30.8229C19.3503 30.0381 18.9147 28.9555 18.9147 27.5749C18.9147 27.139 18.9655 26.7466 19.0672 26.3978H18V24.7847H19.8947C20.1561 24.4796 20.4682 24.1962 20.8312 23.9346C21.1942 23.673 21.6007 23.4332 22.0508 23.2153H18V21.6022H25.274C25.6515 21.2534 25.8403 20.7956 25.8403 20.2289C25.8403 19.7639 25.6661 19.4005 25.3176 19.139C24.9837 18.8774 24.4973 18.7466 23.8584 18.7466C23.2777 18.7466 22.6897 18.8265 22.0944 18.9864C21.5136 19.1462 20.8603 19.3715 20.1343 19.6621L19.1543 17.0899C19.9093 16.7557 20.6933 16.4941 21.5064 16.3052C22.3339 16.1017 23.2051 16 24.1198 16C25.6298 16 26.8276 16.3706 27.7132 17.1117C28.6134 17.8383 29.0635 18.8992 29.0635 20.2943C29.0635 20.7448 29.0054 21.1807 28.8893 21.6022H30V23.2153H27.9746C27.6552 23.5786 27.2777 23.8837 26.8421 24.1308C26.4065 24.3633 25.9564 24.5813 25.4918 24.7847H30V26.3978H22.5517C22.2759 26.7175 22.1379 27.1099 22.1379 27.5749C22.1379 28.1126 22.3267 28.5341 22.7042 28.8392C23.0817 29.1299 23.6479 29.2752 24.4029 29.2752C25.1869 29.2752 25.9564 29.188 26.7114 29.0136C27.4664 28.8247 28.2214 28.5777 28.9764 28.2725V31.0191C28.3521 31.3243 27.6334 31.564 26.8203 31.7384C26.0073 31.9128 25.1361 32 24.2069 32Z" fill="#F9C9C8"/>
</svg>
