<svg width="48" height="48" viewBox="0 0 48 48" fill="none" xmlns="http://www.w3.org/2000/svg">
<path d="M2.91766 13.2212V42.3737L11.3314 42.3824V13.2212H2.91766Z" fill="#ED5D59"/>
<path d="M11.3314 13.2212H2.91766V20.5412H11.3314V13.2212Z" fill="#DD1D18"/>
<path d="M36.6215 13.2212V42.3824L45.0827 42.3737V13.2212H36.6215Z" fill="#DD1D18"/>
<path d="M45.0827 13.2212H36.6215V20.5412H45.0827V13.2212Z" fill="#B31813"/>
<path d="M48 40.5H0V48H48V40.5Z" fill="#DD1D18"/>
<path d="M48 7.8V14.9163H0V7.8L24 0L48 7.8Z" fill="#ED5D59"/>
<path d="M27.6863 7.41504H20.3125V10.2275H27.6863V7.41504Z" fill="#DD1D18"/>
<path d="M48 7.8V14.9163H24V0L48 7.8Z" fill="#DD1D18"/>
<path d="M27.6875 7.41504H24V10.2275H27.6875V7.41504Z" fill="#B31813"/>
<path d="M48 40.5H24V48H48V40.5Z" fill="#B31813"/>
<path d="M24.431 34C22.8811 34 21.7187 33.6567 20.9437 32.97C20.1815 32.2834 19.8004 31.3361 19.8004 30.1281C19.8004 29.7466 19.8448 29.4033 19.9338 29.0981H19V27.6866H20.6579C20.8866 27.4196 21.1597 27.1717 21.4773 26.9428C21.7949 26.7139 22.1506 26.5041 22.5445 26.3134H19V24.9019H25.3648C25.6951 24.5967 25.8603 24.1962 25.8603 23.7003C25.8603 23.2934 25.7078 22.9755 25.4029 22.7466C25.1107 22.5177 24.6851 22.4033 24.1261 22.4033C23.618 22.4033 23.1034 22.4732 22.5826 22.6131C22.0744 22.753 21.5027 22.95 20.8675 23.2044L20.01 20.9537C20.6706 20.6612 21.3566 20.4323 22.0681 20.267C22.7922 20.089 23.5544 20 24.3548 20C25.676 20 26.7241 20.3243 27.4991 20.9728C28.2868 21.6085 28.6806 22.5368 28.6806 23.7575C28.6806 24.1517 28.6298 24.5332 28.5281 24.9019H29.5V26.3134H27.7278C27.4483 26.6312 27.118 26.8983 26.7368 27.1144C26.3557 27.3179 25.9619 27.5086 25.5554 27.6866H29.5V29.0981H22.9828C22.7414 29.3778 22.6207 29.7212 22.6207 30.1281C22.6207 30.5985 22.7858 30.9673 23.1162 31.2343C23.4465 31.4886 23.9419 31.6158 24.6025 31.6158C25.2886 31.6158 25.9619 31.5395 26.6225 31.3869C27.2831 31.2216 27.9437 31.0054 28.6044 30.7384V33.1417C28.0581 33.4087 27.4292 33.6185 26.7178 33.7711C26.0064 33.9237 25.2441 34 24.431 34Z" fill="#DD1D18"/>
</svg>
