<svg width="32" height="32" viewBox="0 0 32 32" fill="none" xmlns="http://www.w3.org/2000/svg">
<path d="M17.2017 3.974L4.38 2.02567C3.785 1.93234 3.17833 2.09567 2.72333 2.48067C2.26833 2.87734 2 3.449 2 4.044V28.6257C2 29.2674 2.525 29.7924 3.16667 29.7924H6.95833V23.6674C6.95833 22.5357 7.86833 21.6257 9 21.6257H11.9167C13.0483 21.6257 13.9583 22.5357 13.9583 23.6674V29.7924H18.9167V5.99234C18.9167 4.98901 18.1933 4.13734 17.2017 3.974ZM8.41667 19.0007H6.66667C6.18367 19.0007 5.79167 18.6087 5.79167 18.1257C5.79167 17.6427 6.18367 17.2507 6.66667 17.2507H8.41667C8.89967 17.2507 9.29167 17.6427 9.29167 18.1257C9.29167 18.6087 8.89967 19.0007 8.41667 19.0007ZM8.41667 15.5007H6.66667C6.18367 15.5007 5.79167 15.1087 5.79167 14.6257C5.79167 14.1427 6.18367 13.7507 6.66667 13.7507H8.41667C8.89967 13.7507 9.29167 14.1427 9.29167 14.6257C9.29167 15.1087 8.89967 15.5007 8.41667 15.5007ZM8.41667 12.0007H6.66667C6.18367 12.0007 5.79167 11.6087 5.79167 11.1257C5.79167 10.6427 6.18367 10.2507 6.66667 10.2507H8.41667C8.89967 10.2507 9.29167 10.6427 9.29167 11.1257C9.29167 11.6087 8.89967 12.0007 8.41667 12.0007ZM8.41667 8.50068H6.66667C6.18367 8.50068 5.79167 8.10868 5.79167 7.62568C5.79167 7.14267 6.18367 6.75067 6.66667 6.75067H8.41667C8.89967 6.75067 9.29167 7.14267 9.29167 7.62568C9.29167 8.10868 8.89967 8.50068 8.41667 8.50068ZM14.25 19.0007H12.5C12.017 19.0007 11.625 18.6087 11.625 18.1257C11.625 17.6427 12.017 17.2507 12.5 17.2507H14.25C14.733 17.2507 15.125 17.6427 15.125 18.1257C15.125 18.6087 14.733 19.0007 14.25 19.0007ZM14.25 15.5007H12.5C12.017 15.5007 11.625 15.1087 11.625 14.6257C11.625 14.1427 12.017 13.7507 12.5 13.7507H14.25C14.733 13.7507 15.125 14.1427 15.125 14.6257C15.125 15.1087 14.733 15.5007 14.25 15.5007ZM14.25 12.0007H12.5C12.017 12.0007 11.625 11.6087 11.625 11.1257C11.625 10.6427 12.017 10.2507 12.5 10.2507H14.25C14.733 10.2507 15.125 10.6427 15.125 11.1257C15.125 11.6087 14.733 12.0007 14.25 12.0007ZM14.25 8.50068H12.5C12.017 8.50068 11.625 8.10868 11.625 7.62568C11.625 7.14267 12.017 6.75067 12.5 6.75067H14.25C14.733 6.75067 15.125 7.14267 15.125 7.62568C15.125 8.10868 14.733 8.50068 14.25 8.50068Z" fill="#DD1D18"/>
<path d="M28.39 14.4412L20.0834 12.7017V29.7922H27.9584C29.0842 29.7922 30 28.8763 30 27.7505V16.4362C30 15.4725 29.3432 14.6523 28.39 14.4412ZM25.625 26.2922H23.875C23.392 26.2922 23 25.9002 23 25.4172C23 24.9342 23.392 24.5422 23.875 24.5422H25.625C26.108 24.5422 26.5 24.9342 26.5 25.4172C26.5 25.9002 26.108 26.2922 25.625 26.2922ZM25.625 22.7922H23.875C23.392 22.7922 23 22.4002 23 21.9172C23 21.4342 23.392 21.0422 23.875 21.0422H25.625C26.108 21.0422 26.5 21.4342 26.5 21.9172C26.5 22.4002 26.108 22.7922 25.625 22.7922ZM25.625 19.2922H23.875C23.392 19.2922 23 18.9002 23 18.4172C23 17.9342 23.392 17.5422 23.875 17.5422H25.625C26.108 17.5422 26.5 17.9342 26.5 18.4172C26.5 18.9002 26.108 19.2922 25.625 19.2922Z" fill="#DD1D18"/>
</svg>
