<svg width="46" height="46" viewBox="0 0 46 46" fill="none" xmlns="http://www.w3.org/2000/svg">
<path d="M11.3137 33.9411C5.06532 27.6927 5.06532 17.5621 11.3137 11.3137C17.5621 5.06531 27.6927 5.06532 33.9411 11.3137C40.1895 17.5621 40.1895 27.6927 33.9411 33.9411L22.6274 45.2548L11.3137 33.9411Z" fill="#57B68B"/>
<path d="M11.6673 33.5876C5.61414 27.5344 5.61414 17.7204 11.6673 11.6673C17.7204 5.61413 27.5344 5.61413 33.5876 11.6673C39.6407 17.7204 39.6407 27.5344 33.5876 33.5876L22.6274 44.5477L11.6673 33.5876Z" stroke="white"/>
<path fill-rule="evenodd" clip-rule="evenodd" d="M17.5091 31.0904H26.2827V31.8251H17.5091C16.5023 31.8239 15.6848 31.0063 15.6836 29.9996V16.3533C15.6848 15.3465 16.5023 14.5289 17.5091 14.5278H27.8735C28.8802 14.5289 29.6978 15.3465 29.699 16.3533V17.4091H28.9643V16.3533C28.9632 16.0543 28.8417 15.7833 28.6431 15.5836C28.4434 15.3839 28.1725 15.2624 27.8735 15.2624H17.5091C17.2101 15.2636 16.9391 15.385 16.7394 15.5836C16.5397 15.7833 16.4182 16.0543 16.4182 16.3533V30.0007C16.4194 30.3009 16.5409 30.5707 16.7394 30.7704C16.9391 30.969 17.2089 31.0904 17.5091 31.0904ZM25.6287 20.3108C26.208 20.903 26.528 21.6563 26.591 22.5685H26.6039V27.2788H24.9793V26.7672V22.8967H24.9664C24.9221 22.1924 24.7527 21.6855 24.4572 21.3795C24.101 21.0116 23.6595 20.8271 23.1339 20.8271C22.3829 20.8271 21.7674 20.9929 21.2874 21.3246V22.8955V25.02V26.7696V27.2776H19.664V22.7857V20.4708V19.4536H21.1461V19.6311L21.2056 19.6077C21.8118 19.3987 22.4542 19.2936 23.1339 19.2936C23.628 19.2936 24.0916 19.3847 24.5261 19.5669C24.9454 19.7397 25.3121 19.9885 25.6287 20.3108Z" fill="white"/>
</svg>
