<svg width="166" height="52" viewBox="0 0 166 52" fill="none" xmlns="http://www.w3.org/2000/svg">
<path d="M158 1H8C6.14348 1 4.36301 1.7375 3.05025 3.05025C1.7375 4.36301 1 6.14348 1 8V44C1 45.8565 1.7375 47.637 3.05025 48.9497C4.36301 50.2625 6.14348 51 8 51H158C159.857 51 161.637 50.2625 162.95 48.9497C164.263 47.637 165 45.8565 165 44V8C165 6.14348 164.263 4.36301 162.95 3.05025C161.637 1.7375 159.857 1 158 1Z" fill="black" stroke="#4C4C4C" stroke-width="2"/>
<path fill-rule="evenodd" clip-rule="evenodd" d="M35.9363 26.377C35.9713 30.507 39.5433 31.87 39.5873 31.885C39.5663 31.98 39.0283 33.855 37.6883 35.757C36.5693 37.432 35.3963 39.07 33.5353 39.1C31.7263 39.142 31.1193 38.033 29.0443 38.033C26.9503 38.033 26.3023 39.07 24.5673 39.142C22.7943 39.208 21.4393 37.353 20.2803 35.693C17.9643 32.305 16.1593 26.143 18.5783 21.951C19.7503 19.894 21.8883 18.57 24.1723 18.535C25.9473 18.497 27.5943 19.735 28.6853 19.735C29.7553 19.735 31.7913 18.255 33.8913 18.475C34.7693 18.501 37.2713 18.823 38.8843 21.177C38.7533 21.256 35.9053 22.932 35.9363 26.377ZM32.5193 16.247C31.5463 17.397 29.9883 18.277 28.4713 18.163C28.2733 16.611 29.0413 14.961 29.9013 13.954C30.8753 12.811 32.5633 11.936 33.9143 11.875C34.0903 13.489 33.4523 15.079 32.5193 16.247ZM52.5583 33H57.2513L54.9373 26.18H54.8733L52.5583 33ZM57.8653 34.94H51.9453L50.5233 39.143H48.0163L53.6243 23.593H56.2293L61.8363 39.143H59.2863L57.8653 34.94ZM71.5583 33.475C71.5583 31.18 70.3723 29.671 68.5653 29.671C66.7893 29.671 65.5953 31.211 65.5953 33.475C65.5953 35.76 66.7893 37.29 68.5653 37.29C70.3723 37.29 71.5583 35.79 71.5583 33.475ZM73.9473 33.475C73.9473 36.998 72.0633 39.262 69.2203 39.262C67.6073 39.262 66.3263 38.539 65.6583 37.278H65.6043V42.893H63.2803V27.806H65.5303V29.692H65.5733C66.2203 28.476 67.5983 27.688 69.1793 27.688C72.0533 27.688 73.9483 29.962 73.9483 33.475H73.9473ZM84.0203 33.475C84.0203 31.18 82.8353 29.671 81.0283 29.671C79.2523 29.671 78.0583 31.211 78.0583 33.475C78.0583 35.76 79.2523 37.29 81.0283 37.29C82.8353 37.29 84.0203 35.79 84.0203 33.475ZM86.4093 33.475C86.4093 36.998 84.5263 39.262 81.6833 39.262C80.0703 39.262 78.7893 38.539 78.1213 37.278H78.0683V42.893H75.7433V27.806H77.9933V29.692H78.0353C78.6823 28.476 80.0593 27.688 81.6413 27.688C84.5153 27.688 86.4093 29.962 86.4093 33.475ZM94.6473 34.81C94.8183 36.353 96.3153 37.365 98.3593 37.365C100.319 37.365 101.728 36.353 101.728 34.962C101.728 33.755 100.878 33.032 98.8653 32.537L96.8523 32.052C94.0003 31.362 92.6763 30.027 92.6763 27.859C92.6763 25.177 95.0123 23.334 98.3273 23.334C101.609 23.334 103.859 25.177 103.934 27.859H101.588C101.448 26.308 100.166 25.371 98.2953 25.371C96.4213 25.371 95.1413 26.319 95.1413 27.698C95.1413 28.798 95.9593 29.445 97.9613 29.94L99.6723 30.36C102.859 31.115 104.183 32.396 104.183 34.671C104.183 37.58 101.868 39.401 98.1873 39.401C94.7433 39.401 92.4173 37.622 92.2673 34.811H94.6473V34.81ZM109.199 25.123V27.806H111.352V29.649H109.199V35.899C109.199 36.87 109.63 37.322 110.577 37.322C110.813 37.322 111.191 37.29 111.341 37.268V39.1C111.084 39.165 110.567 39.208 110.05 39.208C107.758 39.208 106.864 38.345 106.864 36.148V29.648H105.218V27.806H106.864V25.123H109.199ZM120.973 33.475C120.973 31.029 119.854 29.584 117.97 29.584C116.087 29.584 114.968 31.039 114.968 33.475C114.968 35.932 116.087 37.365 117.97 37.365C119.854 37.365 120.973 35.932 120.973 33.475ZM112.6 33.475C112.6 29.908 114.698 27.666 117.97 27.666C121.253 27.666 123.342 29.908 123.342 33.476C123.342 37.051 121.264 39.283 117.97 39.283C114.677 39.283 112.6 37.051 112.6 33.475ZM125.258 27.806H127.475V29.736H127.529C127.884 28.453 128.917 27.688 130.252 27.688C130.586 27.688 130.865 27.732 131.049 27.774V29.951C130.865 29.875 130.456 29.811 130.004 29.811C128.508 29.811 127.583 30.825 127.583 32.419V39.143H125.258V27.806ZM133.908 32.43H139.569C139.515 30.694 138.407 29.552 136.792 29.552C135.189 29.552 134.027 30.717 133.908 32.43ZM141.765 35.813C141.452 37.872 139.451 39.283 136.89 39.283C133.595 39.283 131.55 37.074 131.55 33.529C131.55 29.973 133.606 27.666 136.792 27.666C139.925 27.666 141.895 29.821 141.895 33.259V34.056H133.897V34.196C133.897 36.136 135.114 37.407 136.943 37.407C138.234 37.407 139.247 36.794 139.559 35.813H141.765ZM50.7303 18.304H52.1383C53.6983 18.304 54.5983 17.331 54.5983 15.617C54.5983 13.929 53.6843 12.945 52.1383 12.945H50.7303V18.304ZM52.2673 11.889C54.4803 11.889 55.7783 13.25 55.7783 15.602C55.7783 17.988 54.4903 19.361 52.2673 19.361H49.5703V11.889H52.2663H52.2673ZM61.2573 16.538C61.2573 15.316 60.7073 14.602 59.7473 14.602C58.7793 14.602 58.2373 15.316 58.2373 16.538C58.2373 17.77 58.7793 18.48 59.7473 18.48C60.7073 18.48 61.2573 17.765 61.2573 16.538ZM57.0883 16.538C57.0883 14.722 58.1013 13.613 59.7463 13.613C61.3863 13.613 62.4003 14.722 62.4003 16.538C62.4003 18.366 61.3903 19.47 59.7463 19.47C58.0963 19.47 57.0883 18.366 57.0883 16.538ZM69.4603 19.36H68.3073L67.1443 15.207H67.0553L65.8973 19.361H64.7553L63.2023 13.722H64.3303L65.3383 18.025H65.4223L66.5803 13.722H67.6453L68.8043 18.025H68.8913L69.8953 13.722H71.0073L69.4603 19.361V19.36ZM72.3133 13.722H73.3833V14.618H73.4653C73.7393 13.991 74.2983 13.613 75.1453 13.613C76.4033 13.613 77.0953 14.368 77.0953 15.711V19.361H75.9843V15.99C75.9843 15.083 75.5913 14.633 74.7683 14.633C73.9463 14.633 73.4243 15.183 73.4243 16.061V19.361H72.3133V13.722ZM78.8673 19.36H79.9793V11.521H78.8673V19.361V19.36ZM85.6923 16.538C85.6923 15.316 85.1433 14.602 84.1823 14.602C83.2143 14.602 82.6723 15.316 82.6723 16.538C82.6723 17.77 83.2143 18.48 84.1823 18.48C85.1433 18.48 85.6923 17.765 85.6923 16.538ZM81.5233 16.538C81.5233 14.722 82.5373 13.613 84.1813 13.613C85.8213 13.613 86.8353 14.722 86.8353 16.538C86.8353 18.366 85.8253 19.47 84.1813 19.47C82.5313 19.47 81.5233 18.366 81.5233 16.538ZM91.6253 17.285V16.813L90.2513 16.9C89.4753 16.953 89.1243 17.217 89.1243 17.714C89.1243 18.221 89.5633 18.517 90.1673 18.517C91.0053 18.517 91.6253 17.983 91.6253 17.285ZM88.0053 17.765C88.0053 16.751 88.7603 16.165 90.1013 16.083L91.6253 15.995V15.508C91.6253 14.913 91.2333 14.576 90.4743 14.576C89.8543 14.576 89.4233 14.804 89.2993 15.202H88.2233C88.3373 14.234 89.2473 13.613 90.5253 13.613C91.9373 13.613 92.7323 14.317 92.7323 15.508V19.361H91.6623V18.568H91.5743C91.2393 19.133 90.6243 19.453 89.8843 19.453C88.7983 19.453 88.0063 18.796 88.0063 17.765H88.0053ZM95.3413 16.538C95.3413 17.734 95.9043 18.454 96.8463 18.454C97.7823 18.454 98.3623 17.724 98.3623 16.544C98.3623 15.369 97.7763 14.628 96.8463 14.628C95.9103 14.628 95.3413 15.353 95.3413 16.538ZM94.1933 16.538C94.1933 14.757 95.1083 13.628 96.5303 13.628C97.3023 13.628 97.9523 13.996 98.2583 14.618H98.3423V11.52H99.4523V19.36H98.3883V18.468H98.2983C97.9643 19.086 97.3063 19.452 96.5303 19.452C95.0983 19.452 94.1933 18.324 94.1933 16.537V16.538ZM108.219 16.538C108.219 15.316 107.67 14.602 106.709 14.602C105.742 14.602 105.199 15.316 105.199 16.538C105.199 17.77 105.742 18.48 106.709 18.48C107.67 18.48 108.219 17.765 108.219 16.538ZM104.051 16.538C104.051 14.722 105.065 13.613 106.709 13.613C108.348 13.613 109.363 14.722 109.363 16.538C109.363 18.366 108.353 19.47 106.709 19.47C105.06 19.47 104.051 18.366 104.051 16.538ZM110.855 13.722H111.924V14.618H112.007C112.281 13.991 112.84 13.613 113.688 13.613C114.945 13.613 115.638 14.368 115.638 15.711V19.361H114.526V15.99C114.526 15.083 114.133 14.633 113.31 14.633C112.488 14.633 111.966 15.183 111.966 16.061V19.361H110.855V13.722ZM121.917 12.319V13.748H123.138V14.686H121.917V17.584C121.917 18.175 122.161 18.434 122.714 18.434C122.885 18.434 122.983 18.424 123.138 18.408V19.335C122.939 19.3712 122.736 19.3902 122.533 19.392C121.297 19.392 120.805 18.957 120.805 17.87V14.685H119.911V13.748H120.805V12.318H121.917V12.319ZM124.656 11.521H125.758V14.628H125.846C126.118 13.996 126.714 13.618 127.563 13.618C128.762 13.618 129.503 14.38 129.503 15.721V19.361H128.39V15.995C128.39 15.095 127.971 14.638 127.185 14.638C126.275 14.638 125.767 15.214 125.767 16.068V19.361H124.656V11.521ZM132.073 16.021H134.918C134.892 15.136 134.354 14.56 133.531 14.56C132.709 14.56 132.135 15.14 132.073 16.021ZM135.983 17.838C135.73 18.848 134.829 19.47 133.542 19.47C131.929 19.47 130.941 18.362 130.941 16.558C130.941 14.757 131.95 13.613 133.537 13.613C135.105 13.613 136.05 14.685 136.05 16.456V16.844H132.073V16.907C132.11 17.895 132.684 18.522 133.572 18.522C134.247 18.522 134.707 18.278 134.913 17.838H135.983Z" fill="#FFFFFE"/>
</svg>
