<svg width="19" height="26" viewBox="0 0 19 26" fill="none" xmlns="http://www.w3.org/2000/svg">
<path opacity="1" d="M10.7279 6.50539C10.0541 5.83154 8.9455 5.83154 8.27164 6.50539L0.511483 14.2656C-0.22758 15.0046 -0.162369 16.2219 0.68538 16.874C1.38097 17.4174 2.40261 17.3088 3.03299 16.6784L7.77169 11.9179V24.1994C7.77169 25.0689 8.38033 25.8515 9.24982 25.9819C10.3149 26.134 11.2496 25.308 11.2496 24.2646V11.9614L16.0101 16.7218C16.3579 17.0696 16.7926 17.2218 17.2491 17.2218C17.7708 17.2218 18.3142 16.9827 18.662 16.5045C19.162 15.8089 19.0533 14.8307 18.4446 14.2221L10.7279 6.50539Z" fill="white"/>
<path opacity="1" fill-rule="evenodd" clip-rule="evenodd" d="M0 1.75C0 0.783502 0.671573 0 1.5 0L17.5 0C18.3284 0 19 0.783502 19 1.75C19 2.7165 18.3284 3.5 17.5 3.5L1.5 3.5C0.671573 3.5 0 2.7165 0 1.75Z" fill="white"/>
</svg>
