<svg width="473" height="823" viewBox="0 0 473 823" fill="none" xmlns="http://www.w3.org/2000/svg">
<rect x="201.447" y="0.139923" width="39.2357" height="822.316" fill="url(#paint0_linear)"/>
<rect x="43.4492" y="222.364" width="355.163" height="64.9971" rx="11.6066" fill="#EEEFF2"/>
<path d="M123.99 259.096V257.422H118.465V254.416H123.876V252.742H118.465V249.931H123.99V248.257H116.564V259.096H123.99ZM133.238 259.096L129.907 254.806L133.173 251.247H131.061L127.6 255.033V251.247H125.893V259.096H127.6V256.983L128.688 255.862L131.093 259.096H133.238ZM137.942 259.291C139.469 259.291 140.396 258.641 140.948 257.893L139.827 256.853C139.388 257.455 138.787 257.78 138.023 257.78C136.593 257.78 135.651 256.691 135.651 255.163C135.651 253.636 136.593 252.564 138.023 252.564C138.787 252.564 139.388 252.872 139.827 253.49L140.948 252.45C140.396 251.702 139.469 251.052 137.942 251.052C135.553 251.052 133.88 252.791 133.88 255.163C133.88 257.552 135.553 259.291 137.942 259.291ZM149.464 259.096V251.247H142.444V259.096H144.15V252.742H147.758V259.096H149.464ZM155.904 259.291C157.936 259.291 159.382 257.747 159.382 255.163C159.382 252.58 157.936 251.052 155.904 251.052C154.881 251.052 153.971 251.54 153.386 252.32V251.247H151.68V262.086H153.386V258.007C154.019 258.852 154.913 259.291 155.904 259.291ZM155.401 257.78C154.604 257.78 153.759 257.292 153.386 256.723V253.62C153.759 253.035 154.604 252.564 155.401 252.564C156.749 252.564 157.611 253.652 157.611 255.163C157.611 256.691 156.749 257.78 155.401 257.78ZM164.697 259.291C165.948 259.291 167.102 258.901 167.882 258.153L167.102 257.032C166.55 257.585 165.64 257.893 164.876 257.893C163.397 257.893 162.504 256.918 162.374 255.732H168.435V255.326C168.435 252.856 166.923 251.052 164.567 251.052C162.244 251.052 160.586 252.888 160.586 255.163C160.586 257.65 162.341 259.291 164.697 259.291ZM166.777 254.53H162.357C162.439 253.571 163.105 252.45 164.567 252.45C166.111 252.45 166.745 253.603 166.777 254.53ZM173.693 259.291C175.221 259.291 176.147 258.641 176.7 257.893L175.578 256.853C175.14 257.455 174.538 257.78 173.775 257.78C172.345 257.78 171.402 256.691 171.402 255.163C171.402 253.636 172.345 252.564 173.775 252.564C174.538 252.564 175.14 252.872 175.578 253.49L176.7 252.45C176.147 251.702 175.221 251.052 173.693 251.052C171.305 251.052 169.631 252.791 169.631 255.163C169.631 257.552 171.305 259.291 173.693 259.291ZM181.478 255.895V254.432H177.578V255.895H181.478ZM184.773 259.096V255.83H188.381V259.096H190.087V251.247H188.381V254.335H184.773V251.247H183.067V259.096H184.773ZM198.802 259.096V253.896C198.802 251.784 197.275 251.052 195.536 251.052C194.285 251.052 193.148 251.459 192.238 252.32L192.936 253.506C193.619 252.84 194.383 252.515 195.26 252.515C196.349 252.515 197.096 253.067 197.096 253.977V255.147C196.528 254.481 195.618 254.14 194.561 254.14C193.278 254.14 191.831 254.887 191.831 256.691C191.831 258.429 193.278 259.291 194.561 259.291C195.601 259.291 196.511 258.917 197.096 258.251V259.096H198.802ZM195.228 258.121C194.269 258.121 193.554 257.568 193.554 256.723C193.554 255.862 194.269 255.31 195.228 255.31C195.975 255.31 196.706 255.586 197.096 256.122V257.308C196.706 257.845 195.975 258.121 195.228 258.121ZM208.359 259.096L205.028 254.806L208.294 251.247H206.182L202.721 255.033V251.247H201.014V259.096H202.721V256.983L203.809 255.862L206.214 259.096H208.359ZM208.755 259.291C210.478 259.291 211.452 258.105 211.761 255.261L212.037 252.742H214.881V259.096H216.587V251.247H210.526L210.055 255.066C209.795 257.13 209.421 257.893 208.755 257.893V259.291ZM225.303 259.096V253.896C225.303 251.784 223.775 251.052 222.037 251.052C220.785 251.052 219.648 251.459 218.738 252.32L219.437 253.506C220.119 252.84 220.883 252.515 221.76 252.515C222.849 252.515 223.597 253.067 223.597 253.977V255.147C223.028 254.481 222.118 254.14 221.062 254.14C219.778 254.14 218.332 254.887 218.332 256.691C218.332 258.429 219.778 259.291 221.062 259.291C222.102 259.291 223.012 258.917 223.597 258.251V259.096H225.303ZM221.728 258.121C220.769 258.121 220.054 257.568 220.054 256.723C220.054 255.862 220.769 255.31 221.728 255.31C222.475 255.31 223.207 255.586 223.597 256.122V257.308C223.207 257.845 222.475 258.121 221.728 258.121ZM226.702 261.094H228.408V259.096H233.689V261.094H235.396V257.601H234.534V251.247H228.473L228.002 255.066C227.742 257.13 227.368 257.52 226.702 257.682V261.094ZM229.985 252.742H232.828V257.601H228.668C229.221 257.113 229.595 256.35 229.708 255.261L229.985 252.742ZM238.504 259.096V255.83H242.111V259.096H243.817V251.247H242.111V254.335H238.504V251.247H236.798V259.096H238.504ZM252.533 259.096V253.896C252.533 251.784 251.005 251.052 249.267 251.052C248.016 251.052 246.878 251.459 245.968 252.32L246.667 253.506C247.349 252.84 248.113 252.515 248.991 252.515C250.079 252.515 250.827 253.067 250.827 253.977V255.147C250.258 254.481 249.348 254.14 248.292 254.14C247.008 254.14 245.562 254.887 245.562 256.691C245.562 258.429 247.008 259.291 248.292 259.291C249.332 259.291 250.242 258.917 250.827 258.251V259.096H252.533ZM248.958 258.121C247.999 258.121 247.284 257.568 247.284 256.723C247.284 255.862 247.999 255.31 248.958 255.31C249.706 255.31 250.437 255.586 250.827 256.122V257.308C250.437 257.845 249.706 258.121 248.958 258.121ZM262.493 259.291C264.021 259.291 264.947 258.641 265.499 257.893L264.378 256.853C263.939 257.455 263.338 257.78 262.574 257.78C261.145 257.78 260.202 256.691 260.202 255.163C260.202 253.636 261.145 252.564 262.574 252.564C263.338 252.564 263.939 252.872 264.378 253.49L265.499 252.45C264.947 251.702 264.021 251.052 262.493 251.052C260.105 251.052 258.431 252.791 258.431 255.163C258.431 257.552 260.105 259.291 262.493 259.291ZM270.132 259.096V252.742H272.39V251.247H266.183V252.742H268.425V259.096H270.132ZM278.597 259.096C280.124 259.096 280.969 258.186 280.969 256.967C280.969 256.041 280.336 255.245 279.491 255.05C280.206 254.838 280.807 254.205 280.807 253.262C280.807 252.141 279.978 251.247 278.483 251.247H273.787V259.096H278.597ZM278.239 257.601H275.493V255.83H278.239C278.873 255.83 279.214 256.252 279.214 256.723C279.214 257.276 278.841 257.601 278.239 257.601ZM278.191 254.335H275.493V252.742H278.191C278.743 252.742 279.068 253.067 279.068 253.555C279.068 253.993 278.743 254.335 278.191 254.335ZM286.628 259.291C289.147 259.291 290.674 257.422 290.674 255.163C290.674 252.921 289.147 251.052 286.628 251.052C284.142 251.052 282.598 252.921 282.598 255.163C282.598 257.422 284.142 259.291 286.628 259.291ZM286.628 257.78C285.182 257.78 284.37 256.561 284.37 255.163C284.37 253.782 285.182 252.564 286.628 252.564C288.091 252.564 288.903 253.782 288.903 255.163C288.903 256.561 288.091 257.78 286.628 257.78ZM296.626 259.291C298.657 259.291 300.103 257.747 300.103 255.163C300.103 252.58 298.657 251.052 296.626 251.052C295.602 251.052 294.692 251.54 294.107 252.32V251.247H292.401V262.086H294.107V258.007C294.741 258.852 295.634 259.291 296.626 259.291ZM296.122 257.78C295.326 257.78 294.481 257.292 294.107 256.723V253.62C294.481 253.035 295.326 252.564 296.122 252.564C297.47 252.564 298.332 253.652 298.332 255.163C298.332 256.691 297.47 257.78 296.122 257.78ZM305.418 259.291C306.67 259.291 307.823 258.901 308.603 258.153L307.823 257.032C307.271 257.585 306.361 257.893 305.597 257.893C304.118 257.893 303.225 256.918 303.095 255.732H309.156V255.326C309.156 252.856 307.645 251.052 305.288 251.052C302.965 251.052 301.307 252.888 301.307 255.163C301.307 257.65 303.062 259.291 305.418 259.291ZM307.498 254.53H303.079C303.16 253.571 303.826 252.45 305.288 252.45C306.832 252.45 307.466 253.603 307.498 254.53ZM312.546 259.096V255.83H316.153V259.096H317.86V251.247H316.153V254.335H312.546V251.247H310.84V259.096H312.546ZM326.575 259.096V253.896C326.575 251.784 325.048 251.052 323.309 251.052C322.058 251.052 320.92 251.459 320.01 252.32L320.709 253.506C321.391 252.84 322.155 252.515 323.033 252.515C324.121 252.515 324.869 253.067 324.869 253.977V255.147C324.3 254.481 323.39 254.14 322.334 254.14C321.05 254.14 319.604 254.887 319.604 256.691C319.604 258.429 321.05 259.291 322.334 259.291C323.374 259.291 324.284 258.917 324.869 258.251V259.096H326.575ZM323 258.121C322.041 258.121 321.326 257.568 321.326 256.723C321.326 255.862 322.041 255.31 323 255.31C323.748 255.31 324.479 255.586 324.869 256.122V257.308C324.479 257.845 323.748 258.121 323 258.121Z" fill="#4C5866"/>
<rect x="43.4492" y="315.217" width="355.163" height="64.9971" rx="11.6066" fill="#EEEFF2"/>
<path d="M153.378 350.788C155.409 350.788 156.53 349.537 156.53 347.863C156.53 346.531 155.588 345.377 154.434 345.198C155.441 344.987 156.319 344.077 156.319 342.712C156.319 341.185 155.214 339.95 153.232 339.95H147.902V350.788H153.378ZM152.842 344.435H149.803V341.623H152.842C153.816 341.623 154.369 342.225 154.369 343.037C154.369 343.85 153.816 344.435 152.842 344.435ZM152.923 349.114H149.803V346.108H152.923C154.011 346.108 154.58 346.791 154.58 347.603C154.58 348.546 153.963 349.114 152.923 349.114ZM164.889 350.788V345.588C164.889 343.476 163.362 342.745 161.623 342.745C160.372 342.745 159.235 343.151 158.325 344.012L159.023 345.198C159.706 344.532 160.47 344.207 161.347 344.207C162.436 344.207 163.183 344.76 163.183 345.669V346.839C162.614 346.173 161.704 345.832 160.648 345.832C159.365 345.832 157.918 346.579 157.918 348.383C157.918 350.122 159.365 350.983 160.648 350.983C161.688 350.983 162.598 350.609 163.183 349.943V350.788H164.889ZM161.314 349.813C160.356 349.813 159.641 349.261 159.641 348.416C159.641 347.554 160.356 347.002 161.314 347.002C162.062 347.002 162.793 347.278 163.183 347.814V349.001C162.793 349.537 162.062 349.813 161.314 349.813ZM168.808 350.788V347.522H172.415V350.788H174.121V342.94H172.415V346.027H168.808V342.94H167.101V350.788H168.808ZM179.473 350.788V344.435H181.732V342.94H175.524V344.435H177.767V350.788H179.473ZM189.628 350.788V345.588C189.628 343.476 188.101 342.745 186.362 342.745C185.111 342.745 183.973 343.151 183.064 344.012L183.762 345.198C184.445 344.532 185.208 344.207 186.086 344.207C187.175 344.207 187.922 344.76 187.922 345.669V346.839C187.353 346.173 186.443 345.832 185.387 345.832C184.103 345.832 182.657 346.579 182.657 348.383C182.657 350.122 184.103 350.983 185.387 350.983C186.427 350.983 187.337 350.609 187.922 349.943V350.788H189.628ZM186.053 349.813C185.095 349.813 184.38 349.261 184.38 348.416C184.38 347.554 185.095 347.002 186.053 347.002C186.801 347.002 187.532 347.278 187.922 347.814V349.001C187.532 349.537 186.801 349.813 186.053 349.813ZM192.978 350.788L195.383 347.554L195.821 348.009V350.788H197.528V348.009L197.966 347.554L200.371 350.788H202.516L199.185 346.498L202.451 342.94H200.339L197.528 346.011V342.94H195.821V346.011L193.01 342.94H190.898L194.164 346.498L190.833 350.788H192.978ZM207.558 353.859C207.802 353.924 208.273 353.973 208.517 353.973C209.735 353.957 210.678 353.534 211.214 352.202L215 342.94H213.164L210.873 348.822L208.582 342.94H206.762L209.979 350.885L209.589 351.779C209.362 352.299 209.004 352.462 208.468 352.462C208.273 352.462 207.997 352.413 207.818 352.332L207.558 353.859ZM225.055 350.788C226.582 350.788 227.427 349.878 227.427 348.659C227.427 347.733 226.793 346.937 225.948 346.742C226.663 346.531 227.264 345.897 227.264 344.954C227.264 343.833 226.436 342.94 224.941 342.94H220.245V350.788H225.055ZM224.697 349.293H221.951V347.522H224.697C225.331 347.522 225.672 347.944 225.672 348.416C225.672 348.968 225.298 349.293 224.697 349.293ZM224.648 346.027H221.951V344.435H224.648C225.201 344.435 225.526 344.76 225.526 345.247C225.526 345.686 225.201 346.027 224.648 346.027ZM230.389 341.981C230.974 341.981 231.445 341.51 231.445 340.925C231.445 340.34 230.974 339.868 230.389 339.868C229.82 339.868 229.332 340.34 229.332 340.925C229.332 341.51 229.82 341.981 230.389 341.981ZM231.25 350.788V342.94H229.544V350.788H231.25ZM232.651 352.787H234.357V350.788H239.638V352.787H241.344V349.293H240.483V342.94H234.422L233.951 346.758C233.691 348.822 233.317 349.212 232.651 349.374V352.787ZM235.933 344.435H238.777V349.293H234.617C235.169 348.806 235.543 348.042 235.657 346.953L235.933 344.435ZM241.934 352.787H243.64V350.788H248.921V352.787H250.627V349.293H249.766V342.94H243.705L243.234 346.758C242.974 348.822 242.6 349.212 241.934 349.374V352.787ZM245.216 344.435H248.06V349.293H243.9C244.452 348.806 244.826 348.042 244.94 346.953L245.216 344.435ZM252.874 341.981C253.459 341.981 253.93 341.51 253.93 340.925C253.93 340.34 253.459 339.868 252.874 339.868C252.305 339.868 251.818 340.34 251.818 340.925C251.818 341.51 252.305 341.981 252.874 341.981ZM253.735 350.788V342.94H252.029V350.788H253.735ZM255.136 350.983C256.859 350.983 257.834 349.797 258.142 346.953L258.419 344.435H261.262V350.788H262.968V342.94H256.907L256.436 346.758C256.176 348.822 255.802 349.586 255.136 349.586V350.983ZM268.808 350.983C270.059 350.983 271.213 350.593 271.993 349.846L271.213 348.724C270.66 349.277 269.75 349.586 268.986 349.586C267.508 349.586 266.614 348.611 266.484 347.424H272.545V347.018C272.545 344.548 271.034 342.745 268.678 342.745C266.354 342.745 264.697 344.581 264.697 346.856C264.697 349.342 266.452 350.983 268.808 350.983ZM270.888 346.222H266.468C266.549 345.263 267.215 344.142 268.678 344.142C270.221 344.142 270.855 345.296 270.888 346.222ZM275.935 350.788V347.522H279.543V350.788H281.249V342.94H279.543V346.027H275.935V342.94H274.229V350.788H275.935ZM285.171 350.788V347.522H288.778V350.788H290.484V342.94H288.778V346.027H285.171V342.94H283.465V350.788H285.171ZM293.545 341.981C294.13 341.981 294.601 341.51 294.601 340.925C294.601 340.34 294.13 339.868 293.545 339.868C292.976 339.868 292.489 340.34 292.489 340.925C292.489 341.51 292.976 341.981 293.545 341.981ZM294.406 350.788V342.94H292.7V350.788H294.406Z" fill="#4C5866"/>
<rect x="43.4492" y="408.07" width="355.163" height="64.9971" rx="11.6066" fill="#EEEFF2"/>
<path d="M161.503 444.802C163.534 444.802 164.655 443.55 164.655 441.877C164.655 440.544 163.713 439.391 162.559 439.212C163.566 439.001 164.444 438.091 164.444 436.726C164.444 435.198 163.339 433.963 161.357 433.963H156.027V444.802H161.503ZM160.967 438.448H157.928V435.637H160.967C161.941 435.637 162.494 436.238 162.494 437.051C162.494 437.863 161.941 438.448 160.967 438.448ZM161.048 443.128H157.928V440.122H161.048C162.136 440.122 162.705 440.804 162.705 441.617C162.705 442.559 162.088 443.128 161.048 443.128ZM173.014 444.802V439.602C173.014 437.489 171.487 436.758 169.748 436.758C168.497 436.758 167.36 437.164 166.45 438.026L167.148 439.212C167.831 438.546 168.595 438.221 169.472 438.221C170.561 438.221 171.308 438.773 171.308 439.683V440.853C170.739 440.187 169.829 439.846 168.773 439.846C167.49 439.846 166.043 440.593 166.043 442.397C166.043 444.135 167.49 444.997 168.773 444.997C169.813 444.997 170.723 444.623 171.308 443.957V444.802H173.014ZM169.439 443.827C168.481 443.827 167.766 443.274 167.766 442.429C167.766 441.568 168.481 441.015 169.439 441.015C170.187 441.015 170.918 441.292 171.308 441.828V443.014C170.918 443.55 170.187 443.827 169.439 443.827ZM176.933 444.802V441.535H180.54V444.802H182.246V436.953H180.54V440.041H176.933V436.953H175.226V444.802H176.933ZM187.598 444.802V438.448H189.857V436.953H183.649V438.448H185.892V444.802H187.598ZM197.753 444.802V439.602C197.753 437.489 196.226 436.758 194.487 436.758C193.236 436.758 192.098 437.164 191.189 438.026L191.887 439.212C192.57 438.546 193.333 438.221 194.211 438.221C195.3 438.221 196.047 438.773 196.047 439.683V440.853C195.478 440.187 194.568 439.846 193.512 439.846C192.228 439.846 190.782 440.593 190.782 442.397C190.782 444.135 192.228 444.997 193.512 444.997C194.552 444.997 195.462 444.623 196.047 443.957V444.802H197.753ZM194.178 443.827C193.22 443.827 192.505 443.274 192.505 442.429C192.505 441.568 193.22 441.015 194.178 441.015C194.926 441.015 195.657 441.292 196.047 441.828V443.014C195.657 443.55 194.926 443.827 194.178 443.827ZM201.103 444.802L203.508 441.568L203.946 442.023V444.802H205.653V442.023L206.091 441.568L208.496 444.802H210.641L207.31 440.512L210.576 436.953H208.464L205.653 440.024V436.953H203.946V440.024L201.135 436.953H199.023L202.289 440.512L198.958 444.802H201.103ZM219.566 444.997C222.085 444.997 223.613 443.128 223.613 440.869C223.613 438.627 222.085 436.758 219.566 436.758C217.08 436.758 215.537 438.627 215.537 440.869C215.537 443.128 217.08 444.997 219.566 444.997ZM219.566 443.485C218.12 443.485 217.308 442.267 217.308 440.869C217.308 439.488 218.12 438.269 219.566 438.269C221.029 438.269 221.841 439.488 221.841 440.869C221.841 442.267 221.029 443.485 219.566 443.485ZM228.475 444.802V438.448H230.734V436.953H224.526V438.448H226.769V444.802H228.475ZM236.355 444.997C238.387 444.997 239.833 443.453 239.833 440.869C239.833 438.286 238.387 436.758 236.355 436.758C235.332 436.758 234.422 437.246 233.837 438.026V436.953H232.131V447.791H233.837V443.713C234.47 444.558 235.364 444.997 236.355 444.997ZM235.852 443.485C235.055 443.485 234.21 442.998 233.837 442.429V439.326C234.21 438.741 235.055 438.269 235.852 438.269C237.2 438.269 238.062 439.358 238.062 440.869C238.062 442.397 237.2 443.485 235.852 443.485ZM243.166 444.802L246.838 439.374V444.802H248.544V436.953H246.838L243.231 442.234V436.953H241.525V444.802H243.166ZM259.551 444.802V436.953H257.309L255.164 442.023L252.986 436.953H250.76V444.802H252.466V439.342L254.822 444.802H255.505L257.845 439.342V444.802H259.551ZM268.257 444.802V439.602C268.257 437.489 266.729 436.758 264.991 436.758C263.739 436.758 262.602 437.164 261.692 438.026L262.391 439.212C263.073 438.546 263.837 438.221 264.714 438.221C265.803 438.221 266.55 438.773 266.55 439.683V440.853C265.982 440.187 265.072 439.846 264.016 439.846C262.732 439.846 261.286 440.593 261.286 442.397C261.286 444.135 262.732 444.997 264.016 444.997C265.056 444.997 265.965 444.623 266.55 443.957V444.802H268.257ZM264.682 443.827C263.723 443.827 263.008 443.274 263.008 442.429C263.008 441.568 263.723 441.015 264.682 441.015C265.429 441.015 266.16 441.292 266.55 441.828V443.014C266.16 443.55 265.429 443.827 264.682 443.827ZM272.175 444.802V441.535H275.782V444.802H277.488V436.953H275.782V440.041H272.175V436.953H270.469V444.802H272.175ZM283.246 444.997C285.765 444.997 287.293 443.128 287.293 440.869C287.293 438.627 285.765 436.758 283.246 436.758C280.76 436.758 279.217 438.627 279.217 440.869C279.217 443.128 280.76 444.997 283.246 444.997ZM283.246 443.485C281.8 443.485 280.988 442.267 280.988 440.869C280.988 439.488 281.8 438.269 283.246 438.269C284.709 438.269 285.521 439.488 285.521 440.869C285.521 442.267 284.709 443.485 283.246 443.485Z" fill="#4C5866"/>
<rect x="43.4492" y="603.062" width="355.163" height="64.9971" rx="11.6066" fill="#EEEFF2"/>
<path d="M149.895 640.953C151.926 640.953 153.048 639.702 153.048 638.029C153.048 636.696 152.105 635.542 150.952 635.364C151.959 635.152 152.836 634.242 152.836 632.877C152.836 631.35 151.731 630.115 149.749 630.115H144.419V640.953H149.895ZM149.359 634.6H146.32V631.789H149.359C150.334 631.789 150.887 632.39 150.887 633.202C150.887 634.015 150.334 634.6 149.359 634.6ZM149.44 639.28H146.32V636.274H149.44C150.529 636.274 151.098 636.956 151.098 637.769C151.098 638.711 150.48 639.28 149.44 639.28ZM155.752 632.146C156.337 632.146 156.808 631.675 156.808 631.09C156.808 630.505 156.337 630.034 155.752 630.034C155.183 630.034 154.696 630.505 154.696 631.09C154.696 631.675 155.183 632.146 155.752 632.146ZM156.613 640.953V633.105H154.907V640.953H156.613ZM158.014 642.952H159.72V640.953H165.001V642.952H166.708V639.458H165.846V633.105H159.785L159.314 636.924C159.054 638.987 158.68 639.377 158.014 639.54V642.952ZM161.297 634.6H164.14V639.458H159.98C160.533 638.971 160.907 638.207 161.02 637.119L161.297 634.6ZM176.901 640.953V633.105H174.658L172.513 638.175L170.336 633.105H168.11V640.953H169.816V635.494L172.172 640.953H172.855L175.194 635.494V640.953H176.901ZM182.649 641.148C185.168 641.148 186.695 639.28 186.695 637.021C186.695 634.779 185.168 632.91 182.649 632.91C180.163 632.91 178.619 634.779 178.619 637.021C178.619 639.28 180.163 641.148 182.649 641.148ZM182.649 639.637C181.203 639.637 180.39 638.418 180.39 637.021C180.39 635.64 181.203 634.421 182.649 634.421C184.111 634.421 184.924 635.64 184.924 637.021C184.924 638.418 184.111 639.637 182.649 639.637ZM193.231 640.953C194.759 640.953 195.603 640.043 195.603 638.825C195.603 637.899 194.97 637.102 194.125 636.907C194.84 636.696 195.441 636.062 195.441 635.12C195.441 633.999 194.612 633.105 193.117 633.105H188.421V640.953H193.231ZM192.874 639.458H190.127V637.687H192.874C193.507 637.687 193.849 638.11 193.849 638.581C193.849 639.133 193.475 639.458 192.874 639.458ZM192.825 636.192H190.127V634.6H192.825C193.377 634.6 193.702 634.925 193.702 635.412C193.702 635.851 193.377 636.192 192.825 636.192ZM204.22 640.953V635.754C204.22 633.641 202.692 632.91 200.954 632.91C199.703 632.91 198.565 633.316 197.655 634.177L198.354 635.364C199.036 634.697 199.8 634.372 200.678 634.372C201.766 634.372 202.514 634.925 202.514 635.835V637.005C201.945 636.339 201.035 635.997 199.979 635.997C198.695 635.997 197.249 636.745 197.249 638.548C197.249 640.287 198.695 641.148 199.979 641.148C201.019 641.148 201.929 640.775 202.514 640.108V640.953H204.22ZM200.645 639.978C199.686 639.978 198.971 639.426 198.971 638.581C198.971 637.72 199.686 637.167 200.645 637.167C201.393 637.167 202.124 637.444 202.514 637.98V639.166C202.124 639.702 201.393 639.978 200.645 639.978ZM215.415 640.953C216.943 640.953 217.788 640.043 217.788 638.825C217.788 637.899 217.154 637.102 216.309 636.907C217.024 636.696 217.625 636.062 217.625 635.12C217.625 633.999 216.796 633.105 215.301 633.105H210.605V640.953H215.415ZM215.058 639.458H212.312V637.687H215.058C215.691 637.687 216.033 638.11 216.033 638.581C216.033 639.133 215.659 639.458 215.058 639.458ZM215.009 636.192H212.312V634.6H215.009C215.561 634.6 215.886 634.925 215.886 635.412C215.886 635.851 215.561 636.192 215.009 636.192ZM220.749 632.146C221.334 632.146 221.805 631.675 221.805 631.09C221.805 630.505 221.334 630.034 220.749 630.034C220.181 630.034 219.693 630.505 219.693 631.09C219.693 631.675 220.181 632.146 220.749 632.146ZM221.61 640.953V633.105H219.904V640.953H221.61ZM223.011 642.952H224.717V640.953H229.998V642.952H231.705V639.458H230.843V633.105H224.782L224.311 636.924C224.051 638.987 223.678 639.377 223.011 639.54V642.952ZM226.294 634.6H229.137V639.458H224.977C225.53 638.971 225.904 638.207 226.017 637.119L226.294 634.6ZM242.09 640.953C243.617 640.953 244.462 640.043 244.462 638.825C244.462 637.899 243.829 637.102 242.984 636.907C243.699 636.696 244.3 636.062 244.3 635.12C244.3 633.999 243.471 633.105 241.976 633.105H237.28V640.953H242.09ZM241.733 639.458H238.986V637.687H241.733C242.366 637.687 242.707 638.11 242.707 638.581C242.707 639.133 242.334 639.458 241.733 639.458ZM241.684 636.192H238.986V634.6H241.684C242.236 634.6 242.561 634.925 242.561 635.412C242.561 635.851 242.236 636.192 241.684 636.192ZM253.079 640.953V635.754C253.079 633.641 251.551 632.91 249.813 632.91C248.562 632.91 247.424 633.316 246.514 634.177L247.213 635.364C247.895 634.697 248.659 634.372 249.536 634.372C250.625 634.372 251.373 634.925 251.373 635.835V637.005C250.804 636.339 249.894 635.997 248.838 635.997C247.554 635.997 246.108 636.745 246.108 638.548C246.108 640.287 247.554 641.148 248.838 641.148C249.878 641.148 250.788 640.775 251.373 640.108V640.953H253.079ZM249.504 639.978C248.545 639.978 247.83 639.426 247.83 638.581C247.83 637.72 248.545 637.167 249.504 637.167C250.251 637.167 250.983 637.444 251.373 637.98V639.166C250.983 639.702 250.251 639.978 249.504 639.978ZM256.997 640.953V637.687H260.604V640.953H262.311V633.105H260.604V636.192H256.997V633.105H255.291V640.953H256.997ZM267.662 640.953V634.6H269.921V633.105H263.714V634.6H265.956V640.953H267.662ZM277.818 640.953V635.754C277.818 633.641 276.29 632.91 274.552 632.91C273.3 632.91 272.163 633.316 271.253 634.177L271.952 635.364C272.634 634.697 273.398 634.372 274.275 634.372C275.364 634.372 276.112 634.925 276.112 635.835V637.005C275.543 636.339 274.633 635.997 273.577 635.997C272.293 635.997 270.847 636.745 270.847 638.548C270.847 640.287 272.293 641.148 273.577 641.148C274.617 641.148 275.527 640.775 276.112 640.108V640.953H277.818ZM274.243 639.978C273.284 639.978 272.569 639.426 272.569 638.581C272.569 637.72 273.284 637.167 274.243 637.167C274.99 637.167 275.722 637.444 276.112 637.98V639.166C275.722 639.702 274.99 639.978 274.243 639.978ZM281.167 640.953L283.572 637.72L284.011 638.175V640.953H285.717V638.175L286.156 637.72L288.561 640.953H290.706L287.374 636.664L290.641 633.105H288.528L285.717 636.176V633.105H284.011V636.176L281.2 633.105H279.087L282.353 636.664L279.022 640.953H281.167ZM291.574 644.024C291.818 644.089 292.289 644.138 292.533 644.138C293.751 644.122 294.694 643.699 295.23 642.367L299.016 633.105H297.18L294.889 638.987L292.598 633.105H290.778L293.995 641.051L293.605 641.945C293.378 642.465 293.02 642.627 292.484 642.627C292.289 642.627 292.013 642.578 291.834 642.497L291.574 644.024Z" fill="#4C5866"/>
<g filter="url(#filter0_d)">
<rect x="43.4492" y="110.941" width="355.163" height="83.5677" rx="11.6066" fill="#4C5866"/>
</g>
<g clip-path="url(#clip0)">
<path d="M88.1914 142.51L89.1948 147.7C89.5793 149.689 91.5029 150.989 93.4913 150.605V150.605C95.4798 150.22 96.7801 148.297 96.3956 146.308L95.6614 142.51" stroke="#57B68B" stroke-width="2.32132" stroke-linecap="round"/>
<path d="M78.0065 139.813C78.0791 139.233 78.5728 138.797 79.1582 138.797H100.594C101.18 138.797 101.673 139.233 101.746 139.814L104.648 163.027C104.734 163.719 104.194 164.331 103.496 164.331H76.2565C75.5584 164.331 75.0182 163.719 75.1048 163.027L78.0065 139.813Z" stroke="#57B68B" stroke-width="2.32132" stroke-linecap="round" stroke-linejoin="round"/>
<path d="M82.332 138.797L84.6534 164.331" stroke="#57B68B" stroke-width="2.32132" stroke-linejoin="bevel"/>
<circle cx="72.0917" cy="144.226" r="9.49187" fill="#4C5866" stroke="white" stroke-width="1.16066"/>
<circle cx="72.0917" cy="144.226" r="8.91154" stroke="white" stroke-width="2.32132"/>
<path d="M76.0044 141.698L70.8605 146.341L68.1699 143.73" stroke="white" stroke-width="2.32132" stroke-linecap="round"/>
</g>
<path d="M130.535 147.028C133.038 147.028 134.825 145.712 134.825 143.875C134.825 142.202 133.363 141.341 132.306 141.243C133.428 141.048 134.663 140.203 134.663 138.757C134.663 136.937 132.875 135.832 130.535 135.832C128.732 135.832 127.22 136.563 126.392 137.538L127.367 138.724C128.147 137.944 129.252 137.522 130.357 137.522C131.689 137.522 132.761 138.042 132.761 139.049C132.761 140.041 131.705 140.479 130.324 140.479H128.147V142.153H130.324C131.981 142.153 132.94 142.608 132.94 143.68C132.94 144.688 132.014 145.338 130.47 145.338C129.317 145.338 127.968 144.834 127.269 144.022L126.245 145.273C126.977 146.248 128.602 147.028 130.535 147.028ZM143.187 146.833V141.633C143.187 139.521 141.66 138.789 139.921 138.789C138.67 138.789 137.533 139.196 136.623 140.057L137.321 141.243C138.004 140.577 138.768 140.252 139.645 140.252C140.734 140.252 141.481 140.804 141.481 141.714V142.884C140.913 142.218 140.003 141.877 138.946 141.877C137.663 141.877 136.217 142.624 136.217 144.428C136.217 146.167 137.663 147.028 138.946 147.028C139.986 147.028 140.896 146.654 141.481 145.988V146.833H143.187ZM139.613 145.858C138.654 145.858 137.939 145.305 137.939 144.46C137.939 143.599 138.654 143.047 139.613 143.047C140.36 143.047 141.091 143.323 141.481 143.859V145.045C141.091 145.582 140.36 145.858 139.613 145.858ZM154.19 146.833V138.984H151.948L149.803 144.054L147.626 138.984H145.4V146.833H147.106V141.373L149.462 146.833H150.144L152.484 141.373V146.833H154.19ZM159.939 147.028C162.457 147.028 163.985 145.159 163.985 142.901C163.985 140.658 162.457 138.789 159.939 138.789C157.453 138.789 155.909 140.658 155.909 142.901C155.909 145.159 157.453 147.028 159.939 147.028ZM159.939 145.517C158.493 145.517 157.68 144.298 157.68 142.901C157.68 141.519 158.493 140.301 159.939 140.301C161.401 140.301 162.214 141.519 162.214 142.901C162.214 144.298 161.401 145.517 159.939 145.517ZM170.521 146.833C172.048 146.833 172.893 145.923 172.893 144.704C172.893 143.778 172.26 142.982 171.415 142.787C172.13 142.576 172.731 141.942 172.731 140.999C172.731 139.878 171.902 138.984 170.407 138.984H165.711V146.833H170.521ZM170.163 145.338H167.417V143.567H170.163C170.797 143.567 171.138 143.989 171.138 144.46C171.138 145.013 170.765 145.338 170.163 145.338ZM170.115 142.072H167.417V140.479H170.115C170.667 140.479 170.992 140.804 170.992 141.292C170.992 141.731 170.667 142.072 170.115 142.072ZM174.198 147.028C175.92 147.028 176.895 145.842 177.204 142.998L177.48 140.479H180.324V146.833H182.03V138.984H175.969L175.497 142.803C175.237 144.867 174.864 145.63 174.198 145.63V147.028ZM187.869 147.028C189.12 147.028 190.274 146.638 191.054 145.89L190.274 144.769C189.721 145.322 188.811 145.63 188.048 145.63C186.569 145.63 185.675 144.655 185.545 143.469H191.606V143.063C191.606 140.593 190.095 138.789 187.739 138.789C185.415 138.789 183.758 140.626 183.758 142.901C183.758 145.387 185.513 147.028 187.869 147.028ZM189.949 142.267H185.529C185.61 141.308 186.277 140.187 187.739 140.187C189.283 140.187 189.916 141.341 189.949 142.267ZM194.997 146.833V143.567H198.604V146.833H200.31V138.984H198.604V142.072H194.997V138.984H193.29V146.833H194.997ZM204.232 146.833V143.567H207.839V146.833H209.546V138.984H207.839V142.072H204.232V138.984H202.526V146.833H204.232ZM213.435 146.833L215.157 143.989H216.961V146.833H218.667V138.984H214.182C212.493 138.984 211.583 140.138 211.583 141.487C211.583 142.836 212.395 143.68 213.419 143.908L211.485 146.833H213.435ZM214.394 142.494C213.711 142.494 213.321 142.072 213.321 141.487C213.321 140.902 213.744 140.479 214.394 140.479H216.961V142.494H214.394ZM232.063 146.833V138.984H225.043V146.833H226.749V140.479H230.357V146.833H232.063ZM235.124 138.026C235.709 138.026 236.18 137.555 236.18 136.97C236.18 136.385 235.709 135.913 235.124 135.913C234.555 135.913 234.067 136.385 234.067 136.97C234.067 137.555 234.555 138.026 235.124 138.026ZM235.985 146.833V138.984H234.279V146.833H235.985ZM237.386 148.831H239.092V146.833H244.373V148.831H246.079V145.338H245.218V138.984H239.157L238.686 142.803C238.426 144.867 238.052 145.257 237.386 145.419V148.831ZM240.668 140.479H243.512V145.338H239.352C239.904 144.85 240.278 144.087 240.392 142.998L240.668 140.479ZM250.617 146.833V140.479H252.876V138.984H246.669V140.479H248.911V146.833H250.617ZM259.083 146.833C260.61 146.833 261.455 145.923 261.455 144.704C261.455 143.778 260.821 142.982 259.976 142.787C260.691 142.576 261.292 141.942 261.292 140.999C261.292 139.878 260.464 138.984 258.969 138.984H254.273V146.833H259.083ZM258.725 145.338H255.979V143.567H258.725C259.359 143.567 259.7 143.989 259.7 144.46C259.7 145.013 259.326 145.338 258.725 145.338ZM258.676 142.072H255.979V140.479H258.676C259.229 140.479 259.554 140.804 259.554 141.292C259.554 141.731 259.229 142.072 258.676 142.072ZM267.195 147.028C268.446 147.028 269.6 146.638 270.38 145.89L269.6 144.769C269.048 145.322 268.138 145.63 267.374 145.63C265.895 145.63 265.002 144.655 264.872 143.469H270.933V143.063C270.933 140.593 269.421 138.789 267.065 138.789C264.742 138.789 263.084 140.626 263.084 142.901C263.084 145.387 264.839 147.028 267.195 147.028ZM269.275 142.267H264.855C264.937 141.308 265.603 140.187 267.065 140.187C268.609 140.187 269.243 141.341 269.275 142.267ZM276.842 147.028C278.873 147.028 280.319 145.484 280.319 142.901C280.319 140.317 278.873 138.789 276.842 138.789C275.818 138.789 274.908 139.277 274.323 140.057V138.984H272.617V149.823H274.323V145.744C274.957 146.589 275.85 147.028 276.842 147.028ZM276.338 145.517C275.542 145.517 274.697 145.029 274.323 144.46V141.357C274.697 140.772 275.542 140.301 276.338 140.301C277.686 140.301 278.548 141.389 278.548 142.901C278.548 144.428 277.686 145.517 276.338 145.517ZM281.198 148.831H282.905V146.833H288.186V148.831H289.892V145.338H289.03V138.984H282.97L282.498 142.803C282.238 144.867 281.865 145.257 281.198 145.419V148.831ZM284.481 140.479H287.324V145.338H283.165C283.717 144.85 284.091 144.087 284.204 142.998L284.481 140.479ZM292.431 146.833L294.836 143.599L295.275 144.054V146.833H296.981V144.054L297.42 143.599L299.825 146.833H301.97L298.639 142.543L301.905 138.984H299.792L296.981 142.056V138.984H295.275V142.056L292.464 138.984H290.351L293.617 142.543L290.286 146.833H292.431ZM306.724 147.028C307.975 147.028 309.128 146.638 309.908 145.89L309.128 144.769C308.576 145.322 307.666 145.63 306.902 145.63C305.424 145.63 304.53 144.655 304.4 143.469H310.461V143.063C310.461 140.593 308.95 138.789 306.594 138.789C304.27 138.789 302.612 140.626 302.612 142.901C302.612 145.387 304.367 147.028 306.724 147.028ZM308.803 142.267H304.384C304.465 141.308 305.131 140.187 306.594 140.187C308.137 140.187 308.771 141.341 308.803 142.267ZM313.851 146.833V143.567H317.458V146.833H319.165V138.984H317.458V142.072H313.851V138.984H312.145V146.833H313.851ZM325.004 147.028C326.255 147.028 327.409 146.638 328.189 145.89L327.409 144.769C326.856 145.322 325.946 145.63 325.183 145.63C323.704 145.63 322.81 144.655 322.68 143.469H328.741V143.063C328.741 140.593 327.23 138.789 324.874 138.789C322.55 138.789 320.893 140.626 320.893 142.901C320.893 145.387 322.648 147.028 325.004 147.028ZM327.084 142.267H322.664C322.745 141.308 323.412 140.187 324.874 140.187C326.418 140.187 327.051 141.341 327.084 142.267ZM133.98 167.833V159.984H126.96V167.833H128.667V161.479H132.274V167.833H133.98ZM140.421 168.028C142.452 168.028 143.898 166.484 143.898 163.901C143.898 161.317 142.452 159.789 140.421 159.789C139.397 159.789 138.487 160.277 137.902 161.057V159.984H136.196V170.823H137.902V166.744C138.536 167.589 139.429 168.028 140.421 168.028ZM139.917 166.517C139.121 166.517 138.276 166.029 137.902 165.46V162.357C138.276 161.772 139.121 161.301 139.917 161.301C141.266 161.301 142.127 162.389 142.127 163.901C142.127 165.428 141.266 166.517 139.917 166.517ZM149.132 168.028C151.651 168.028 153.178 166.159 153.178 163.901C153.178 161.658 151.651 159.789 149.132 159.789C146.646 159.789 145.102 161.658 145.102 163.901C145.102 166.159 146.646 168.028 149.132 168.028ZM149.132 166.517C147.686 166.517 146.874 165.298 146.874 163.901C146.874 162.519 147.686 161.301 149.132 161.301C150.595 161.301 151.407 162.519 151.407 163.901C151.407 165.298 150.595 166.517 149.132 166.517ZM154.092 169.831H155.798V167.833H161.079V169.831H162.786V166.338H161.924V159.984H155.863L155.392 163.803C155.132 165.867 154.758 166.257 154.092 166.419V169.831ZM157.375 161.479H160.218V166.338H156.058C156.611 165.85 156.985 165.087 157.098 163.998L157.375 161.479ZM170.687 167.833V162.633C170.687 160.521 169.16 159.789 167.421 159.789C166.17 159.789 165.033 160.196 164.123 161.057L164.821 162.243C165.504 161.577 166.268 161.252 167.145 161.252C168.234 161.252 168.981 161.804 168.981 162.714V163.884C168.413 163.218 167.503 162.877 166.446 162.877C165.163 162.877 163.717 163.624 163.717 165.428C163.717 167.167 165.163 168.028 166.446 168.028C167.486 168.028 168.396 167.654 168.981 166.988V167.833H170.687ZM167.113 166.858C166.154 166.858 165.439 166.305 165.439 165.46C165.439 164.599 166.154 164.047 167.113 164.047C167.86 164.047 168.591 164.323 168.981 164.859V166.045C168.591 166.582 167.86 166.858 167.113 166.858ZM177.709 167.833C179.237 167.833 180.082 166.923 180.082 165.704C180.082 164.778 179.448 163.982 178.603 163.787C179.318 163.576 179.919 162.942 179.919 161.999C179.919 160.878 179.09 159.984 177.596 159.984H172.9V167.833H177.709ZM177.352 166.338H174.606V164.567H177.352C177.986 164.567 178.327 164.989 178.327 165.46C178.327 166.013 177.953 166.338 177.352 166.338ZM177.303 163.072H174.606V161.479H177.303C177.856 161.479 178.181 161.804 178.181 162.292C178.181 162.731 177.856 163.072 177.303 163.072ZM188.373 169.831H190.079V166.338H189.218V159.984H187.512V166.338H183.905V159.984H182.198V167.833H188.373V169.831ZM195.105 168.028C196.356 168.028 197.51 167.638 198.29 166.89L197.51 165.769C196.957 166.322 196.047 166.63 195.284 166.63C193.805 166.63 192.911 165.655 192.781 164.469H198.842V164.063C198.842 161.593 197.331 159.789 194.975 159.789C192.651 159.789 190.994 161.626 190.994 163.901C190.994 166.387 192.749 168.028 195.105 168.028ZM197.185 163.267H192.765C192.846 162.308 193.513 161.187 194.975 161.187C196.519 161.187 197.152 162.341 197.185 163.267ZM209.317 167.833V159.984H207.075L204.93 165.054L202.753 159.984H200.526V167.833H202.233V162.373L204.589 167.833H205.271L207.611 162.373V167.833H209.317Z" fill="white"/>
<circle cx="22.5568" cy="354.68" r="13.3476" stroke="#57B68B" stroke-width="1.16066"/>
<circle cx="22.5568" cy="354.68" r="12.7673" stroke="#57B68B" stroke-width="2.32132"/>
<path d="M27.9371 351.198L20.8241 357.618L17.1035 354.007" stroke="#57B68B" stroke-width="2.32132" stroke-linecap="round"/>
<circle cx="426.268" cy="360.65" r="13.3476" stroke="#FFCF0E" stroke-width="1.16066"/>
<circle cx="426.268" cy="360.65" r="12.7673" stroke="#FFCF0E" stroke-width="2.32132"/>
<path d="M430.91 356.008L421.625 365.293" stroke="#FFCF0E" stroke-width="2.32132" stroke-linecap="round" stroke-linejoin="round"/>
<path d="M421.625 356.008L430.91 365.293" stroke="#FFCF0E" stroke-width="2.32132" stroke-linecap="round" stroke-linejoin="round"/>
<g filter="url(#filter1_d)">
<rect x="43.4492" y="500.923" width="355.163" height="74.2824" rx="11.6066" fill="#4C5866"/>
</g>
<g clip-path="url(#clip1)">
<path d="M99.3095 532.261H69.9516C69.4174 532.261 68.9844 531.828 68.9844 531.294V531.294C68.9844 528.623 71.1496 526.458 73.8205 526.458H98.6837C101.889 526.458 104.487 529.056 104.487 532.261V543.868C104.487 547.073 101.889 549.671 98.6837 549.671H74.7877C71.5826 549.671 68.9844 547.073 68.9844 543.868V537.869" stroke="#57B68B" stroke-width="2.32132"/>
<path d="M96.4414 535.552L99.8518 532.142L96.4414 528.731" stroke="#57B68B" stroke-width="2.32132"/>
<circle cx="72.0917" cy="530.727" r="9.49187" fill="#4C5866" stroke="white" stroke-width="1.16066"/>
<path d="M72.6824 529.775C75.0682 530.114 76.2611 531.138 76.2611 532.846C76.2611 533.685 75.9306 534.37 75.2697 534.902C74.6249 535.418 73.7624 535.708 72.6824 535.772V536.594H71.8361V535.748C70.8366 535.667 70.0225 535.361 69.3938 534.829C68.7651 534.297 68.3702 533.588 68.209 532.701H70.3852C70.5948 533.33 71.0784 533.693 71.8361 533.789V531.637C70.7399 531.476 69.9016 531.138 69.3213 530.622C68.7571 530.09 68.475 529.429 68.475 528.639C68.475 527.849 68.7813 527.204 69.3938 526.705C70.0225 526.189 70.8366 525.899 71.8361 525.834V524.988H72.6824V525.834C73.6818 525.899 74.4959 526.197 75.1246 526.729C75.7533 527.245 76.1402 527.93 76.2853 528.784H73.9639C73.7866 528.236 73.3594 527.914 72.6824 527.817V529.775ZM70.5545 528.712C70.5545 528.953 70.6512 529.147 70.8447 529.292C71.0381 529.437 71.3686 529.55 71.8361 529.63V527.793C71.4169 527.825 71.0945 527.922 70.8688 528.083C70.6593 528.244 70.5545 528.454 70.5545 528.712ZM72.6824 533.838C73.1337 533.806 73.4884 533.709 73.7463 533.548C74.0204 533.37 74.1574 533.153 74.1574 532.895C74.1574 532.605 74.0445 532.379 73.8189 532.218C73.6093 532.04 73.2305 531.895 72.6824 531.782V533.838Z" fill="white"/>
<circle cx="72.0917" cy="530.727" r="8.91154" stroke="white" stroke-width="2.32132"/>
</g>
<path d="M134.855 542.297L130.126 536.578L134.53 531.459H132.174L127.933 536.626V531.459H126.031V542.297H127.933V538.836L128.875 537.731L132.515 542.297H134.855ZM139.125 542.492C141.644 542.492 143.172 540.624 143.172 538.365C143.172 536.123 141.644 534.254 139.125 534.254C136.639 534.254 135.096 536.123 135.096 538.365C135.096 540.624 136.639 542.492 139.125 542.492ZM139.125 540.981C137.679 540.981 136.867 539.762 136.867 538.365C136.867 536.984 137.679 535.765 139.125 535.765C140.588 535.765 141.4 536.984 141.4 538.365C141.4 539.762 140.588 540.981 139.125 540.981ZM153.835 534.449V540.802H151.073V534.449H149.366V540.802H146.604V534.449H144.898V542.297H155.541V534.449H153.835ZM160.887 542.297V535.944H163.146V534.449H156.939V535.944H159.181V542.297H160.887ZM166.184 542.297L169.857 536.87V542.297H171.563V534.449H169.857L166.249 539.73V534.449H164.543V542.297H166.184ZM181.527 542.492C183.054 542.492 183.98 541.842 184.533 541.095L183.412 540.055C182.973 540.656 182.372 540.981 181.608 540.981C180.178 540.981 179.236 539.892 179.236 538.365C179.236 536.838 180.178 535.765 181.608 535.765C182.372 535.765 182.973 536.074 183.412 536.691L184.533 535.651C183.98 534.904 183.054 534.254 181.527 534.254C179.138 534.254 177.464 535.993 177.464 538.365C177.464 540.754 179.138 542.492 181.527 542.492ZM193.049 542.297V534.449H186.029V542.297H187.735V535.944H191.342V542.297H193.049ZM196.905 542.297L200.578 536.87V542.297H202.284V534.449H200.578L196.97 539.73V534.449H195.264V542.297H196.905ZM208.075 542.492C209.602 542.492 210.528 541.842 211.081 541.095L209.959 540.055C209.521 540.656 208.92 540.981 208.156 540.981C206.726 540.981 205.783 539.892 205.783 538.365C205.783 536.838 206.726 535.765 208.156 535.765C208.92 535.765 209.521 536.074 209.959 536.691L211.081 535.651C210.528 534.904 209.602 534.254 208.075 534.254C205.686 534.254 204.012 535.993 204.012 538.365C204.012 540.754 205.686 542.492 208.075 542.492ZM219.076 542.297V537.098C219.076 534.985 217.549 534.254 215.81 534.254C214.559 534.254 213.422 534.66 212.512 535.521L213.21 536.708C213.893 536.041 214.657 535.716 215.534 535.716C216.623 535.716 217.37 536.269 217.37 537.179V538.349C216.802 537.682 215.892 537.341 214.835 537.341C213.552 537.341 212.106 538.089 212.106 539.892C212.106 541.631 213.552 542.492 214.835 542.492C215.875 542.492 216.785 542.119 217.37 541.452V542.297H219.076ZM215.502 541.322C214.543 541.322 213.828 540.77 213.828 539.925C213.828 539.064 214.543 538.511 215.502 538.511C216.249 538.511 216.98 538.787 217.37 539.324V540.51C216.98 541.046 216.249 541.322 215.502 541.322ZM222.995 542.297V539.031H226.602V542.297H228.308V534.449H226.602V537.536H222.995V534.449H221.289V542.297H222.995ZM231.369 533.49C231.954 533.49 232.425 533.019 232.425 532.434C232.425 531.849 231.954 531.378 231.369 531.378C230.8 531.378 230.313 531.849 230.313 532.434C230.313 533.019 230.8 533.49 231.369 533.49ZM232.23 542.297V534.449H230.524V542.297H232.23ZM241.444 542.492C243.752 542.492 245.149 541.517 245.149 540.169C245.149 538.934 243.849 538.349 242.907 538.284C243.898 538.137 244.987 537.471 244.987 536.399C244.987 535.066 243.557 534.254 241.249 534.27C239.819 534.27 238.714 534.79 237.967 535.554L238.812 536.594C239.446 535.96 240.274 535.651 241.33 535.651C242.419 535.651 243.215 536.058 243.215 536.626C243.215 537.309 242.468 537.65 241.298 537.65H239.624V539.015H241.298C242.5 539.015 243.362 539.291 243.362 540.039C243.362 540.672 242.647 541.095 241.444 541.095C240.404 541.095 239.364 540.786 238.633 540.136L237.837 541.225C238.617 541.989 239.836 542.492 241.444 542.492ZM258.386 542.297L255.055 538.007L258.321 534.449H256.209L252.748 538.235V534.449H251.042V542.297H252.748V540.185L253.837 539.064L256.242 542.297H258.386ZM266.095 542.297V537.098C266.095 534.985 264.567 534.254 262.828 534.254C261.577 534.254 260.44 534.66 259.53 535.521L260.229 536.708C260.911 536.041 261.675 535.716 262.552 535.716C263.641 535.716 264.388 536.269 264.388 537.179V538.349C263.82 537.682 262.91 537.341 261.854 537.341C260.57 537.341 259.124 538.089 259.124 539.892C259.124 541.631 260.57 542.492 261.854 542.492C262.893 542.492 263.803 542.119 264.388 541.452V542.297H266.095ZM262.52 541.322C261.561 541.322 260.846 540.77 260.846 539.925C260.846 539.064 261.561 538.511 262.52 538.511C263.267 538.511 263.998 538.787 264.388 539.324V540.51C263.998 541.046 263.267 541.322 262.52 541.322ZM272.531 542.492C274.563 542.492 276.009 540.949 276.009 538.365C276.009 535.781 274.563 534.254 272.531 534.254C271.508 534.254 270.598 534.741 270.013 535.521V534.449H268.307V545.287H270.013V541.209C270.647 542.054 271.54 542.492 272.531 542.492ZM272.028 540.981C271.232 540.981 270.387 540.494 270.013 539.925V536.821C270.387 536.236 271.232 535.765 272.028 535.765C273.376 535.765 274.238 536.854 274.238 538.365C274.238 539.892 273.376 540.981 272.028 540.981ZM280.837 542.297V535.944H283.096V534.449H276.888V535.944H279.131V542.297H280.837ZM291.837 542.297L288.506 538.007L291.772 534.449H289.66L286.199 538.235V534.449H284.492V542.297H286.199V540.185L287.287 539.064L289.692 542.297H291.837ZM294.687 542.297L298.359 536.87V542.297H300.065V534.449H298.359L294.752 539.73V534.449H293.046V542.297H294.687ZM313.474 542.297V534.449H306.454V542.297H308.161V535.944H311.768V542.297H313.474ZM319.232 542.492C321.751 542.492 323.278 540.624 323.278 538.365C323.278 536.123 321.751 534.254 319.232 534.254C316.746 534.254 315.202 536.123 315.202 538.365C315.202 540.624 316.746 542.492 319.232 542.492ZM319.232 540.981C317.786 540.981 316.973 539.762 316.973 538.365C316.973 536.984 317.786 535.765 319.232 535.765C320.695 535.765 321.507 536.984 321.507 538.365C321.507 539.762 320.695 540.981 319.232 540.981ZM332.349 542.297L329.018 538.007L332.284 534.449H330.172L326.711 538.235V534.449H325.005V542.297H326.711V540.185L327.799 539.064L330.204 542.297H332.349ZM333.216 545.368C333.46 545.433 333.931 545.482 334.175 545.482C335.394 545.466 336.336 545.043 336.872 543.711L340.659 534.449H338.822L336.531 540.331L334.24 534.449H332.42L335.638 542.395L335.248 543.288C335.02 543.808 334.663 543.971 334.126 543.971C333.931 543.971 333.655 543.922 333.476 543.841L333.216 545.368ZM348.75 542.297V534.449H341.73V542.297H343.436V535.944H347.043V542.297H348.75ZM357.14 544.296H358.846V540.802H357.985V534.449H356.279V540.802H352.671V534.449H350.965V542.297H357.14V544.296ZM361.922 542.297L363.644 539.454H365.448V542.297H367.154V534.449H362.669C360.98 534.449 360.07 535.603 360.07 536.951C360.07 538.3 360.882 539.145 361.906 539.372L359.972 542.297H361.922ZM362.881 537.959C362.198 537.959 361.808 537.536 361.808 536.951C361.808 536.366 362.231 535.944 362.881 535.944H365.448V537.959H362.881Z" fill="white"/>
<g filter="url(#filter2_d)">
<rect x="43.4492" y="695.914" width="355.163" height="83.5677" rx="11.6066" fill="#4C5866"/>
</g>
<path d="M87.795 720.885L75.2829 725.851C73.9564 726.378 73.0855 727.66 73.0855 729.088V746.306C73.0855 747.733 73.9564 749.016 75.2829 749.542L87.795 754.509C88.6201 754.836 89.5391 754.836 90.3642 754.509L102.876 749.542C104.203 749.016 105.074 747.733 105.074 746.306V729.088C105.074 727.66 104.203 726.378 102.876 725.851L90.3642 720.885C89.5391 720.557 88.6201 720.557 87.795 720.885Z" stroke="#57B68B" stroke-width="2.32132"/>
<line y1="-1.16066" x2="23.1101" y2="-1.16066" transform="matrix(4.37114e-08 -1 -1 -4.37114e-08 88.2539 755.442)" stroke="#57B68B" stroke-width="2.32132"/>
<path d="M73.1172 726.554L88.8736 732.745" stroke="#57B68B" stroke-width="2.32132"/>
<path d="M104.965 726.472L89.3243 732.899" stroke="#57B68B" stroke-width="2.32132"/>
<path fill-rule="evenodd" clip-rule="evenodd" d="M97.5411 738.574C98.2249 738.574 98.7792 738.02 98.7792 737.336L98.7792 732.415C98.7792 730.519 97.6262 728.813 95.8667 728.107L81.2118 722.221L78.7357 723.15L93.5451 729.728C95.2222 730.473 96.3031 732.136 96.3031 733.971L96.3031 737.336C96.3031 738.02 96.8574 738.574 97.5411 738.574Z" fill="#57B68B"/>
<circle cx="72.0917" cy="729.198" r="9.49187" fill="#4C5866" stroke="white" stroke-width="1.16066"/>
<path d="M72.742 728.311C75.1596 728.654 76.3684 729.691 76.3684 731.423C76.3684 732.272 76.0336 732.966 75.3638 733.506C74.7104 734.028 73.8365 734.322 72.742 734.388V735.221H71.8844V734.363C70.8716 734.281 70.0467 733.971 69.4096 733.432C68.7726 732.893 68.3723 732.174 68.209 731.276H70.4142C70.6266 731.913 71.1167 732.28 71.8844 732.378V730.198C70.7736 730.034 69.9242 729.691 69.3361 729.169C68.7644 728.629 68.4785 727.96 68.4785 727.159C68.4785 726.359 68.7889 725.705 69.4096 725.199C70.0467 724.676 70.8716 724.382 71.8844 724.317V723.459H72.742V724.317C73.7548 724.382 74.5797 724.684 75.2168 725.224C75.8539 725.746 76.2459 726.441 76.3929 727.306H74.0407C73.861 726.751 73.4281 726.424 72.742 726.326V728.311ZM70.5858 727.233C70.5858 727.478 70.6838 727.674 70.8798 727.821C71.0758 727.968 71.4107 728.082 71.8844 728.164V726.302C71.4597 726.334 71.133 726.432 70.9043 726.596C70.6919 726.759 70.5858 726.971 70.5858 727.233ZM72.742 732.427C73.1994 732.395 73.5588 732.297 73.8201 732.133C74.0978 731.954 74.2367 731.733 74.2367 731.472C74.2367 731.178 74.1223 730.949 73.8936 730.786C73.6813 730.606 73.2974 730.459 72.742 730.345V732.427Z" fill="white"/>
<g filter="url(#filter3_d)">
<line x1="65.8483" y1="723.18" x2="79.4667" y2="734.322" stroke="white" stroke-width="2.32132"/>
</g>
<circle cx="72.0917" cy="729.198" r="8.91154" stroke="white" stroke-width="2.32132"/>
<path d="M135.29 731.805V720.967H125.849V731.805H127.75V722.64H133.389V731.805H135.29ZM141.085 732C143.604 732 145.131 730.131 145.131 727.872C145.131 725.63 143.604 723.761 141.085 723.761C138.599 723.761 137.055 725.63 137.055 727.872C137.055 730.131 138.599 732 141.085 732ZM141.085 730.489C139.639 730.489 138.827 729.27 138.827 727.872C138.827 726.491 139.639 725.273 141.085 725.273C142.548 725.273 143.36 726.491 143.36 727.872C143.36 729.27 142.548 730.489 141.085 730.489ZM154.202 731.805L150.871 727.515L154.137 723.956H152.025L148.564 727.742V723.956H146.858V731.805H148.564V729.692L149.653 728.571L152.057 731.805H154.202ZM155.07 734.876C155.313 734.941 155.784 734.99 156.028 734.99C157.247 734.973 158.189 734.551 158.726 733.218L162.512 723.956H160.676L158.384 729.839L156.093 723.956H154.273L157.491 731.902L157.101 732.796C156.873 733.316 156.516 733.478 155.979 733.478C155.784 733.478 155.508 733.43 155.329 733.348L155.07 734.876ZM170.603 731.805V723.956H163.583V731.805H165.289V725.451H168.896V731.805H170.603ZM178.993 733.803H180.699V730.31H179.838V723.956H178.132V730.31H174.525V723.956H172.818V731.805H178.993V733.803ZM189.154 732C191.672 732 193.2 730.131 193.2 727.872C193.2 725.63 191.672 723.761 189.154 723.761C186.976 723.761 185.53 725.191 185.189 727.044H183.808V723.956H182.101V731.805H183.808V728.539H185.173C185.449 730.489 186.911 732 189.154 732ZM189.154 730.489C187.707 730.489 186.895 729.27 186.895 727.872C186.895 726.491 187.707 725.273 189.154 725.273C190.616 725.273 191.429 726.491 191.429 727.872C191.429 729.27 190.616 730.489 189.154 730.489ZM206.116 731.805V723.956H199.097V731.805H200.803V725.451H204.41V731.805H206.116ZM211.874 732C214.393 732 215.92 730.131 215.92 727.872C215.92 725.63 214.393 723.761 211.874 723.761C209.388 723.761 207.844 725.63 207.844 727.872C207.844 730.131 209.388 732 211.874 732ZM211.874 730.489C210.428 730.489 209.616 729.27 209.616 727.872C209.616 726.491 210.428 725.273 211.874 725.273C213.337 725.273 214.149 726.491 214.149 727.872C214.149 729.27 213.337 730.489 211.874 730.489ZM222.456 731.805C223.984 731.805 224.829 730.895 224.829 729.676C224.829 728.75 224.195 727.954 223.35 727.759C224.065 727.547 224.666 726.914 224.666 725.971C224.666 724.85 223.838 723.956 222.343 723.956H217.647V731.805H222.456ZM222.099 730.31H219.353V728.539H222.099C222.733 728.539 223.074 728.961 223.074 729.432C223.074 729.985 222.7 730.31 222.099 730.31ZM222.05 727.044H219.353V725.451H222.05C222.603 725.451 222.928 725.776 222.928 726.264C222.928 726.703 222.603 727.044 222.05 727.044ZM230.569 732C231.82 732 232.974 731.61 233.754 730.862L232.974 729.741C232.422 730.294 231.512 730.602 230.748 730.602C229.269 730.602 228.376 729.627 228.246 728.441H234.307V728.035C234.307 725.565 232.795 723.761 230.439 723.761C228.116 723.761 226.458 725.598 226.458 727.872C226.458 730.359 228.213 732 230.569 732ZM232.649 727.239H228.229C228.311 726.28 228.977 725.159 230.439 725.159C231.983 725.159 232.617 726.313 232.649 727.239ZM240.215 732C242.247 732 243.693 730.456 243.693 727.872C243.693 725.289 242.247 723.761 240.215 723.761C239.192 723.761 238.282 724.249 237.697 725.029V723.956H235.991V734.795H237.697V730.716C238.331 731.561 239.224 732 240.215 732ZM239.712 730.489C238.915 730.489 238.071 730.001 237.697 729.432V726.329C238.071 725.744 238.915 725.273 239.712 725.273C241.06 725.273 241.922 726.361 241.922 727.872C241.922 729.4 241.06 730.489 239.712 730.489ZM248.521 731.805V725.451H250.779V723.956H244.572V725.451H246.815V731.805H248.521ZM258.676 731.805V726.605C258.676 724.493 257.149 723.761 255.41 723.761C254.159 723.761 253.021 724.168 252.111 725.029L252.81 726.215C253.493 725.549 254.256 725.224 255.134 725.224C256.222 725.224 256.97 725.776 256.97 726.686V727.856C256.401 727.19 255.491 726.849 254.435 726.849C253.151 726.849 251.705 727.596 251.705 729.4C251.705 731.139 253.151 732 254.435 732C255.475 732 256.385 731.626 256.97 730.96V731.805H258.676ZM255.101 730.83C254.143 730.83 253.428 730.277 253.428 729.432C253.428 728.571 254.143 728.019 255.101 728.019C255.849 728.019 256.58 728.295 256.97 728.831V730.017C256.58 730.554 255.849 730.83 255.101 730.83ZM267.94 732C270.459 732 271.986 730.131 271.986 727.872C271.986 725.63 270.459 723.761 267.94 723.761C265.763 723.761 264.317 725.191 263.976 727.044H262.594V723.956H260.888V731.805H262.594V728.539H263.959C264.236 730.489 265.698 732 267.94 732ZM267.94 730.489C266.494 730.489 265.682 729.27 265.682 727.872C265.682 726.491 266.494 725.273 267.94 725.273C269.403 725.273 270.215 726.491 270.215 727.872C270.215 729.27 269.403 730.489 267.94 730.489ZM276.846 731.805V725.451H279.105V723.956H272.897V725.451H275.14V731.805H276.846ZM280.502 723.956V731.805H284.986C286.676 731.805 287.586 730.651 287.586 729.302C287.586 727.954 286.725 726.8 284.986 726.8H282.208V723.956H280.502ZM284.775 728.295C285.458 728.295 285.848 728.717 285.848 729.302C285.848 729.887 285.458 730.31 284.775 730.31H282.208V728.295H284.775ZM292.852 732C294.379 732 295.305 731.35 295.858 730.602L294.737 729.562C294.298 730.164 293.697 730.489 292.933 730.489C291.503 730.489 290.56 729.4 290.56 727.872C290.56 726.345 291.503 725.273 292.933 725.273C293.697 725.273 294.298 725.581 294.737 726.199L295.858 725.159C295.305 724.411 294.379 723.761 292.852 723.761C290.463 723.761 288.789 725.5 288.789 727.872C288.789 730.261 290.463 732 292.852 732ZM299.027 731.805L300.75 728.961H302.554V731.805H304.26V723.956H299.775C298.085 723.956 297.175 725.11 297.175 726.459C297.175 727.807 297.988 728.652 299.011 728.88L297.078 731.805H299.027ZM299.986 727.466C299.304 727.466 298.914 727.044 298.914 726.459C298.914 725.874 299.336 725.451 299.986 725.451H302.554V727.466H299.986ZM317.98 731.805L314.649 727.515L317.915 723.956H315.803L312.342 727.742V723.956H310.636V731.805H312.342V729.692L313.431 728.571L315.835 731.805H317.98ZM322.652 732C325.17 732 326.698 730.131 326.698 727.872C326.698 725.63 325.17 723.761 322.652 723.761C320.166 723.761 318.622 725.63 318.622 727.872C318.622 730.131 320.166 732 322.652 732ZM322.652 730.489C321.206 730.489 320.393 729.27 320.393 727.872C320.393 726.491 321.206 725.273 322.652 725.273C324.114 725.273 324.927 726.491 324.927 727.872C324.927 729.27 324.114 730.489 322.652 730.489ZM337.361 723.956V730.31H334.599V723.956H332.893V730.31H330.13V723.956H328.424V731.805H339.067V723.956H337.361ZM344.414 731.805V725.451H346.672V723.956H340.465V725.451H342.708V731.805H344.414ZM349.71 731.805L353.383 726.378V731.805H355.089V723.956H353.383L349.775 729.237V723.956H348.069V731.805H349.71ZM128.628 753C130.935 753 132.332 752.025 132.332 750.676C132.332 749.441 131.033 748.856 130.09 748.791C131.081 748.645 132.17 747.979 132.17 746.906C132.17 745.574 130.74 744.761 128.433 744.778C127.003 744.778 125.898 745.298 125.15 746.061L125.995 747.101C126.629 746.468 127.458 746.159 128.514 746.159C129.603 746.159 130.399 746.565 130.399 747.134C130.399 747.816 129.651 748.157 128.481 748.157H126.808V749.522H128.481C129.684 749.522 130.545 749.799 130.545 750.546C130.545 751.18 129.83 751.602 128.628 751.602C127.588 751.602 126.548 751.294 125.817 750.644L125.02 751.732C125.8 752.496 127.019 753 128.628 753ZM140.552 752.805V747.605C140.552 745.493 139.024 744.761 137.285 744.761C136.034 744.761 134.897 745.168 133.987 746.029L134.686 747.215C135.368 746.549 136.132 746.224 137.009 746.224C138.098 746.224 138.845 746.776 138.845 747.686V748.856C138.277 748.19 137.367 747.849 136.31 747.849C135.027 747.849 133.581 748.596 133.581 750.4C133.581 752.139 135.027 753 136.31 753C137.35 753 138.26 752.626 138.845 751.96V752.805H140.552ZM136.977 751.83C136.018 751.83 135.303 751.277 135.303 750.432C135.303 749.571 136.018 749.019 136.977 749.019C137.724 749.019 138.455 749.295 138.845 749.831V751.017C138.455 751.554 137.724 751.83 136.977 751.83ZM151.747 752.805C153.274 752.805 154.119 751.895 154.119 750.676C154.119 749.75 153.485 748.954 152.64 748.759C153.355 748.547 153.957 747.914 153.957 746.971C153.957 745.85 153.128 744.956 151.633 744.956H146.937V752.805H151.747ZM151.389 751.31H148.643V749.539H151.389C152.023 749.539 152.364 749.961 152.364 750.432C152.364 750.985 151.991 751.31 151.389 751.31ZM151.341 748.044H148.643V746.451H151.341C151.893 746.451 152.218 746.776 152.218 747.264C152.218 747.703 151.893 748.044 151.341 748.044ZM157.877 752.805L161.549 747.378V752.805H163.256V744.956H161.549L157.942 750.237V744.956H156.236V752.805H157.877ZM167.177 752.805V749.539H170.785V752.805H172.491V744.956H170.785V748.044H167.177V744.956H165.471V752.805H167.177ZM176.38 752.805L178.103 749.961H179.907V752.805H181.613V744.956H177.128C175.438 744.956 174.528 746.11 174.528 747.459C174.528 748.807 175.34 749.652 176.364 749.88L174.431 752.805H176.38ZM177.339 748.466C176.657 748.466 176.267 748.044 176.267 747.459C176.267 746.874 176.689 746.451 177.339 746.451H179.907V748.466H177.339ZM186.951 752.805V746.451H189.21V744.956H183.003V746.451H185.245V752.805H186.951ZM197.952 752.805L194.62 748.515L197.887 744.956H195.774L192.313 748.742V744.956H190.607V752.805H192.313V750.692L193.402 749.571L195.807 752.805H197.952ZM202.623 753C205.142 753 206.669 751.131 206.669 748.872C206.669 746.63 205.142 744.761 202.623 744.761C200.137 744.761 198.593 746.63 198.593 748.872C198.593 751.131 200.137 753 202.623 753ZM202.623 751.489C201.177 751.489 200.364 750.27 200.364 748.872C200.364 747.491 201.177 746.273 202.623 746.273C204.085 746.273 204.898 747.491 204.898 748.872C204.898 750.27 204.085 751.489 202.623 751.489ZM217.186 752.805V744.956H214.944L212.799 750.026L210.622 744.956H208.395V752.805H210.102V747.345L212.458 752.805H213.14L215.48 747.345V752.805H217.186ZM228.375 752.805C229.903 752.805 230.748 751.895 230.748 750.676C230.748 749.75 230.114 748.954 229.269 748.759C229.984 748.547 230.585 747.914 230.585 746.971C230.585 745.85 229.757 744.956 228.262 744.956H223.566V752.805H228.375ZM228.018 751.31H225.272V749.539H228.018C228.652 749.539 228.993 749.961 228.993 750.432C228.993 750.985 228.619 751.31 228.018 751.31ZM227.969 748.044H225.272V746.451H227.969C228.522 746.451 228.847 746.776 228.847 747.264C228.847 747.703 228.522 748.044 227.969 748.044ZM239.364 752.805V747.605C239.364 745.493 237.837 744.761 236.098 744.761C234.847 744.761 233.709 745.168 232.8 746.029L233.498 747.215C234.181 746.549 234.944 746.224 235.822 746.224C236.911 746.224 237.658 746.776 237.658 747.686V748.856C237.089 748.19 236.179 747.849 235.123 747.849C233.839 747.849 232.393 748.596 232.393 750.4C232.393 752.139 233.839 753 235.123 753C236.163 753 237.073 752.626 237.658 751.96V752.805H239.364ZM235.789 751.83C234.831 751.83 234.116 751.277 234.116 750.432C234.116 749.571 234.831 749.019 235.789 749.019C236.537 749.019 237.268 749.295 237.658 749.831V751.017C237.268 751.554 236.537 751.83 235.789 751.83ZM245.801 753C247.832 753 249.278 751.456 249.278 748.872C249.278 746.289 247.832 744.761 245.801 744.761C244.777 744.761 243.867 745.249 243.282 746.029V744.956H241.576V755.795H243.282V751.716C243.916 752.561 244.81 753 245.801 753ZM245.297 751.489C244.501 751.489 243.656 751.001 243.282 750.432V747.329C243.656 746.744 244.501 746.273 245.297 746.273C246.646 746.273 247.507 747.361 247.507 748.872C247.507 750.4 246.646 751.489 245.297 751.489ZM254.107 752.805V746.451H256.365V744.956H250.158V746.451H252.4V752.805H254.107ZM261.304 753C263.823 753 265.35 751.131 265.35 748.872C265.35 746.63 263.823 744.761 261.304 744.761C258.818 744.761 257.275 746.63 257.275 748.872C257.275 751.131 258.818 753 261.304 753ZM261.304 751.489C259.858 751.489 259.046 750.27 259.046 748.872C259.046 747.491 259.858 746.273 261.304 746.273C262.767 746.273 263.579 747.491 263.579 748.872C263.579 750.27 262.767 751.489 261.304 751.489ZM270.652 753C272.179 753 273.105 752.35 273.658 751.602L272.537 750.562C272.098 751.164 271.497 751.489 270.733 751.489C269.303 751.489 268.361 750.4 268.361 748.872C268.361 747.345 269.303 746.273 270.733 746.273C271.497 746.273 272.098 746.581 272.537 747.199L273.658 746.159C273.105 745.411 272.179 744.761 270.652 744.761C268.263 744.761 266.589 746.5 266.589 748.872C266.589 751.261 268.263 753 270.652 753ZM278.29 752.805V746.451H280.549V744.956H274.341V746.451H276.584V752.805H278.29ZM282.791 743.998C283.376 743.998 283.847 743.526 283.847 742.941C283.847 742.356 283.376 741.885 282.791 741.885C282.222 741.885 281.734 742.356 281.734 742.941C281.734 743.526 282.222 743.998 282.791 743.998ZM283.652 752.805V744.956H281.946V752.805H283.652ZM289.226 754.803H290.932V752.805H296.213V754.803H297.919V751.31H297.058V744.956H290.997L290.526 748.775C290.266 750.839 289.892 751.229 289.226 751.391V754.803ZM292.508 746.451H295.352V751.31H291.192C291.745 750.822 292.118 750.059 292.232 748.97L292.508 746.451ZM302.864 753C305.382 753 306.91 751.131 306.91 748.872C306.91 746.63 305.382 744.761 302.864 744.761C300.378 744.761 298.834 746.63 298.834 748.872C298.834 751.131 300.378 753 302.864 753ZM302.864 751.489C301.418 751.489 300.605 750.27 300.605 748.872C300.605 747.491 301.418 746.273 302.864 746.273C304.326 746.273 305.139 747.491 305.139 748.872C305.139 750.27 304.326 751.489 302.864 751.489ZM312.211 753C313.739 753 314.665 752.35 315.217 751.602L314.096 750.562C313.657 751.164 313.056 751.489 312.292 751.489C310.862 751.489 309.92 750.4 309.92 748.872C309.92 747.345 310.862 746.273 312.292 746.273C313.056 746.273 313.657 746.581 314.096 747.199L315.217 746.159C314.665 745.411 313.739 744.761 312.211 744.761C309.822 744.761 308.149 746.5 308.149 748.872C308.149 751.261 309.822 753 312.211 753ZM319.849 752.805V746.451H322.108V744.956H315.901V746.451H318.143V752.805H319.849ZM330.005 752.805V747.605C330.005 745.493 328.477 744.761 326.739 744.761C325.487 744.761 324.35 745.168 323.44 746.029L324.139 747.215C324.821 746.549 325.585 746.224 326.462 746.224C327.551 746.224 328.299 746.776 328.299 747.686V748.856C327.73 748.19 326.82 747.849 325.764 747.849C324.48 747.849 323.034 748.596 323.034 750.4C323.034 752.139 324.48 753 325.764 753C326.804 753 327.714 752.626 328.299 751.96V752.805H330.005ZM326.43 751.83C325.471 751.83 324.756 751.277 324.756 750.432C324.756 749.571 325.471 749.019 326.43 749.019C327.177 749.019 327.909 749.295 328.299 749.831V751.017C327.909 751.554 327.177 751.83 326.43 751.83ZM337.027 752.805C338.554 752.805 339.399 751.895 339.399 750.676C339.399 749.75 338.765 748.954 337.92 748.759C338.635 748.547 339.236 747.914 339.236 746.971C339.236 745.85 338.408 744.956 336.913 744.956H332.217V752.805H337.027ZM336.669 751.31H333.923V749.539H336.669C337.303 749.539 337.644 749.961 337.644 750.432C337.644 750.985 337.27 751.31 336.669 751.31ZM336.62 748.044H333.923V746.451H336.62C337.173 746.451 337.498 746.776 337.498 747.264C337.498 747.703 337.173 748.044 336.62 748.044ZM348.86 752.805L345.529 748.515L348.795 744.956H346.683L343.222 748.742V744.956H341.516V752.805H343.222V750.692L344.311 749.571L346.715 752.805H348.86ZM351.71 752.805L355.382 747.378V752.805H357.088V744.956H355.382L351.775 750.237V744.956H350.069V752.805H351.71Z" fill="white"/>
<path d="M227.414 40.1405L221.03 46.5242L214.647 40.1405" stroke="#94D1B6" stroke-width="1.74099" stroke-linecap="round" stroke-linejoin="round"/>
<path d="M227.414 77.2816L221.03 83.6653L214.647 77.2816" stroke="#57B68B" stroke-width="1.74099" stroke-linecap="round" stroke-linejoin="round"/>
<path d="M44.1625 348.869C44.7993 348.795 45.2559 348.22 45.1825 347.583C45.109 346.946 44.5332 346.489 43.8964 346.563L44.1625 348.869ZM38.238 443.308C38.7892 442.981 38.9709 442.269 38.6437 441.718L33.3123 432.735C32.9852 432.183 32.2731 432.002 31.7218 432.329C31.1706 432.656 30.9889 433.368 31.3161 433.919L36.0551 441.904L28.0702 446.643C27.519 446.97 27.3373 447.682 27.6645 448.234C27.9916 448.785 28.7037 448.967 29.255 448.639L38.238 443.308ZM37.9325 441.185C37.1549 440.987 36.3919 440.777 35.6435 440.556L34.9868 442.783C35.7631 443.012 36.5537 443.229 37.3587 443.435L37.9325 441.185ZM31.2329 439.067C29.7467 438.498 28.3261 437.881 26.9698 437.22L25.9529 439.307C27.3717 439.998 28.8545 440.642 30.4026 441.235L31.2329 439.067ZM22.9017 434.993C21.5544 434.167 20.2827 433.292 19.0847 432.373L17.6717 434.215C18.9348 435.184 20.2733 436.104 21.6886 436.972L22.9017 434.993ZM15.5791 429.362C14.452 428.279 13.4072 427.149 12.4426 425.978L10.6512 427.455C11.6728 428.694 12.7785 429.89 13.9703 431.036L15.5791 429.362ZM9.72434 422.254C8.8862 420.951 8.13242 419.609 7.46065 418.235L5.3752 419.254C6.08607 420.709 6.88416 422.129 7.77199 423.51L9.72434 422.254ZM5.67217 413.974C5.15637 412.52 4.7225 411.038 4.36828 409.536L2.10894 410.069C2.48209 411.651 2.93964 413.214 3.48436 414.75L5.67217 413.974ZM3.54273 404.979C3.34622 403.449 3.2265 401.905 3.1813 400.354L0.860958 400.422C0.908327 402.047 1.03386 403.667 1.24031 405.274L3.54273 404.979ZM3.26561 395.709C3.3655 394.167 3.5362 392.625 3.77544 391.089L1.48177 390.732C1.23201 392.335 1.0536 393.946 0.949136 395.559L3.26561 395.709ZM4.69149 386.528C5.06205 385.023 5.49781 383.531 5.99645 382.059L3.79783 381.315C3.27818 382.849 2.82393 384.404 2.43751 385.973L4.69149 386.528ZM7.6751 377.716C8.29543 376.293 8.97593 374.896 9.71422 373.531L7.67255 372.427C6.90282 373.85 6.19357 375.306 5.54713 376.789L7.6751 377.716ZM12.1023 369.538C12.9565 368.241 13.8663 366.983 14.8292 365.77L13.0115 364.327C12.0051 365.594 11.055 366.907 10.1636 368.261L12.1023 369.538ZM17.8828 362.268C18.9546 361.149 20.0775 360.082 21.2489 359.074L19.7347 357.314C18.5054 358.372 17.3284 359.491 16.206 360.663L17.8828 362.268ZM24.9093 356.23C26.1743 355.347 27.4853 354.529 28.8399 353.782L27.7192 351.749C26.2914 352.536 24.911 353.398 23.5805 354.327L24.9093 356.23ZM33.0047 351.773C34.4174 351.185 35.8703 350.671 37.3612 350.238L36.7134 348.009C35.1383 348.466 33.6039 349.009 32.1124 349.63L33.0047 351.773ZM41.8615 349.2C42.62 349.069 43.387 348.958 44.1625 348.869L43.8964 346.563C43.078 346.657 42.2681 346.774 41.4671 346.912L41.8615 349.2Z" fill="url(#paint1_linear)"/>
<path d="M44.1625 348.869C44.7993 348.795 45.2559 348.22 45.1825 347.583C45.109 346.946 44.5332 346.489 43.8964 346.563L44.1625 348.869ZM38.238 443.308C38.7892 442.981 38.9709 442.269 38.6437 441.718L33.3123 432.735C32.9852 432.183 32.2731 432.002 31.7218 432.329C31.1706 432.656 30.9889 433.368 31.3161 433.919L36.0551 441.904L28.0702 446.643C27.519 446.97 27.3373 447.682 27.6645 448.234C27.9916 448.785 28.7037 448.967 29.255 448.639L38.238 443.308ZM43.8964 346.563C20.6141 349.249 4.48891 369.799 1.38678 391.366C-0.168679 402.18 1.52755 413.343 7.29498 422.75C13.0727 432.174 22.879 439.741 37.3587 443.435L37.9325 441.185C23.9759 437.625 14.7039 430.393 9.27398 421.537C3.83378 412.663 2.19314 402.064 3.68446 391.696C6.67587 370.899 22.1789 351.406 44.1625 348.869L43.8964 346.563Z" fill="url(#paint2_linear)"/>
<path d="M398.344 347.685C397.721 347.537 397.335 346.912 397.483 346.288C397.63 345.664 398.256 345.278 398.879 345.426L398.344 347.685ZM404.714 628.562C404.092 628.406 403.714 627.776 403.87 627.154L406.403 617.02C406.559 616.398 407.189 616.02 407.811 616.175C408.433 616.331 408.811 616.961 408.655 617.583L406.403 626.591L415.411 628.843C416.033 628.998 416.411 629.629 416.256 630.251C416.1 630.872 415.47 631.25 414.848 631.095L404.714 628.562ZM404.399 626.44C405.052 626.049 405.699 625.65 406.342 625.245L407.58 627.208C406.923 627.623 406.261 628.03 405.593 628.431L404.399 626.44ZM410.136 622.733C411.382 621.869 412.607 620.978 413.811 620.062L415.216 621.91C413.985 622.846 412.733 623.756 411.46 624.64L410.136 622.733ZM417.375 617.232C418.542 616.263 419.689 615.27 420.816 614.253L422.371 615.976C421.221 617.015 420.049 618.029 418.857 619.018L417.375 617.232ZM424.129 611.138C425.213 610.077 426.277 608.993 427.322 607.886L429.01 609.48C427.945 610.608 426.859 611.714 425.753 612.797L424.129 611.138ZM430.38 604.519C431.378 603.377 432.356 602.214 433.315 601.031L435.118 602.493C434.142 603.698 433.145 604.883 432.128 606.046L430.38 604.519ZM436.121 597.439C437.032 596.229 437.924 595 438.797 593.753L440.698 595.084C439.81 596.353 438.903 597.604 437.976 598.836L436.121 597.439ZM441.354 589.965C442.179 588.697 442.986 587.413 443.775 586.112L445.76 587.316C444.959 588.637 444.139 589.943 443.3 591.231L441.354 589.965ZM446.084 582.163C446.828 580.845 447.554 579.511 448.262 578.163L450.317 579.243C449.599 580.611 448.862 581.965 448.106 583.304L446.084 582.163ZM450.328 574.088C450.995 572.723 451.644 571.345 452.276 569.955L454.389 570.916C453.749 572.325 453.09 573.723 452.413 575.107L450.328 574.088ZM454.107 565.776C454.7 564.372 455.276 562.957 455.834 561.531L457.996 562.377C457.43 563.822 456.847 565.256 456.246 566.679L454.107 565.776ZM457.441 557.267C457.96 555.835 458.462 554.394 458.948 552.943L461.149 553.68C460.658 555.149 460.149 556.608 459.623 558.058L457.441 557.267ZM460.346 548.594C460.795 547.141 461.227 545.679 461.642 544.21L463.876 544.842C463.455 546.329 463.018 547.807 462.565 549.278L460.346 548.594ZM462.84 539.788C463.22 538.317 463.585 536.839 463.934 535.355L466.193 535.886C465.841 537.387 465.472 538.881 465.087 540.369L462.84 539.788ZM464.934 530.884C465.25 529.395 465.55 527.901 465.835 526.402L468.116 526.836C467.828 528.351 467.524 529.861 467.204 531.366L464.934 530.884ZM466.643 521.898C466.897 520.394 467.135 518.886 467.358 517.374L469.655 517.714C469.429 519.241 469.189 520.764 468.932 522.284L466.643 521.898ZM467.981 512.843C468.173 511.33 468.35 509.813 468.513 508.295L470.821 508.542C470.657 510.075 470.478 511.607 470.284 513.136L467.981 512.843ZM468.954 503.739C469.086 502.219 469.203 500.698 469.306 499.176L471.622 499.332C471.518 500.869 471.4 502.405 471.267 503.94L468.954 503.739ZM469.569 494.605C469.642 493.08 469.7 491.554 469.743 490.029L472.064 490.095C472.02 491.635 471.961 493.176 471.887 494.716L469.569 494.605ZM469.829 485.456C469.843 483.927 469.843 482.399 469.827 480.873L472.148 480.849C472.164 482.39 472.165 483.933 472.151 485.477L469.829 485.456ZM469.737 476.297C469.692 474.771 469.632 473.246 469.558 471.725L471.876 471.612C471.951 473.148 472.012 474.687 472.057 476.229L469.737 476.297ZM469.289 467.15C469.185 465.628 469.066 464.111 468.932 462.597L471.245 462.393C471.38 463.922 471.5 465.454 471.605 466.991L469.289 467.15ZM468.483 458.03C468.318 456.511 468.138 454.997 467.944 453.49L470.246 453.193C470.443 454.716 470.624 456.245 470.791 457.78L468.483 458.03ZM467.312 448.957C467.084 447.442 466.842 445.934 466.584 444.433L468.872 444.041C469.132 445.557 469.378 447.082 469.607 448.613L467.312 448.957ZM465.766 439.95C465.473 438.441 465.165 436.94 464.842 435.449L467.11 434.957C467.437 436.465 467.749 437.983 468.044 439.509L465.766 439.95ZM463.826 431.004C463.467 429.511 463.092 428.029 462.701 426.558L464.945 425.963C465.34 427.451 465.719 428.951 466.083 430.461L463.826 431.004ZM461.476 422.156C461.048 420.688 460.604 419.231 460.144 417.788L462.355 417.083C462.821 418.545 463.271 420.02 463.705 421.507L461.476 422.156ZM458.696 413.443C458.195 412.003 457.678 410.578 457.144 409.169L459.315 408.347C459.856 409.776 460.381 411.221 460.888 412.68L458.696 413.443ZM455.458 404.898C454.879 403.491 454.283 402.101 453.671 400.73L455.79 399.783C456.412 401.176 457.017 402.587 457.605 404.014L455.458 404.898ZM451.732 396.565C451.067 395.194 450.384 393.844 449.684 392.514L451.738 391.433C452.45 392.785 453.144 394.158 453.82 395.552L451.732 396.565ZM447.479 388.499C446.722 387.176 445.946 385.876 445.152 384.601L447.123 383.374C447.932 384.674 448.723 385.998 449.494 387.346L447.479 388.499ZM442.661 380.771C441.805 379.51 440.929 378.277 440.035 377.072L441.899 375.688C442.813 376.92 443.707 378.179 444.581 379.466L442.661 380.771ZM437.235 373.472C436.274 372.292 435.293 371.144 434.292 370.03L436.019 368.479C437.046 369.622 438.051 370.798 439.035 372.005L437.235 373.472ZM431.165 366.719C430.095 365.644 429.005 364.605 427.894 363.603L429.448 361.879C430.591 362.909 431.712 363.978 432.811 365.082L431.165 366.719ZM424.431 360.657C423.251 359.712 422.05 358.807 420.828 357.945L422.167 356.048C423.428 356.938 424.667 357.871 425.882 358.846L424.431 360.657ZM417.039 355.449C415.753 354.661 414.445 353.918 413.116 353.222L414.193 351.166C415.569 351.887 416.923 352.655 418.252 353.47L417.039 355.449ZM409.043 351.265C407.666 350.663 406.268 350.108 404.848 349.604L405.625 347.417C407.098 347.94 408.547 348.514 409.974 349.139L409.043 351.265ZM400.544 348.248C399.816 348.048 399.083 347.86 398.344 347.685L398.879 345.426C399.646 345.607 400.406 345.802 401.161 346.01L400.544 348.248Z" fill="url(#paint3_linear)"/>
<path d="M398.344 347.685C397.721 347.537 397.335 346.912 397.483 346.288C397.63 345.664 398.256 345.278 398.879 345.426L398.344 347.685ZM404.714 628.562C404.092 628.406 403.714 627.776 403.87 627.154L406.403 617.02C406.559 616.398 407.189 616.02 407.811 616.175C408.433 616.331 408.811 616.961 408.655 617.583L406.403 626.591L415.411 628.843C416.033 628.998 416.411 629.629 416.256 630.251C416.1 630.872 415.47 631.25 414.848 631.095L404.714 628.562ZM398.879 345.426C421.361 350.75 439 367.624 451.312 390.63C463.625 413.639 470.675 442.889 471.95 473.236C474.497 533.853 454 599.387 405.593 628.431L404.399 626.44C451.746 598.032 472.162 533.571 469.631 473.334C468.367 443.255 461.38 414.362 449.265 391.725C437.149 369.084 419.968 352.806 398.344 347.685L398.879 345.426Z" fill="url(#paint4_linear)"/>
<defs>
<filter id="filter0_d" x="20.236" y="97.0129" width="401.589" height="129.994" filterUnits="userSpaceOnUse" color-interpolation-filters="sRGB">
<feFlood flood-opacity="0" result="BackgroundImageFix"/>
<feColorMatrix in="SourceAlpha" type="matrix" values="0 0 0 0 0 0 0 0 0 0 0 0 0 0 0 0 0 0 127 0"/>
<feOffset dy="9.2853"/>
<feGaussianBlur stdDeviation="11.6066"/>
<feColorMatrix type="matrix" values="0 0 0 0 0.658824 0 0 0 0 0.682353 0 0 0 0 0.741176 0 0 0 0.5 0"/>
<feBlend mode="normal" in2="BackgroundImageFix" result="effect1_dropShadow"/>
<feBlend mode="normal" in="SourceGraphic" in2="effect1_dropShadow" result="shape"/>
</filter>
<filter id="filter1_d" x="20.236" y="486.995" width="401.589" height="120.709" filterUnits="userSpaceOnUse" color-interpolation-filters="sRGB">
<feFlood flood-opacity="0" result="BackgroundImageFix"/>
<feColorMatrix in="SourceAlpha" type="matrix" values="0 0 0 0 0 0 0 0 0 0 0 0 0 0 0 0 0 0 127 0"/>
<feOffset dy="9.2853"/>
<feGaussianBlur stdDeviation="11.6066"/>
<feColorMatrix type="matrix" values="0 0 0 0 0.658824 0 0 0 0 0.682353 0 0 0 0 0.741176 0 0 0 0.5 0"/>
<feBlend mode="normal" in2="BackgroundImageFix" result="effect1_dropShadow"/>
<feBlend mode="normal" in="SourceGraphic" in2="effect1_dropShadow" result="shape"/>
</filter>
<filter id="filter2_d" x="20.236" y="681.987" width="401.589" height="129.994" filterUnits="userSpaceOnUse" color-interpolation-filters="sRGB">
<feFlood flood-opacity="0" result="BackgroundImageFix"/>
<feColorMatrix in="SourceAlpha" type="matrix" values="0 0 0 0 0 0 0 0 0 0 0 0 0 0 0 0 0 0 127 0"/>
<feOffset dy="9.2853"/>
<feGaussianBlur stdDeviation="11.6066"/>
<feColorMatrix type="matrix" values="0 0 0 0 0.658824 0 0 0 0 0.682353 0 0 0 0 0.741176 0 0 0 0.5 0"/>
<feBlend mode="normal" in2="BackgroundImageFix" result="effect1_dropShadow"/>
<feBlend mode="normal" in="SourceGraphic" in2="effect1_dropShadow" result="shape"/>
</filter>
<filter id="filter3_d" x="65.1133" y="722.282" width="15.0884" height="15.2603" filterUnits="userSpaceOnUse" color-interpolation-filters="sRGB">
<feFlood flood-opacity="0" result="BackgroundImageFix"/>
<feColorMatrix in="SourceAlpha" type="matrix" values="0 0 0 0 0 0 0 0 0 0 0 0 0 0 0 0 0 0 127 0"/>
<feOffset dy="2.32132"/>
<feColorMatrix type="matrix" values="0 0 0 0 0.298039 0 0 0 0 0.345098 0 0 0 0 0.4 0 0 0 1 0"/>
<feBlend mode="normal" in2="BackgroundImageFix" result="effect1_dropShadow"/>
<feBlend mode="normal" in="SourceGraphic" in2="effect1_dropShadow" result="shape"/>
</filter>
<linearGradient id="paint0_linear" x1="221.065" y1="0.139923" x2="221.065" y2="822.456" gradientUnits="userSpaceOnUse">
<stop stop-color="white"/>
<stop offset="0.0833333" stop-color="#F1F9F5"/>
<stop offset="0.510417" stop-color="#E6F4EE"/>
<stop offset="0.958333" stop-color="#F4FAF7"/>
<stop offset="1" stop-color="white"/>
</linearGradient>
<linearGradient id="paint1_linear" x1="24.9315" y1="347.716" x2="24.9315" y2="442.31" gradientUnits="userSpaceOnUse">
<stop stop-color="#57B68B" stop-opacity="0"/>
<stop offset="1" stop-color="#57B68B"/>
</linearGradient>
<linearGradient id="paint2_linear" x1="24.9315" y1="373.251" x2="24.9315" y2="442.31" gradientUnits="userSpaceOnUse">
<stop stop-color="#57B68B" stop-opacity="0"/>
<stop offset="1" stop-color="#57B68B"/>
</linearGradient>
<linearGradient id="paint3_linear" x1="417.71" y1="346.555" x2="417.71" y2="627.436" gradientUnits="userSpaceOnUse">
<stop stop-color="#FFCF0E" stop-opacity="0"/>
<stop offset="1" stop-color="#FFCF0E"/>
</linearGradient>
<linearGradient id="paint4_linear" x1="414.28" y1="410.972" x2="417.71" y2="627.436" gradientUnits="userSpaceOnUse">
<stop stop-color="#FFCF0E" stop-opacity="0"/>
<stop offset="1" stop-color="#FFCF0E"/>
</linearGradient>
<clipPath id="clip0">
<rect width="44.1052" height="37.1412" fill="white" transform="translate(62.0195 134.154)"/>
</clipPath>
<clipPath id="clip1">
<rect width="44.1052" height="37.1412" fill="white" transform="translate(62.0195 519.494)"/>
</clipPath>
</defs>
</svg>
