<svg width="331" height="106" viewBox="0 0 331 106" fill="none" xmlns="http://www.w3.org/2000/svg">
<g clip-path="url(#clip0)">
<rect y="59" width="331" height="46" rx="23" fill="#F5F6F8" stroke="#EEF0F2"/>
<rect y="1" width="331" height="46" rx="23" fill="#F5F6F8" stroke="#EEF0F2"/>
<path d="M62.2307 21.6996C64.1425 21.6996 65.0984 22.7505 65.0984 24.8525V29.8591H63.815V24.9159C63.815 24.1765 63.6671 23.6352 63.3714 23.2919C63.0756 22.9486 62.6109 22.777 61.9772 22.777C61.2378 22.777 60.6463 23.0041 60.2027 23.4582C59.759 23.9124 59.5372 24.525 59.5372 25.2961V29.8591H58.2539V18.1982H59.5372V23.1889C59.7907 22.703 60.1525 22.3333 60.6225 22.0798C61.0926 21.8263 61.6286 21.6996 62.2307 21.6996ZM69.9125 22.9037V27.2607C69.9125 27.8522 70.034 28.2668 70.277 28.5044C70.5199 28.7421 70.8632 28.8609 71.3068 28.8609C71.6025 28.8609 71.8877 28.8134 72.1623 28.7183V29.8115C71.8349 29.9172 71.4652 29.97 71.0533 29.97C70.2928 29.97 69.6987 29.7561 69.2709 29.3283C68.8431 28.9005 68.6292 28.2694 68.6292 27.435V22.9037H67.0765V21.8897H68.6292V19.8459L69.9125 19.3864V21.8897H72.194V22.9037H69.9125ZM76.1844 22.9037V27.2607C76.1844 27.8522 76.3058 28.2668 76.5488 28.5044C76.7917 28.7421 77.135 28.8609 77.5786 28.8609C77.8743 28.8609 78.1595 28.8134 78.4342 28.7183V29.8115C78.1067 29.9172 77.737 29.97 77.3251 29.97C76.5646 29.97 75.9705 29.7561 75.5427 29.3283C75.1149 28.9005 74.901 28.2694 74.901 27.435V22.9037H73.3484V21.8897H74.901V19.8459L76.1844 19.3864V21.8897H78.4658V22.9037H76.1844ZM84.6743 21.6996C85.3714 21.6996 85.9893 21.8739 86.528 22.2224C87.0667 22.571 87.4839 23.0595 87.7796 23.688C88.0754 24.3164 88.2232 25.0426 88.2232 25.8665C88.2232 26.6903 88.0754 27.4112 87.7796 28.0291C87.4839 28.647 87.0693 29.125 86.5359 29.463C86.0025 29.801 85.382 29.97 84.6743 29.97C84.0511 29.97 83.5071 29.8327 83.0424 29.558C82.5776 29.2834 82.2238 28.8926 81.9809 28.3856V33.2813H80.6975V24.1237C80.6975 23.2998 80.6553 22.5552 80.5708 21.8897H81.7907L81.9175 23.4265C82.1393 22.8773 82.4905 22.4522 82.9711 22.1511C83.4517 21.8501 84.0194 21.6996 84.6743 21.6996ZM84.4366 28.9084C85.2182 28.9084 85.8229 28.6444 86.2507 28.1163C86.6785 27.5881 86.8924 26.8382 86.8924 25.8665C86.8924 24.8947 86.6759 24.1369 86.2428 23.5929C85.8097 23.0489 85.2077 22.777 84.4366 22.777C83.6444 22.777 83.0371 23.041 82.6146 23.5691C82.1921 24.0973 81.9809 24.8525 81.9809 25.8348C81.9809 26.8171 82.1921 27.5749 82.6146 28.1083C83.0371 28.6417 83.6444 28.9084 84.4366 28.9084ZM93.5761 29.97C92.2347 29.97 91.1732 29.6267 90.3916 28.9401L90.8193 27.9895C91.2524 28.3275 91.6907 28.5704 92.1344 28.7183C92.578 28.8662 93.0744 28.9401 93.6237 28.9401C94.2257 28.9401 94.6825 28.8371 94.9941 28.6312C95.3057 28.4252 95.4615 28.1268 95.4615 27.736C95.4615 27.4191 95.3559 27.1656 95.1446 26.9755C94.9334 26.7854 94.5848 26.6375 94.099 26.5319L92.7523 26.215C92.0868 26.0672 91.5719 25.8031 91.2075 25.4228C90.8431 25.0426 90.6609 24.5884 90.6609 24.0603C90.6609 23.3632 90.9408 22.7954 91.5006 22.3571C92.0604 21.9188 92.7998 21.6996 93.7187 21.6996C94.2785 21.6996 94.8066 21.7894 95.3031 21.9689C95.7995 22.1485 96.2167 22.4073 96.5547 22.7453L96.127 23.68C95.377 23.0569 94.5743 22.7453 93.7187 22.7453C93.1483 22.7453 92.7074 22.8535 92.3958 23.0701C92.0842 23.2866 91.9284 23.5903 91.9284 23.9811C91.9284 24.3085 92.0261 24.5673 92.2215 24.7574C92.4169 24.9475 92.7311 25.0954 93.1642 25.201L94.5109 25.5338C95.2503 25.7028 95.7995 25.9642 96.1586 26.318C96.5178 26.6719 96.6973 27.134 96.6973 27.7043C96.6973 28.3909 96.4174 28.9401 95.8576 29.3521C95.2978 29.764 94.5373 29.97 93.5761 29.97ZM99.1984 22.064H100.83V23.7117H99.1984V22.064ZM99.1984 28.2272H100.83V29.8591H99.1984V28.2272ZM104.25 30.7305H103.078L107.15 17.9922H108.338L104.25 30.7305ZM109.445 30.7305H108.272L112.344 17.9922H113.532L109.445 30.7305Z" fill="#57B68B"/>
<path d="M129.36 21.8888H130.627L127.68 29.8582H126.445L124.163 23.6316L121.898 29.8582H120.662L117.715 21.8888H119.062L121.311 28.3213L123.64 21.8888H124.765L127.063 28.3372L129.36 21.8888ZM143.128 21.8888H144.396L141.449 29.8582H140.213L137.931 23.6316L135.666 29.8582H134.43L131.483 21.8888H132.83L135.079 28.3213L137.408 21.8888H138.533L140.831 28.3372L143.128 21.8888ZM156.896 21.8888H158.164L155.217 29.8582H153.981L151.699 23.6316L149.434 29.8582H148.198L145.251 21.8888H146.598L148.848 28.3213L151.177 21.8888H152.301L154.599 28.3372L156.896 21.8888ZM159.605 28.2263H161.237V29.8582H159.605V28.2263ZM174.324 21.8888H175.592L172.645 29.8582H171.409L169.127 23.6316L166.862 29.8582H165.626L162.679 21.8888H164.026L166.276 28.3213L168.605 21.8888H169.729L172.027 28.3372L174.324 21.8888ZM183.925 25.8339H178.079C178.09 26.8479 178.325 27.6137 178.784 28.1312C179.244 28.6488 179.912 28.9076 180.788 28.9076C181.718 28.9076 182.573 28.596 183.355 27.9728L183.783 28.9076C183.434 29.235 182.988 29.4938 182.444 29.6839C181.9 29.874 181.343 29.9691 180.772 29.9691C179.526 29.9691 178.549 29.602 177.841 28.8679C177.134 28.1339 176.78 27.1278 176.78 25.8497C176.78 25.0364 176.938 24.3155 177.255 23.6871C177.572 23.0586 178.016 22.5701 178.586 22.2215C179.156 21.873 179.806 21.6987 180.535 21.6987C181.591 21.6987 182.42 22.0446 183.022 22.7365C183.624 23.4283 183.925 24.3816 183.925 25.5962V25.8339ZM180.551 22.6969C179.885 22.6969 179.344 22.8975 178.927 23.2989C178.509 23.7003 178.243 24.2654 178.127 24.9942H182.769C182.705 24.2442 182.486 23.6739 182.111 23.2831C181.736 22.8923 181.216 22.6969 180.551 22.6969ZM189.851 21.6987C190.548 21.6987 191.166 21.8677 191.705 22.2057C192.243 22.5437 192.66 23.0216 192.956 23.6395C193.252 24.2575 193.4 24.9783 193.4 25.8022C193.4 26.6261 193.252 27.3522 192.956 27.9807C192.66 28.6092 192.243 29.0977 191.705 29.4462C191.166 29.7948 190.548 29.9691 189.851 29.9691C189.228 29.9691 188.684 29.8318 188.219 29.5571C187.754 29.2825 187.4 28.8917 187.157 28.3847V29.8582H185.874V18.1973H187.157V23.2989C187.39 22.7814 187.741 22.3853 188.211 22.1106C188.681 21.836 189.228 21.6987 189.851 21.6987ZM189.613 28.9076C190.384 28.9076 190.986 28.6356 191.419 28.0916C191.852 27.5476 192.069 26.7845 192.069 25.8022C192.069 24.841 191.855 24.0964 191.427 23.5683C191 23.0401 190.395 22.7761 189.613 22.7761C188.821 22.7761 188.214 23.0401 187.791 23.5683C187.369 24.0964 187.157 24.8516 187.157 25.8339C187.157 26.8162 187.369 27.574 187.791 28.1075C188.214 28.6409 188.821 28.9076 189.613 28.9076ZM198.074 29.9691C196.732 29.9691 195.671 29.6258 194.889 28.9392L195.317 27.9886C195.75 28.3266 196.188 28.5696 196.632 28.7174C197.076 28.8653 197.572 28.9392 198.121 28.9392C198.723 28.9392 199.18 28.8363 199.492 28.6303C199.803 28.4243 199.959 28.1259 199.959 27.7351C199.959 27.4183 199.853 27.1648 199.642 26.9746C199.431 26.7845 199.082 26.6366 198.597 26.531L197.25 26.2141C196.584 26.0663 196.069 25.8022 195.705 25.422C195.341 25.0417 195.158 24.5875 195.158 24.0594C195.158 23.3623 195.438 22.7946 195.998 22.3562C196.558 21.9179 197.297 21.6987 198.216 21.6987C198.776 21.6987 199.304 21.7885 199.801 21.968C200.297 22.1476 200.714 22.4064 201.052 22.7444L200.625 23.6792C199.875 23.056 199.072 22.7444 198.216 22.7444C197.646 22.7444 197.205 22.8526 196.893 23.0692C196.582 23.2857 196.426 23.5894 196.426 23.9802C196.426 24.3076 196.524 24.5664 196.719 24.7565C196.914 24.9466 197.229 25.0945 197.662 25.2001L199.008 25.5329C199.748 25.7019 200.297 25.9633 200.656 26.3171C201.015 26.671 201.195 27.1331 201.195 27.7034C201.195 28.39 200.915 28.9392 200.355 29.3512C199.795 29.7631 199.035 29.9691 198.074 29.9691ZM203.239 29.8582V21.8888H204.522V29.8582H203.239ZM203.112 18.5141H204.68V19.9718H203.112V18.5141ZM208.721 22.9028V27.2598C208.721 27.8513 208.842 28.2659 209.085 28.5035C209.328 28.7412 209.671 28.86 210.115 28.86C210.411 28.86 210.696 28.8125 210.97 28.7174V29.8106C210.643 29.9163 210.273 29.9691 209.861 29.9691C209.101 29.9691 208.507 29.7552 208.079 29.3274C207.651 28.8996 207.437 28.2685 207.437 27.4341V22.9028H205.885V21.8888H207.437V19.845L208.721 19.3855V21.8888H211.002V22.9028H208.721ZM219.225 25.8339H213.379C213.389 26.8479 213.624 27.6137 214.084 28.1312C214.543 28.6488 215.211 28.9076 216.088 28.9076C217.017 28.9076 217.873 28.596 218.655 27.9728L219.082 28.9076C218.734 29.235 218.288 29.4938 217.744 29.6839C217.2 29.874 216.642 29.9691 216.072 29.9691C214.826 29.9691 213.849 29.602 213.141 28.8679C212.433 28.1339 212.079 27.1278 212.079 25.8497C212.079 25.0364 212.238 24.3155 212.555 23.6871C212.872 23.0586 213.315 22.5701 213.886 22.2215C214.456 21.873 215.106 21.6987 215.834 21.6987C216.891 21.6987 217.72 22.0446 218.322 22.7365C218.924 23.4283 219.225 24.3816 219.225 25.5962V25.8339ZM215.85 22.6969C215.185 22.6969 214.643 22.8975 214.226 23.2989C213.809 23.7003 213.542 24.2654 213.426 24.9942H218.068C218.005 24.2442 217.786 23.6739 217.411 23.2831C217.036 22.8923 216.516 22.6969 215.85 22.6969ZM220.952 28.2263H222.584V29.8582H220.952V28.2263ZM228.177 29.9691C227.405 29.9691 226.732 29.8001 226.157 29.4621C225.581 29.1241 225.137 28.6461 224.826 28.0282C224.514 27.4103 224.358 26.6895 224.358 25.8656C224.358 25.0417 224.517 24.3155 224.834 23.6871C225.15 23.0586 225.602 22.5701 226.188 22.2215C226.774 21.873 227.458 21.6987 228.24 21.6987C228.779 21.6987 229.299 21.7911 229.801 21.976C230.302 22.1608 230.717 22.4169 231.044 22.7444L230.616 23.695C230.215 23.3781 229.827 23.1458 229.452 22.9979C229.077 22.85 228.694 22.7761 228.303 22.7761C227.49 22.7761 226.851 23.0481 226.386 23.592C225.921 24.136 225.689 24.8938 225.689 25.8656C225.689 26.8268 225.919 27.574 226.378 28.1075C226.838 28.6409 227.479 28.9076 228.303 28.9076C228.694 28.9076 229.077 28.8336 229.452 28.6857C229.827 28.5379 230.215 28.3055 230.616 27.9886L231.044 28.9392C230.706 29.2561 230.281 29.507 229.769 29.6918C229.257 29.8767 228.726 29.9691 228.177 29.9691ZM235.972 29.9691C235.222 29.9691 234.562 29.8001 233.991 29.4621C233.421 29.1241 232.98 28.6435 232.668 28.0203C232.357 27.3971 232.201 26.6683 232.201 25.8339C232.201 24.9995 232.357 24.2707 232.668 23.6475C232.98 23.0243 233.421 22.5437 233.991 22.2057C234.562 21.8677 235.222 21.6987 235.972 21.6987C236.722 21.6987 237.382 21.8677 237.952 22.2057C238.522 22.5437 238.963 23.0243 239.275 23.6475C239.587 24.2707 239.742 24.9995 239.742 25.8339C239.742 26.6683 239.587 27.3971 239.275 28.0203C238.963 28.6435 238.522 29.1241 237.952 29.4621C237.382 29.8001 236.722 29.9691 235.972 29.9691ZM235.972 28.9076C236.764 28.9076 237.371 28.6461 237.794 28.1233C238.216 27.6005 238.427 26.8373 238.427 25.8339C238.427 24.8621 238.211 24.1096 237.778 23.5762C237.345 23.0428 236.743 22.7761 235.972 22.7761C235.19 22.7761 234.583 23.0428 234.15 23.5762C233.717 24.1096 233.5 24.8621 233.5 25.8339C233.5 26.8373 233.714 27.6005 234.142 28.1233C234.569 28.6461 235.179 28.9076 235.972 28.9076ZM250.579 21.6987C252.343 21.6987 253.225 22.7497 253.225 24.8516V29.8582H251.942V24.915C251.942 24.165 251.813 23.6211 251.554 23.2831C251.295 22.9451 250.875 22.7761 250.294 22.7761C249.618 22.7761 249.09 23.0032 248.71 23.4573C248.33 23.9115 248.14 24.5294 248.14 25.3111V29.8582H246.856V24.915C246.856 24.1756 246.724 23.6343 246.46 23.291C246.196 22.9477 245.774 22.7761 245.193 22.7761C244.517 22.7761 243.986 23.0032 243.6 23.4573C243.215 23.9115 243.022 24.5294 243.022 25.3111V29.8582H241.739V24.1228C241.739 23.2989 241.696 22.5543 241.612 21.8888H242.832L242.959 23.2831C243.18 22.7761 243.511 22.3853 243.949 22.1106C244.387 21.836 244.897 21.6987 245.478 21.6987C246.112 21.6987 246.629 21.8255 247.03 22.079C247.432 22.3325 247.728 22.7233 247.918 23.2514C248.161 22.7761 248.517 22.3985 248.987 22.1186C249.457 21.8387 249.988 21.6987 250.579 21.6987Z" fill="#373451"/>
<path d="M307.675 17.5611L307.676 17.5611C308.127 17.5418 308.551 17.8252 308.735 18.2885C308.919 18.7532 308.816 19.2907 308.483 19.6376L308.482 19.6396C306.826 21.4313 305.241 23.2239 303.652 25.022L303.632 25.0442C302.036 26.8501 300.435 28.6616 298.749 30.4857L298.748 30.4863C298.35 30.9208 297.719 30.9594 297.279 30.5799C297.279 30.5799 297.279 30.5799 297.279 30.5799L292.57 26.5127C292.26 26.245 292.102 25.815 292.163 25.3837C292.224 24.9527 292.492 24.596 292.858 24.4418C293.222 24.2882 293.635 24.3549 293.943 24.6213L293.943 24.6214L297.76 27.9155L297.871 28.0108L297.969 27.903C299.337 26.4039 300.661 24.9086 301.989 23.4095C303.598 21.5918 305.213 19.7686 306.916 17.9261L306.918 17.9244C307.119 17.6997 307.391 17.5709 307.675 17.5611Z" fill="#57B68B" stroke="#F5F6F8" stroke-width="0.3"/>
<path d="M29.858 12.8828C33.5468 12.8828 36.5218 15.9144 36.6425 19.6753H38.2301C38.5827 19.6753 38.9117 19.9963 38.9117 20.3491V29.6844C38.9117 31.6093 37.4844 33.2532 35.6479 33.2532H24.0604C22.2239 33.2532 20.8047 31.6093 20.8047 29.6844V20.3494C20.8047 20.0207 21.0851 19.7077 21.4139 19.6756H23.0739C23.194 15.9144 26.169 12.8828 29.858 12.8828ZM29.9562 23.5169C29.2025 23.5169 28.6008 24.1264 28.6008 24.8802C28.6008 25.3856 28.8735 25.8184 29.2746 26.0514V28.7298C29.2746 29.0826 29.5953 29.4116 29.9562 29.4116C30.3171 29.4116 30.6378 29.0829 30.6378 28.7298V26.0514C31.0389 25.8184 31.3114 25.3776 31.3114 24.8802C31.3114 24.1264 30.7019 23.5169 29.9562 23.5169ZM29.858 14.2381C26.923 14.2381 24.5492 16.6203 24.4291 19.6756H35.279C35.1669 16.62 32.7931 14.2381 29.858 14.2381Z" fill="#57B68B"/>
<path fill-rule="evenodd" clip-rule="evenodd" d="M295 76.4263L306.737 88.1629L295 76.4263Z" fill="#DD1D18"/>
<path d="M295 76.4263L306.737 88.1629" stroke="#EF3249" stroke-width="2" stroke-linecap="round"/>
<path fill-rule="evenodd" clip-rule="evenodd" d="M295 88.1626L306.737 76.426L295 88.1626Z" fill="#DD1D18"/>
<path d="M295 88.1626L306.737 76.426" stroke="#EF3249" stroke-width="2" stroke-linecap="round"/>
<path d="M62.2307 79.4144C64.1425 79.4144 65.0984 80.4654 65.0984 82.5673V87.5739H63.815V82.6307C63.815 81.8913 63.6671 81.35 63.3714 81.0067C63.0756 80.6634 62.6109 80.4918 61.9772 80.4918C61.2378 80.4918 60.6463 80.7189 60.2027 81.1731C59.759 81.6273 59.5372 82.2399 59.5372 83.0109V87.5739H58.2539V75.913H59.5372V80.9037C59.7907 80.4179 60.1525 80.0482 60.6225 79.7947C61.0926 79.5412 61.6286 79.4144 62.2307 79.4144ZM69.9125 80.6186V84.9755C69.9125 85.567 70.034 85.9816 70.2769 86.2193C70.5199 86.4569 70.8632 86.5758 71.3068 86.5758C71.6025 86.5758 71.8877 86.5282 72.1623 86.4332V87.5264C71.8349 87.632 71.4652 87.6848 71.0533 87.6848C70.2928 87.6848 69.6987 87.4709 69.2709 87.0431C68.8431 86.6154 68.6292 85.9843 68.6292 85.1498V80.6186H67.0765V79.6046H68.6292V77.5607L69.9125 77.1013V79.6046H72.194V80.6186H69.9125ZM76.1844 80.6186V84.9755C76.1844 85.567 76.3058 85.9816 76.5488 86.2193C76.7917 86.4569 77.135 86.5758 77.5786 86.5758C77.8743 86.5758 78.1595 86.5282 78.4342 86.4332V87.5264C78.1067 87.632 77.737 87.6848 77.3251 87.6848C76.5646 87.6848 75.9705 87.4709 75.5427 87.0431C75.1149 86.6154 74.901 85.9843 74.901 85.1498V80.6186H73.3483V79.6046H74.901V77.5607L76.1844 77.1013V79.6046H78.4658V80.6186H76.1844ZM84.6743 79.4144C85.3714 79.4144 85.9893 79.5887 86.528 79.9373C87.0667 80.2858 87.4839 80.7743 87.7796 81.4028C88.0754 82.0313 88.2232 82.7574 88.2232 83.5813C88.2232 84.4052 88.0754 85.1261 87.7796 85.744C87.4839 86.3619 87.0693 86.8398 86.5359 87.1778C86.0025 87.5158 85.382 87.6848 84.6743 87.6848C84.0511 87.6848 83.5071 87.5475 83.0424 87.2729C82.5776 86.9983 82.2238 86.6074 81.9809 86.1004V90.9961H80.6975V81.8385C80.6975 81.0146 80.6553 80.27 80.5708 79.6046H81.7907L81.9175 81.1414C82.1393 80.5921 82.4905 80.167 82.9711 79.866C83.4517 79.565 84.0194 79.4144 84.6743 79.4144ZM84.4366 86.6233C85.2182 86.6233 85.8229 86.3592 86.2507 85.8311C86.6785 85.303 86.8924 84.5531 86.8924 83.5813C86.8924 82.6096 86.6759 81.8517 86.2428 81.3078C85.8097 80.7638 85.2077 80.4918 84.4366 80.4918C83.6444 80.4918 83.0371 80.7559 82.6146 81.284C82.1921 81.8121 81.9809 82.5673 81.9809 83.5496C81.9809 84.5319 82.1921 85.2898 82.6146 85.8232C83.0371 86.3566 83.6444 86.6233 84.4366 86.6233ZM90.6609 79.7788H92.2928V81.4266H90.6609V79.7788ZM90.6609 85.942H92.2928V87.5739H90.6609V85.942ZM95.7127 88.4453H94.5403L98.6121 75.707H99.8004L95.7127 88.4453ZM100.907 88.4453H99.7348L103.807 75.707H104.995L100.907 88.4453Z" fill="#DD1D18"/>
<path d="M120.825 79.6037H122.092L119.145 87.573H117.91L115.628 81.3465L113.362 87.573H112.127L109.18 79.6037H110.526L112.776 86.0362L115.105 79.6037H116.23L118.527 86.052L120.825 79.6037ZM134.593 79.6037H135.86L132.913 87.573H131.678L129.396 81.3465L127.131 87.573H125.895L122.948 79.6037H124.295L126.544 86.0362L128.873 79.6037H129.998L132.296 86.052L134.593 79.6037ZM148.361 79.6037H149.628L146.682 87.573H145.446L143.164 81.3465L140.899 87.573H139.663L136.716 79.6037H138.063L140.312 86.0362L142.641 79.6037H143.766L146.064 86.052L148.361 79.6037ZM151.07 85.9411H152.702V87.573H151.07V85.9411ZM165.789 79.6037H167.056L164.11 87.573H162.874L160.592 81.3465L158.327 87.573H157.091L154.144 79.6037H155.491L157.74 86.0362L160.069 79.6037H161.194L163.492 86.052L165.789 79.6037ZM175.39 83.5487H169.544C169.554 84.5627 169.789 85.3285 170.249 85.8461C170.708 86.3636 171.376 86.6224 172.253 86.6224C173.183 86.6224 174.038 86.3108 174.82 85.6876L175.248 86.6224C174.899 86.9498 174.453 87.2086 173.909 87.3987C173.365 87.5889 172.808 87.6839 172.237 87.6839C170.991 87.6839 170.014 87.3169 169.306 86.5828C168.599 85.8487 168.245 84.8426 168.245 83.5646C168.245 82.7513 168.403 82.0304 168.72 81.4019C169.037 80.7735 169.481 80.285 170.051 79.9364C170.621 79.5878 171.271 79.4135 172 79.4135C173.056 79.4135 173.885 79.7595 174.487 80.4513C175.089 81.1431 175.39 82.0964 175.39 83.3111V83.5487ZM172.015 80.4117C171.35 80.4117 170.809 80.6124 170.392 81.0138C169.974 81.4151 169.708 81.9802 169.591 82.709H174.234C174.17 81.9591 173.951 81.3887 173.576 80.9979C173.201 80.6071 172.681 80.4117 172.015 80.4117ZM181.316 79.4135C182.013 79.4135 182.631 79.5825 183.169 79.9205C183.708 80.2585 184.125 80.7365 184.421 81.3544C184.717 81.9723 184.865 82.6932 184.865 83.517C184.865 84.3409 184.717 85.0671 184.421 85.6955C184.125 86.324 183.708 86.8125 183.169 87.1611C182.631 87.5096 182.013 87.6839 181.316 87.6839C180.693 87.6839 180.149 87.5466 179.684 87.272C179.219 86.9974 178.865 86.6066 178.622 86.0996V87.573H177.339V75.9121H178.622V81.0138C178.855 80.4962 179.206 80.1001 179.676 79.8255C180.146 79.5509 180.693 79.4135 181.316 79.4135ZM181.078 86.6224C181.849 86.6224 182.451 86.3504 182.884 85.8065C183.317 85.2625 183.534 84.4994 183.534 83.517C183.534 82.5559 183.32 81.8112 182.892 81.2831C182.464 80.755 181.86 80.4909 181.078 80.4909C180.286 80.4909 179.679 80.755 179.256 81.2831C178.834 81.8112 178.622 82.5664 178.622 83.5487C178.622 84.531 178.834 85.2889 179.256 85.8223C179.679 86.3557 180.286 86.6224 181.078 86.6224ZM189.539 87.6839C188.197 87.6839 187.136 87.3406 186.354 86.6541L186.782 85.7035C187.215 86.0415 187.653 86.2844 188.097 86.4323C188.54 86.5801 189.037 86.6541 189.586 86.6541C190.188 86.6541 190.645 86.5511 190.957 86.3451C191.268 86.1392 191.424 85.8408 191.424 85.45C191.424 85.1331 191.318 84.8796 191.107 84.6895C190.896 84.4994 190.547 84.3515 190.061 84.2459L188.715 83.929C188.049 83.7811 187.534 83.517 187.17 83.1368C186.806 82.7566 186.623 82.3024 186.623 81.7742C186.623 81.0771 186.903 80.5094 187.463 80.0711C188.023 79.6327 188.762 79.4135 189.681 79.4135C190.241 79.4135 190.769 79.5033 191.265 79.6829C191.762 79.8625 192.179 80.1212 192.517 80.4592L192.089 81.394C191.339 80.7708 190.537 80.4592 189.681 80.4592C189.111 80.4592 188.67 80.5675 188.358 80.784C188.047 81.0006 187.891 81.3042 187.891 81.695C187.891 82.0225 187.989 82.2812 188.184 82.4714C188.379 82.6615 188.694 82.8094 189.127 82.915L190.473 83.2477C191.213 83.4167 191.762 83.6781 192.121 84.032C192.48 84.3858 192.66 84.8479 192.66 85.4183C192.66 86.1048 192.38 86.6541 191.82 87.066C191.26 87.478 190.5 87.6839 189.539 87.6839ZM194.704 87.573V79.6037H195.987V87.573H194.704ZM194.577 76.229H196.145V77.6866H194.577V76.229ZM200.185 80.6177V84.9747C200.185 85.5662 200.307 85.9807 200.55 86.2184C200.793 86.456 201.136 86.5749 201.58 86.5749C201.875 86.5749 202.161 86.5273 202.435 86.4323V87.5255C202.108 87.6311 201.738 87.6839 201.326 87.6839C200.566 87.6839 199.972 87.47 199.544 87.0423C199.116 86.6145 198.902 85.9834 198.902 85.1489V80.6177H197.349V79.6037H198.902V77.5598L200.185 77.1004V79.6037H202.467V80.6177H200.185ZM210.69 83.5487H204.843C204.854 84.5627 205.089 85.3285 205.549 85.8461C206.008 86.3636 206.676 86.6224 207.553 86.6224C208.482 86.6224 209.338 86.3108 210.119 85.6876L210.547 86.6224C210.199 86.9498 209.752 87.2086 209.208 87.3987C208.664 87.5889 208.107 87.6839 207.537 87.6839C206.291 87.6839 205.314 87.3169 204.606 86.5828C203.898 85.8487 203.544 84.8426 203.544 83.5646C203.544 82.7513 203.703 82.0304 204.02 81.4019C204.336 80.7735 204.78 80.285 205.35 79.9364C205.921 79.5878 206.57 79.4135 207.299 79.4135C208.355 79.4135 209.185 79.7595 209.787 80.4513C210.389 81.1431 210.69 82.0964 210.69 83.3111V83.5487ZM207.315 80.4117C206.65 80.4117 206.108 80.6124 205.691 81.0138C205.274 81.4151 205.007 81.9802 204.891 82.709H209.533C209.47 81.9591 209.251 81.3887 208.876 80.9979C208.501 80.6071 207.981 80.4117 207.315 80.4117ZM212.417 85.9411H214.049V87.573H212.417V85.9411ZM219.641 87.6839C218.87 87.6839 218.197 87.5149 217.621 87.1769C217.046 86.8389 216.602 86.361 216.29 85.7431C215.979 85.1252 215.823 84.4043 215.823 83.5804C215.823 82.7565 215.982 82.0304 216.298 81.4019C216.615 80.7735 217.067 80.285 217.653 79.9364C218.239 79.5878 218.923 79.4135 219.705 79.4135C220.243 79.4135 220.764 79.506 221.265 79.6908C221.767 79.8757 222.182 80.1318 222.509 80.4592L222.081 81.4098C221.68 81.093 221.292 80.8606 220.917 80.7127C220.542 80.5649 220.159 80.4909 219.768 80.4909C218.955 80.4909 218.316 80.7629 217.851 81.3069C217.386 81.8508 217.154 82.6087 217.154 83.5804C217.154 84.5416 217.384 85.2889 217.843 85.8223C218.303 86.3557 218.944 86.6224 219.768 86.6224C220.159 86.6224 220.542 86.5485 220.917 86.4006C221.292 86.2527 221.68 86.0203 222.081 85.7035L222.509 86.6541C222.171 86.971 221.746 87.2218 221.234 87.4067C220.721 87.5915 220.191 87.6839 219.641 87.6839ZM227.436 87.6839C226.687 87.6839 226.026 87.5149 225.456 87.1769C224.886 86.8389 224.445 86.3583 224.133 85.7352C223.821 85.112 223.666 84.3832 223.666 83.5487C223.666 82.7143 223.821 81.9855 224.133 81.3623C224.445 80.7391 224.886 80.2585 225.456 79.9205C226.026 79.5825 226.687 79.4135 227.436 79.4135C228.186 79.4135 228.847 79.5825 229.417 79.9205C229.987 80.2585 230.428 80.7391 230.74 81.3623C231.051 81.9855 231.207 82.7143 231.207 83.5487C231.207 84.3832 231.051 85.112 230.74 85.7352C230.428 86.3583 229.987 86.8389 229.417 87.1769C228.847 87.5149 228.186 87.6839 227.436 87.6839ZM227.436 86.6224C228.229 86.6224 228.836 86.361 229.258 85.8381C229.681 85.3153 229.892 84.5522 229.892 83.5487C229.892 82.577 229.676 81.8244 229.243 81.291C228.81 80.7576 228.208 80.4909 227.436 80.4909C226.655 80.4909 226.048 80.7576 225.614 81.291C225.181 81.8244 224.965 82.577 224.965 83.5487C224.965 84.5522 225.179 85.3153 225.607 85.8381C226.034 86.361 226.644 86.6224 227.436 86.6224ZM242.044 79.4135C243.808 79.4135 244.69 80.4645 244.69 82.5664V87.573H243.407V82.6298C243.407 81.8799 243.277 81.3359 243.019 80.9979C242.76 80.6599 242.34 80.4909 241.759 80.4909C241.083 80.4909 240.555 80.718 240.175 81.1722C239.795 81.6264 239.604 82.2443 239.604 83.0259V87.573H238.321V82.6298C238.321 81.8904 238.189 81.3491 237.925 81.0058C237.661 80.6626 237.238 80.4909 236.657 80.4909C235.981 80.4909 235.451 80.718 235.065 81.1722C234.68 81.6264 234.487 82.2443 234.487 83.0259V87.573H233.204V81.8376C233.204 81.0138 233.161 80.2691 233.077 79.6037H234.297L234.424 80.9979C234.645 80.4909 234.975 80.1001 235.414 79.8255C235.852 79.5509 236.362 79.4135 236.943 79.4135C237.576 79.4135 238.094 79.5403 238.495 79.7938C238.897 80.0473 239.192 80.4381 239.383 80.9662C239.626 80.4909 239.982 80.1133 240.452 79.8334C240.922 79.5535 241.453 79.4135 242.044 79.4135Z" fill="#373451"/>
<path d="M39.6184 86.7203L31.6624 73.0154C31.1653 72.1581 30.5113 71.7305 29.8552 71.7305C29.1992 71.7305 28.5452 72.1581 28.0481 73.0154L20.1023 86.7203C19.0978 88.435 19.9128 89.8375 21.9094 89.8375H37.8011C39.7977 89.8375 40.6127 88.435 39.6184 86.7203ZM28.8202 78.6397H30.8923V83.435H28.8182V78.6397H28.8202ZM29.8573 86.544C29.2305 86.544 28.7225 86.0386 28.7225 85.4151C28.7225 84.7916 29.2305 84.2862 29.8573 84.2862C30.484 84.2862 30.9921 84.7916 30.9921 85.4151C30.9926 85.7152 30.873 86.0032 30.6597 86.2154C30.4464 86.4276 30.1569 86.5466 29.8552 86.546L29.8573 86.544Z" fill="#DD1D18"/>
</g>
<defs>
<clipPath id="clip0">
<rect width="331" height="106" fill="white"/>
</clipPath>
</defs>
</svg>
