<svg width="32" height="33" viewBox="0 0 32 33" fill="none" xmlns="http://www.w3.org/2000/svg">
<path d="M30 10.5547V9.07812C30 7.38675 28.6289 6.01562 26.9375 6.01562H5.0625C3.37112 6.01562 2 7.38675 2 9.07812V10.5547C2 10.7057 2.12245 10.8281 2.27344 10.8281H29.7266C29.8776 10.8281 30 10.7057 30 10.5547Z" fill="#DD1D18"/>
<path d="M2 12.8516V22.2031C2 23.8945 3.37112 25.2656 5.0625 25.2656H26.9375C28.6289 25.2656 30 23.8945 30 22.2031V12.8516C30 12.7006 29.8776 12.5781 29.7266 12.5781H2.27344C2.12245 12.5781 2 12.7006 2 12.8516ZM9 20.0156C9 20.4988 8.60822 20.8906 8.125 20.8906H7.25C6.76678 20.8906 6.375 20.4988 6.375 20.0156V19.1406C6.375 18.6574 6.76678 18.2656 7.25 18.2656H8.125C8.60822 18.2656 9 18.6574 9 19.1406V20.0156Z" fill="#DD1D18"/>
</svg>
