<svg width="32" height="33" viewBox="0 0 32 33" fill="none" xmlns="http://www.w3.org/2000/svg">
<path d="M29.0001 15.0001H28.0001C27.7806 12.8113 26.8454 10.7559 25.3395 9.1523C23.8335 7.54874 21.8409 6.4865 19.6701 6.1301L18.0001 11.0001H21.0001L15.0001 20.0001L16.0001 14.0001H13.0001L14.7801 6.0001H14.0001C13.0939 5.99881 12.192 6.12334 11.3201 6.3701C10.206 5.76616 9.0199 5.30582 7.79008 5.0001C7.54387 4.94342 7.28534 4.98203 7.06643 5.10818C6.84753 5.23433 6.68449 5.43866 6.61008 5.6801C6.19574 7.08234 5.99021 8.53796 6.00008 10.0001C5.3753 10.8313 4.88592 11.756 4.55008 12.7401L2.84008 13.0001C2.60346 13.0384 2.38848 13.1605 2.2343 13.344C2.08012 13.5276 1.997 13.7604 2.00008 14.0001V18.0001C1.99954 18.2097 2.0649 18.4143 2.18692 18.5847C2.30895 18.7552 2.48146 18.883 2.68008 18.9501L4.68008 19.6101C4.93634 20.3126 5.27184 20.9836 5.68008 21.6101L4.90008 23.0001C4.6385 23.4581 4.56845 24.0009 4.70517 24.5104C4.84189 25.0198 5.17432 25.4546 5.63008 25.7201L7.33008 26.7201C7.63392 26.8964 7.97882 26.9895 8.33008 26.9901C8.50585 26.9915 8.68093 26.9679 8.85008 26.9201C9.10562 26.8554 9.34584 26.7408 9.55692 26.5829C9.76801 26.425 9.94581 26.2269 10.0801 26.0001L10.4501 25.3501C11.583 25.7847 12.7867 26.0051 14.0001 26.0001H18.0001C19.5071 26.0008 20.9946 25.6589 22.3501 25.0001L22.9201 26.0001C23.0507 26.2306 23.2259 26.4329 23.4354 26.5951C23.6448 26.7573 23.8845 26.8763 24.1403 26.9452C24.3962 27.014 24.6632 27.0314 24.9258 26.9962C25.1884 26.961 25.4414 26.8739 25.6701 26.7401L27.3701 25.7401C27.5984 25.6086 27.7985 25.4333 27.9589 25.2242C28.1193 25.0151 28.2368 24.7764 28.3046 24.5218C28.3724 24.2672 28.3893 24.0017 28.3542 23.7406C28.3191 23.4794 28.2327 23.2278 28.1001 23.0001L26.8001 20.7301C27.4212 19.5736 27.8086 18.3062 27.9401 17.0001H29.0001C29.2653 17.0001 29.5197 16.8947 29.7072 16.7072C29.8947 16.5197 30.0001 16.2653 30.0001 16.0001C30.0001 15.7349 29.8947 15.4805 29.7072 15.293C29.5197 15.1055 29.2653 15.0001 29.0001 15.0001Z" fill="#DD1D18"/>
</svg>
