<svg width="32" height="33" viewBox="0 0 32 33" fill="none" xmlns="http://www.w3.org/2000/svg">
<path d="M5.71026 14.1789L9.02284 15.5525C8.64935 16.4954 8.35142 17.4666 8.13187 18.4567L8.00622 19.0278L12.7552 23.7797L13.3263 23.6569C14.3165 23.4374 15.2876 23.1394 16.2306 22.7659L17.6042 26.0785C17.6176 26.1113 17.639 26.1403 17.6665 26.1628C17.6939 26.1853 17.7265 26.2007 17.7613 26.2075C17.7961 26.2143 17.8321 26.2123 17.866 26.2018C17.8999 26.1912 17.9306 26.1724 17.9554 26.1471L20.0315 24.071C20.3703 23.7322 20.6343 23.3262 20.8064 22.879C20.9786 22.4319 21.0551 21.9537 21.031 21.4752L20.9567 20.1416C24.8005 17.303 28.6899 12.3256 29.7493 3.6386C29.7794 3.4208 29.7587 3.199 29.689 2.9905C29.6192 2.78199 29.5023 2.59241 29.3472 2.43653C29.1922 2.28064 29.0032 2.16268 28.7951 2.09181C28.587 2.02095 28.3653 1.99912 28.1473 2.028C19.4632 3.09603 14.4829 6.98831 11.6444 10.8206L10.3136 10.7521C9.83614 10.7261 9.35852 10.8004 8.91146 10.97C8.4644 11.1397 8.05779 11.4011 7.7178 11.7373L5.64172 13.8134C5.61296 13.8378 5.59117 13.8695 5.57856 13.905C5.56595 13.9406 5.56298 13.9789 5.56994 14.016C5.5769 14.0531 5.59354 14.0877 5.61818 14.1164C5.64282 14.145 5.67459 14.1665 5.71026 14.1789ZM19.0291 9.11865C19.3889 8.7601 19.8469 8.51621 20.3452 8.41777C20.8435 8.31932 21.3598 8.37074 21.8289 8.56553C22.298 8.76031 22.6989 9.08974 22.9809 9.51219C23.2629 9.93465 23.4134 10.4312 23.4134 10.9391C23.4134 11.4471 23.2629 11.9436 22.9809 12.3661C22.6989 12.7886 22.298 13.118 21.8289 13.3128C21.3598 13.5075 20.8435 13.559 20.3452 13.4605C19.8469 13.3621 19.3889 13.1182 19.0291 12.7596C18.7895 12.5209 18.5994 12.2371 18.4697 11.9247C18.34 11.6123 18.2732 11.2774 18.2732 10.9391C18.2732 10.6009 18.34 10.2659 18.4697 9.95354C18.5994 9.64114 18.7895 9.35742 19.0291 9.11865ZM5.09058 24.1595C4.54087 23.9666 3.95056 23.9194 3.37717 24.0224C3.32621 24.0334 3.27329 24.0314 3.22335 24.0164C3.17341 24.0014 3.12808 23.974 3.0916 23.9368C3.04638 23.8917 3.0161 23.8339 3.00486 23.771C2.99363 23.7082 3.00197 23.6434 3.02878 23.5855C3.63704 22.2776 5.25049 19.6475 8.17185 21.7722C8.18711 21.7858 8.19932 21.8025 8.20768 21.8212C8.21604 21.8399 8.22036 21.8602 8.22036 21.8807C8.22036 21.9011 8.21604 21.9214 8.20768 21.9401C8.19932 21.9588 8.18711 21.9755 8.17185 21.9892C7.78074 22.2972 7.4676 22.6929 7.25776 23.1444C7.04791 23.5958 6.94724 24.0903 6.9639 24.5879C6.96603 24.6462 6.99018 24.7017 7.0315 24.743C7.07282 24.7843 7.12825 24.8085 7.18664 24.8106C7.68208 24.8305 8.17528 24.7339 8.62661 24.5286C9.07794 24.3233 9.4748 24.0149 9.78531 23.6283C9.79897 23.6116 9.81617 23.5981 9.83568 23.5889C9.85519 23.5796 9.87651 23.5748 9.89811 23.5748C9.9197 23.5748 9.94102 23.5796 9.96053 23.5889C9.98004 23.5981 9.99725 23.6116 10.0109 23.6283C10.4164 24.111 11.533 25.6873 10.2965 27.2094C9.75666 27.8582 8.9832 28.2685 8.14329 28.3516C6.94391 28.4801 4.7279 28.8714 3.82266 29.9051C3.78632 29.9482 3.73897 29.9806 3.68567 29.9988C3.63237 30.0171 3.57512 30.0205 3.52001 30.0088C3.4649 29.9971 3.41401 29.9706 3.37276 29.9322C3.33151 29.8939 3.30145 29.845 3.28579 29.7909C2.96595 28.7 2.46906 26.2613 5.09058 24.1595Z" fill="#DD1D18"/>
</svg>
