<svg width="32" height="33" viewBox="0 0 32 33" fill="none" xmlns="http://www.w3.org/2000/svg">
<g clip-path="url(#clip0)">
<path fill-rule="evenodd" clip-rule="evenodd" d="M16.1694 2C10.0855 2 4.9056 5.89721 2.98134 11.3326C2.88692 11.6018 2.90308 11.8975 3.02629 12.1548C3.1495 12.4121 3.36971 12.6101 3.63864 12.7053C3.90757 12.8005 4.20328 12.7852 4.46094 12.6627C4.71861 12.5403 4.9172 12.3206 5.0132 12.052C6.64053 7.45524 11.0044 4.15385 16.1694 4.15385C22.7246 4.15385 28.0156 9.44485 28.0156 16C28.0157 16.2129 28.0789 16.4211 28.1972 16.5981C28.3156 16.7752 28.4837 16.9131 28.6805 16.9946C28.8772 17.0761 29.0937 17.0975 29.3026 17.0559C29.5114 17.0144 29.7033 16.9119 29.8539 16.7614L32.0078 14.6076C32.1111 14.5083 32.1937 14.3895 32.2505 14.258C32.3074 14.1264 32.3374 13.9849 32.3388 13.8416C32.3403 13.6983 32.3131 13.5562 32.259 13.4236C32.2048 13.2909 32.1248 13.1704 32.0234 13.0691C31.9221 12.9678 31.8016 12.8877 31.669 12.8335C31.5363 12.7794 31.3942 12.7522 31.2509 12.7537C31.1076 12.7551 30.9661 12.7852 30.8346 12.842C30.703 12.8989 30.5842 12.9814 30.4849 13.0847L29.9318 13.6379C28.8013 7.04471 23.08 2 16.1694 2ZM16.1652 6.30559C10.8251 6.30559 6.47505 10.6641 6.47503 16.0042C6.47503 21.3443 10.8251 25.6944 16.1652 25.6944C21.5054 25.6944 25.8639 21.3443 25.8639 16.0042C25.8638 10.6641 21.5054 6.30559 16.1652 6.30559ZM16.1505 10.5986C16.2951 10.596 16.4388 10.6226 16.5729 10.6768C16.707 10.7309 16.8288 10.8116 16.9311 10.9138C17.0334 11.0161 17.114 11.1379 17.1681 11.272C17.2223 11.4062 17.2489 11.5498 17.2464 11.6944V15.5499L19.0826 17.3945C19.1953 17.4911 19.2869 17.6099 19.3515 17.7435C19.4161 17.8771 19.4524 18.0227 19.4582 18.171C19.4639 18.3193 19.4389 18.4672 19.3847 18.6054C19.3306 18.7436 19.2485 18.8691 19.1435 18.9741C19.0386 19.079 18.913 19.1611 18.7748 19.2153C18.6366 19.2694 18.4888 19.2944 18.3404 19.2887C18.1921 19.283 18.0466 19.2467 17.913 19.1821C17.7794 19.1174 17.6605 19.0259 17.564 18.9132L15.4101 16.7593C15.2089 16.5593 15.0948 16.2879 15.0925 16.0042V11.6944C15.09 11.553 15.1154 11.4125 15.1672 11.2808C15.2191 11.1492 15.2963 11.0291 15.3945 10.9274C15.4928 10.8256 15.6101 10.7442 15.7398 10.6878C15.8695 10.6313 16.0091 10.601 16.1505 10.5986ZM3.21482 14.9231C2.94019 14.9313 2.67909 15.0442 2.48495 15.2386L0.331104 17.3924C0.227749 17.4917 0.145233 17.6105 0.088388 17.742C0.0315434 17.8736 0.00151305 18.0151 5.57163e-05 18.1584C-0.00140161 18.3017 0.0257433 18.4438 0.0799009 18.5764C0.134058 18.7091 0.21414 18.8296 0.315455 18.9309C0.41677 19.0322 0.537283 19.1123 0.669935 19.1665C0.802587 19.2206 0.944711 19.2478 1.08799 19.2463C1.23126 19.2449 1.3728 19.2148 1.50433 19.158C1.63585 19.1011 1.75471 19.0186 1.85394 18.9153L2.40713 18.3621C3.5376 24.9553 9.25885 30 16.1694 30C22.2534 30 27.4333 26.1028 29.3575 20.6674C29.4529 20.3979 29.4374 20.1016 29.3143 19.8437C29.1912 19.5857 28.9707 19.3872 28.7013 19.2918C28.4319 19.1964 28.1356 19.2119 27.8776 19.335C27.6196 19.4581 27.4211 19.6786 27.3257 19.948C25.6984 24.5447 21.3345 27.8462 16.1694 27.8462C9.61424 27.8462 4.32329 22.5552 4.32329 16C4.32334 15.8559 4.29446 15.7132 4.23837 15.5805C4.18229 15.4477 4.10013 15.3276 3.99676 15.2272C3.8934 15.1267 3.77093 15.0481 3.63662 14.9958C3.5023 14.9436 3.35887 14.9189 3.21482 14.9231Z" fill="#DD1D18"/>
</g>
<defs>
<clipPath id="clip0">
<rect width="32" height="32" fill="white" transform="translate(0 0.0153809)"/>
</clipPath>
</defs>
</svg>
