<svg width="32" height="33" viewBox="0 0 32 33" fill="none" xmlns="http://www.w3.org/2000/svg">
<path d="M30 10.5544V9.07788C30 7.38651 28.6289 6.01538 26.9375 6.01538H5.0625C3.37112 6.01538 2 7.38651 2 9.07788V10.5544C2 10.7054 2.12245 10.8279 2.27344 10.8279H29.7266C29.8776 10.8279 30 10.7054 30 10.5544Z" fill="#DD1D18"/>
<path d="M2 12.8513V22.2029C2 23.8943 3.37112 25.2654 5.0625 25.2654H26.9375C28.6289 25.2654 30 23.8943 30 22.2029V12.8513C30 12.7003 29.8776 12.5779 29.7266 12.5779H2.27344C2.12245 12.5779 2 12.7003 2 12.8513ZM9 20.0154C9 20.4986 8.60822 20.8904 8.125 20.8904H7.25C6.76678 20.8904 6.375 20.4986 6.375 20.0154V19.1404C6.375 18.6572 6.76678 18.2654 7.25 18.2654H8.125C8.60822 18.2654 9 18.6572 9 19.1404V20.0154Z" fill="#DD1D18"/>
</svg>
