<svg width="32" height="33" viewBox="0 0 32 33" fill="none" xmlns="http://www.w3.org/2000/svg">
<path d="M3.06576 10.0068C2.9508 10.0077 2.8408 10.0537 2.75951 10.135C2.67823 10.2163 2.63219 10.3263 2.63135 10.4412V12.3301C2.63135 12.4453 2.67712 12.5558 2.75858 12.6373C2.84005 12.7188 2.95054 12.7645 3.06576 12.7645H9.36305C9.6025 11.8014 9.96821 10.8741 10.4507 10.0068H3.06576Z" fill="#DD1D18"/>
<path d="M1.43442 8.42713H11.4934C12.3777 7.32089 13.4575 6.3862 14.679 5.66945H1.43442C1.37752 5.66902 1.32111 5.67986 1.26842 5.70134C1.21574 5.72282 1.16782 5.75451 1.12744 5.79459C1.08706 5.83468 1.05501 5.88235 1.03314 5.93488C1.01127 5.9874 1.00001 6.04374 1.00001 6.10064V7.99272C0.999584 8.04989 1.01053 8.10657 1.03221 8.15947C1.05389 8.21236 1.08587 8.26042 1.12629 8.30085C1.16672 8.34127 1.21478 8.37325 1.26767 8.39493C1.32057 8.41661 1.37725 8.42756 1.43442 8.42713Z" fill="#DD1D18"/>
<path d="M1.88527 14.8756V16.7644C1.88527 16.8215 1.8965 16.878 1.91833 16.9307C1.94016 16.9834 1.97216 17.0313 2.0125 17.0716C2.05284 17.112 2.10073 17.144 2.15343 17.1658C2.20614 17.1876 2.26263 17.1989 2.31967 17.1989H9.14469C9.06316 16.6481 9.02229 16.092 9.02242 15.5352C9.02242 15.1684 9.04172 14.8016 9.07712 14.4412H2.31967C2.26251 14.4407 2.20583 14.4517 2.15293 14.4734C2.10003 14.495 2.05197 14.527 2.01155 14.5675C1.97112 14.6079 1.93914 14.6559 1.91746 14.7088C1.89578 14.7617 1.88484 14.8184 1.88527 14.8756Z" fill="#DD1D18"/>
<path d="M3.82178 19.3968V21.2857C3.82178 21.4009 3.86755 21.5114 3.94901 21.5928C4.03048 21.6743 4.14097 21.7201 4.25618 21.7201H10.8495C10.2984 20.8629 9.86543 19.9353 9.56239 18.9624H4.25618C4.14123 18.9632 4.03123 19.0093 3.94994 19.0906C3.86866 19.1719 3.82262 19.2819 3.82178 19.3968Z" fill="#DD1D18"/>
<path d="M2.97268 26.2894H16.1948C16.2693 26.2885 16.3424 26.2686 16.4071 26.2315C14.8561 25.6399 13.452 24.7188 12.2915 23.5318H2.95981C2.90264 23.5313 2.84596 23.5423 2.79306 23.5639C2.74017 23.5856 2.69211 23.6176 2.65168 23.658C2.61126 23.6985 2.57928 23.7465 2.5576 23.7994C2.53592 23.8523 2.52497 23.909 2.5254 23.9662V25.855C2.52538 25.9132 2.53703 25.9707 2.55966 26.0243C2.58229 26.0779 2.61544 26.1263 2.65715 26.1668C2.69887 26.2073 2.74829 26.2391 2.80249 26.2601C2.85668 26.2812 2.91456 26.2912 2.97268 26.2894Z" fill="#DD1D18"/>
<path d="M21.4959 25.5154C23.4739 25.5162 25.4077 24.9304 27.0527 23.8321C28.6977 22.7338 29.9801 21.1723 30.7376 19.3451C31.4951 17.5179 31.6937 15.5071 31.3084 13.567C30.923 11.6269 29.9709 9.84472 28.5725 8.44578C27.1742 7.04684 25.3923 6.09402 23.4524 5.70783C21.5125 5.32165 19.5016 5.51944 17.6741 6.27619C15.8466 7.03295 14.2846 8.31467 13.1856 9.95925C12.0866 11.6038 11.5 13.5374 11.5 15.5154C11.5 18.1668 12.553 20.7097 14.4275 22.585C16.3019 24.4602 18.8444 25.5143 21.4959 25.5154Z" fill="#DD1D18"/>
<path d="M25.7105 14.0472V15.0029H16.5V14.0472H22.5526C22.9035 13.8533 23.0789 13.6179 23.0789 13.3409C23.0789 12.9438 22.9035 12.6253 22.5526 12.3852C22.211 12.1451 21.6893 12.0251 20.9875 12.0251C20.0365 12.0251 19.1177 12.2328 18.2313 12.6483L17.8158 11.2356C18.2867 11.0048 18.7899 10.8293 19.3255 10.7093C19.8703 10.58 20.4058 10.5154 20.9321 10.5154C21.7447 10.5154 22.4464 10.64 23.0374 10.8893C23.6283 11.1294 24.0808 11.4711 24.3947 11.9143C24.7087 12.3483 24.8657 12.8515 24.8657 13.424C24.8657 13.6548 24.838 13.8626 24.7825 14.0472H25.7105ZM16.5 15.9586H25.7105V16.9143H19.7825C19.3393 17.1451 19.1177 17.4221 19.1177 17.7453C19.1177 18.1239 19.2932 18.4286 19.644 18.6594C19.9949 18.8903 20.5305 19.0057 21.2507 19.0057C21.8601 19.0057 22.4557 18.9226 23.0374 18.7564C23.6283 18.5902 24.1223 18.3686 24.5194 18.0916L25.018 19.4905C24.4825 19.8136 23.8869 20.0676 23.2313 20.2522C22.5849 20.4277 21.9386 20.5154 21.2922 20.5154C20.4612 20.5154 19.7502 20.3953 19.1593 20.1553C18.5683 19.9152 18.1159 19.5782 17.8019 19.1442C17.488 18.7102 17.331 18.2024 17.331 17.6206C17.331 17.3806 17.3772 17.1451 17.4695 16.9143H16.5V15.9586Z" fill="white"/>
</svg>
