<svg width="228" height="176" viewBox="0 0 228 176" fill="none" xmlns="http://www.w3.org/2000/svg">
<rect x="44" y="158.108" width="139.108" height="139.108" rx="22" transform="rotate(-90 44 158.108)" fill="white"/>
<rect x="82" y="38.1079" width="82" height="82" rx="22" fill="#EEF0F2"/>
<rect x="72" y="48.1079" width="82" height="82" rx="22" fill="#8392A4"/>
<path d="M115 87.1079V79.1079H111V91.1079H123V87.1079H115Z" fill="white"/>
<circle cx="113" cy="89.1079" r="18" stroke="white" stroke-width="4"/>
<path d="M203 90.0618L203 87.1958L197.286 87.1958L197.286 90.0618L203 90.0618Z" fill="#DD1D18"/>
<path d="M185.857 75.7319L185.857 70L183 70L183 75.7319L185.857 75.7319Z" fill="#DD1D18"/>
<path d="M185.857 107.257L185.857 101.525L183 101.525L183 107.257L185.857 107.257Z" fill="#DD1D18"/>
<path d="M198.569 76.4714L196.549 74.4448L192.508 78.4979L194.529 80.5244L198.569 76.4714Z" fill="#DD1D18"/>
<path d="M198.568 100.788L194.527 96.7349L192.507 98.7614L196.548 102.814L198.568 100.788Z" fill="#DD1D18"/>
<path d="M194.428 88.6286C194.428 83.0886 189.951 78.5977 184.428 78.5977C183.939 78.5977 183.471 78.675 182.999 78.741L182.999 98.5133C183.471 98.5821 183.939 98.6595 184.428 98.6595C189.951 98.6595 194.428 94.1685 194.428 88.6286Z" fill="#DD1D18"/>
<path d="M41.7286 135.814V137.259H56.8049V135.814C56.8069 134.364 57.3829 132.974 58.407 131.948C59.4312 130.922 60.8201 130.343 62.2699 130.338V128.322C62.2689 127.707 62.0244 127.118 61.5898 126.683C61.1553 126.247 60.566 126.002 59.951 126H38.5717C37.9586 126.005 37.3721 126.251 36.9398 126.686C36.5076 127.121 36.2646 127.709 36.2637 128.322V130.338C37.7135 130.343 39.1024 130.922 40.1265 131.948C41.1506 132.974 41.7267 134.364 41.7286 135.814Z" fill="#4C5866"/>
<path d="M62.2696 132.574C61.4074 132.574 60.5806 132.917 59.971 133.526C59.3613 134.136 59.0188 134.963 59.0188 135.825V139.513H39.4889V135.814C39.5286 135.365 39.4745 134.912 39.3298 134.485C39.1851 134.058 38.9531 133.665 38.6485 133.333C38.344 133 37.9735 132.734 37.5607 132.552C37.1479 132.371 36.7018 132.277 36.2508 132.277C35.7997 132.277 35.3536 132.371 34.9408 132.552C34.528 132.734 34.1576 133 33.853 133.333C33.5484 133.665 33.3164 134.058 33.1718 134.485C33.0271 134.912 32.9729 135.365 33.0126 135.814V142.749C33.0126 143.611 33.3551 144.438 33.9648 145.048C34.5744 145.657 35.4013 146 36.2634 146H62.2696C63.1318 146 63.9586 145.657 64.5682 145.048C65.1779 144.438 65.5204 143.611 65.5204 142.749V135.814C65.5175 134.954 65.1738 134.13 64.5644 133.522C63.9551 132.915 63.1299 132.574 62.2696 132.574Z" fill="#4C5866"/>
</svg>
