<svg width="32" height="32" viewBox="0 0 32 32" fill="none" xmlns="http://www.w3.org/2000/svg">
<path fill-rule="evenodd" clip-rule="evenodd" d="M14.3105 14.2556C14.0317 16.6897 12.9668 19.653 10.0073 19.6532C7.04762 19.6534 5.98311 16.6897 5.70402 14.2556C5.36036 11.2567 6.77909 9 10.0073 9C13.236 9 14.6539 11.2569 14.3105 14.2556ZM17.7052 24.3737C17.8701 25.3036 17.9808 26.2524 18.0131 27.197C18.0373 27.9028 17.702 28.0232 17.1286 28.229C17.1076 28.2366 17.0863 28.2442 17.0647 28.252C16.2983 28.5285 15.5069 28.7337 14.7104 28.9018C13.1719 29.2267 11.5861 29.4764 10.0071 29.4876C8.42805 29.4764 6.84223 29.2267 5.30377 28.9018C4.5072 28.7336 3.71593 28.5284 2.94949 28.252C2.92779 28.2442 2.9064 28.2365 2.88533 28.2289C2.3123 28.0231 1.97708 27.9026 2.00122 27.197C2.03354 26.2524 2.14426 25.3036 2.30913 24.3737C2.31727 24.3278 2.3255 24.281 2.33387 24.2334C2.53074 23.1141 2.80305 21.5659 3.74648 20.8618C4.14549 20.5639 4.6271 20.4065 5.10387 20.2507C5.30663 20.1845 5.50851 20.1185 5.70279 20.0421C6.01969 19.9177 6.30357 19.794 6.57001 19.6532C7.46919 20.6394 8.64168 21.1553 10.0068 21.1553C11.3724 21.1552 12.545 20.6393 13.4443 19.6532C13.7107 19.794 13.9946 19.9176 14.3115 20.0421C14.5058 20.1185 14.7077 20.1845 14.9104 20.2507C15.3872 20.4066 15.8688 20.564 16.2679 20.8618C17.2112 21.5659 17.4836 23.1141 17.6805 24.2333C17.6889 24.2809 17.6971 24.3277 17.7052 24.3737Z" fill="#DD1D18"/>
<path fill-rule="evenodd" clip-rule="evenodd" d="M25.3114 7.25559C25.0325 9.68974 23.9677 12.653 21.0081 12.6532C18.0485 12.6534 16.984 9.68967 16.7049 7.25556C16.3612 4.2567 17.78 2 21.0081 2C24.2368 2 25.6548 4.25686 25.3114 7.25559ZM28.7061 17.3737C28.8709 18.3036 28.9816 19.2524 29.014 20.197C29.0381 20.9028 28.7029 21.0232 28.1295 21.229L28.0655 21.252C27.2992 21.5285 26.5078 21.7337 25.7112 21.9018C24.1728 22.2267 22.587 22.4764 21.0079 22.4876C20.0033 22.4805 18.9959 22.3768 17.9997 22.2186C17.789 21.4259 17.4612 20.6508 16.8688 20.2086C16.4697 19.9108 15.9881 19.7534 15.5113 19.5975C15.3086 19.5313 15.1067 19.4653 14.9124 19.3889C14.6047 19.268 14.3281 19.1479 14.0684 19.0122C14.8041 17.9489 15.1654 16.5298 15.3114 15.2556C15.3807 14.6504 15.3782 14.0755 15.3037 13.5432C15.5616 13.4282 15.8339 13.3392 16.1047 13.2507C16.3075 13.1845 16.5094 13.1185 16.7037 13.0421C17.0206 12.9177 17.3044 12.794 17.5709 12.6532C18.4701 13.6394 19.6425 14.1553 21.0077 14.1553C22.3733 14.1552 23.5459 13.6393 24.4452 12.6532C24.7116 12.794 24.9955 12.9176 25.3124 13.0421C25.5067 13.1185 25.7086 13.1845 25.9113 13.2507C26.3881 13.4066 26.8697 13.564 27.2688 13.8618C28.2121 14.5659 28.4845 16.1141 28.6814 17.2333L28.7061 17.3737Z" fill="#DD1D18"/>
</svg>
