<svg width="32" height="32" viewBox="0 0 32 32" fill="none" xmlns="http://www.w3.org/2000/svg">
<path d="M30 8.97625H14.9762L18.4762 5.47625L16 3L9.51187 9.48812C9.34917 9.65065 9.22009 9.84366 9.13202 10.0561C9.04395 10.2686 8.99862 10.4963 8.99862 10.7263C8.99862 10.9562 9.04395 11.1839 9.13202 11.3964C9.22009 11.6088 9.34917 11.8018 9.51187 11.9644L13.5238 15.9763L17.0238 19.4763H2V22.9763H17.0238L13.5238 26.4763L16 28.9525L22.4881 22.4644C22.6508 22.3018 22.7799 22.1088 22.868 21.8964C22.956 21.684 23.0014 21.4562 23.0014 21.2263C23.0014 20.9963 22.956 20.7686 22.868 20.5561C22.7799 20.3437 22.6508 20.1507 22.4881 19.9881L18.4762 15.9763L14.9762 12.4763H30V8.97625Z" fill="#DD1D18"/>
</svg>
