<svg width="228" height="176" viewBox="0 0 228 176" fill="none" xmlns="http://www.w3.org/2000/svg">
<g clip-path="url(#clip0)">
<rect x="26" y="132.889" width="139.108" height="139.108" rx="22" transform="rotate(-71.9146 26 132.889)" fill="white"/>
<rect x="48.3457" y="74" width="82" height="82" rx="22" transform="rotate(-30 48.3457 74)" fill="#EEF0F2"/>
<rect x="74.3457" y="48" width="82" height="82" rx="22" fill="#8392A4"/>
<path d="M133.222 87.001C132.769 82.9452 130.95 79.1641 128.064 76.2784C125.179 73.3927 121.398 71.574 117.342 71.121V67.001H113.342V71.121C109.286 71.574 105.505 73.3927 102.619 76.2784C99.7335 79.1641 97.9148 82.9452 97.4618 87.001H93.3418V91.001H97.4618C97.9148 95.0567 99.7335 98.8379 102.619 101.724C105.505 104.609 109.286 106.428 113.342 106.881V111.001H117.342V106.881C121.398 106.428 125.179 104.609 128.064 101.724C130.95 98.8379 132.769 95.0567 133.222 91.001H137.342V87.001H133.222ZM115.342 103.001C107.602 103.001 101.342 96.741 101.342 89.001C101.342 81.261 107.602 75.001 115.342 75.001C123.082 75.001 129.342 81.261 129.342 89.001C129.342 96.741 123.082 103.001 115.342 103.001Z" fill="white"/>
<ellipse cx="115.346" cy="89.001" rx="4" ry="4" fill="white"/>
<g clip-path="url(#clip1)">
<path fill-rule="evenodd" clip-rule="evenodd" d="M26.5414 91.4295C20.2395 93.5031 16.8197 100.277 18.8933 106.579C21.7063 115.128 36.186 120.741 36.186 120.741C36.186 120.741 44.5039 107.627 41.6908 99.0776C39.6172 92.7757 32.8433 89.3559 26.5414 91.4295ZM31.8995 107.713C34.5975 106.826 36.065 103.919 35.1773 101.221C34.2895 98.5228 31.3826 97.0553 28.6846 97.9431C25.9866 98.8308 24.5191 101.738 25.4069 104.436C26.2946 107.134 29.2015 108.601 31.8995 107.713Z" fill="#DD1D18"/>
<ellipse cx="38.9984" cy="129.29" rx="3.85714" ry="3.85715" transform="rotate(-18.2135 38.9984 129.29)" fill="#DD1D18"/>
</g>
<g clip-path="url(#clip2)">
<path fill-rule="evenodd" clip-rule="evenodd" d="M190.283 28.3738C185.235 27.303 180.286 30.5195 179.216 35.5672C177.763 42.4148 185.302 51.8514 185.302 51.8514C185.302 51.8514 196.023 46.2884 197.476 39.4408C198.547 34.3931 195.33 29.4446 190.283 28.3738ZM187.516 41.4169C189.677 41.8753 191.8 40.4951 192.259 38.334C192.717 36.173 191.337 34.0495 189.176 33.5911C187.015 33.1326 184.891 34.5129 184.433 36.6739C183.974 38.835 185.355 40.9585 187.516 41.4169Z" fill="#4C5866"/>
</g>
</g>
<defs>
<clipPath id="clip0">
<rect width="228" height="176" fill="white"/>
</clipPath>
<clipPath id="clip1">
<rect width="41.1429" height="45" fill="white" transform="translate(7 97.8594) rotate(-18.2135)"/>
</clipPath>
<clipPath id="clip2">
<rect width="32" height="24" fill="white" transform="translate(174.98 25) rotate(11.9767)"/>
</clipPath>
</defs>
</svg>
