<svg width="228" height="176" viewBox="0 0 228 176" fill="none" xmlns="http://www.w3.org/2000/svg">
<g clip-path="url(#clip0)">
<rect width="139.108" height="139.108" rx="22" transform="matrix(-0.310434 -0.950595 -0.950595 0.310434 201 132.889)" fill="white"/>
<rect width="82" height="82" rx="22" transform="matrix(-0.866025 -0.5 -0.5 0.866025 178.654 74)" fill="#EEF0F2"/>
<rect width="82" height="82" rx="22" transform="matrix(-1 0 0 1 152.654 48)" fill="#8392A4"/>
<g clip-path="url(#clip1)">
<path d="M124.394 90.4084C123.517 89.5311 122.096 89.5311 121.22 90.4084C120.344 91.2857 120.343 92.7062 121.22 93.5825L126.646 99.0086C127.084 99.4468 127.659 99.6659 128.234 99.6659C128.808 99.6659 129.382 99.4468 129.821 99.0086C130.698 98.1314 130.698 96.7109 129.821 95.8345L124.394 90.4084ZM104.82 70.8356C103.943 69.9583 102.523 69.9583 101.646 70.8356C100.77 71.7128 100.769 73.1333 101.646 74.0097L107.072 79.4358C107.511 79.874 108.085 80.0931 108.66 80.0931C109.235 80.0931 109.808 79.874 110.247 79.4358C111.125 78.5586 111.125 77.1381 110.247 76.2617L104.82 70.8356ZM122.807 80.0931C123.381 80.0931 123.955 79.874 124.394 79.4358L129.82 74.0097C130.698 73.1324 130.698 71.7119 129.82 70.8356C128.943 69.9592 127.523 69.9583 126.646 70.8356L121.22 76.2617C120.343 77.139 120.343 78.5595 121.22 79.4358C121.658 79.874 122.232 80.0931 122.807 80.0931ZM107.072 90.4084L88.3122 109.169C87.435 110.046 87.435 111.466 88.3122 112.343C88.7504 112.781 89.3251 113 89.8998 113C90.4744 113 91.0482 112.781 91.4873 112.343L110.247 93.5825C111.125 92.7053 111.125 91.2848 110.247 90.4084C109.37 89.532 107.949 89.532 107.072 90.4084ZM133.41 82.6773H125.891C124.651 82.6773 123.646 83.6821 123.646 84.9221C123.646 86.1621 124.651 87.1669 125.891 87.1669H133.41C134.65 87.1669 135.655 86.1621 135.655 84.9221C135.655 83.6821 134.649 82.6773 133.41 82.6773ZM98.0547 87.1669H105.575C106.815 87.1669 107.82 86.1621 107.82 84.9221C107.82 83.6821 106.815 82.6773 105.575 82.6773H98.0547C96.8146 82.6773 95.8099 83.6821 95.8099 84.9221C95.8099 86.1621 96.8155 87.1669 98.0547 87.1669ZM115.733 65C114.493 65 113.488 66.0048 113.488 67.2448V74.764C113.488 76.004 114.493 77.0088 115.733 77.0088C116.973 77.0088 117.978 76.004 117.978 74.764V67.2448C117.978 66.0057 116.973 65 115.733 65ZM115.733 91.9375C114.493 91.9375 113.488 92.9423 113.488 94.1823V102.6C113.488 103.84 114.493 104.845 115.733 104.845C116.973 104.845 117.978 103.84 117.978 102.6V94.1823C117.978 92.9423 116.973 91.9375 115.733 91.9375Z" fill="white"/>
</g>
<path d="M37.1156 51.2941C37.2232 51.6169 37.4922 51.832 37.8149 51.832C38.1376 51.832 38.4604 51.6169 38.5142 51.2941C39.6438 46.5068 43.5166 42.6878 48.2501 41.5582C48.5728 41.4506 48.788 41.1817 48.788 40.8589C48.788 40.5362 48.5728 40.2134 48.2501 40.1597C43.409 38.9763 39.6438 35.211 38.5142 30.3699C38.4604 30.0472 38.1376 29.832 37.8149 29.832C37.4922 29.832 37.1694 30.0472 37.1156 30.3699C35.9323 35.211 32.2208 38.9763 27.3797 40.1597C27.057 40.2672 26.8418 40.5362 26.8418 40.8589C26.8418 41.1817 27.057 41.5044 27.3797 41.5582C32.1132 42.6878 35.9323 46.5068 37.1156 51.2941Z" fill="#4C5866"/>
<path d="M182.512 140.242C182.664 140.697 183.044 141 183.5 141C183.956 141 184.412 140.697 184.488 140.242C186.083 133.496 191.554 128.115 198.24 126.523C198.696 126.372 199 125.993 199 125.538C199 125.083 198.696 124.628 198.24 124.553C191.402 122.885 186.083 117.579 184.488 110.758C184.412 110.303 183.956 110 183.5 110C183.044 110 182.588 110.303 182.512 110.758C180.841 117.579 175.598 122.885 168.76 124.553C168.304 124.704 168 125.083 168 125.538C168 125.993 168.304 126.447 168.76 126.523C175.446 128.115 180.841 133.496 182.512 140.242Z" fill="#DD1D18"/>
</g>
<defs>
<clipPath id="clip0">
<rect width="228" height="176" fill="white" transform="matrix(-1 0 0 1 228 0)"/>
</clipPath>
<clipPath id="clip1">
<rect width="48" height="48" fill="white" transform="matrix(-1 0 0 1 135.654 65)"/>
</clipPath>
</defs>
</svg>
