<svg width="166" height="52" viewBox="0 0 166 52" fill="none" xmlns="http://www.w3.org/2000/svg">
<path d="M158 1H8C6.14348 1 4.36301 1.7375 3.05025 3.05025C1.7375 4.36301 1 6.14348 1 8V44C1 45.8565 1.7375 47.637 3.05025 48.9497C4.36301 50.2625 6.14348 51 8 51H158C159.857 51 161.637 50.2625 162.95 48.9497C164.263 47.637 165 45.8565 165 44V8C165 6.14348 164.263 4.36301 162.95 3.05025C161.637 1.7375 159.857 1 158 1Z" fill="black" stroke="#4C4C4C" stroke-width="2"/>
<path d="M58.8797 14.24C58.8797 15.2 58.6397 16.04 58.0397 16.64C57.3197 17.36 56.4797 17.72 55.3997 17.72C54.3197 17.72 53.4797 17.36 52.7597 16.64C52.0397 15.92 51.6797 15.08 51.6797 14C51.6797 12.92 52.0397 12.08 52.7597 11.36C53.4797 10.64 54.3197 10.28 55.3997 10.28C55.8797 10.28 56.3597 10.4 56.8397 10.64C57.3197 10.88 57.6797 11.12 57.9197 11.48L57.3197 12.08C56.8397 11.48 56.2397 11.24 55.3997 11.24C54.6797 11.24 53.9597 11.48 53.4797 12.08C52.8797 12.56 52.6397 13.28 52.6397 14.12C52.6397 14.96 52.8797 15.68 53.4797 16.16C54.0797 16.64 54.6797 17 55.3997 17C56.2397 17 56.8397 16.76 57.4397 16.16C57.7997 15.8 58.0397 15.32 58.0397 14.72H55.3997V13.88H58.8797V14.24ZM64.3997 11.24H61.1597V13.52H64.1597V14.36H61.1597V16.64H64.3997V17.6H60.1997V10.4H64.3997V11.24ZM68.3597 17.6H67.3997V11.24H65.3597V10.4H70.3997V11.24H68.3597V17.6ZM73.8797 17.6V10.4H74.8397V17.6H73.8797ZM78.9197 17.6H77.9597V11.24H75.9197V10.4H80.8397V11.24H78.7997V17.6H78.9197ZM90.3197 16.64C89.5997 17.36 88.7597 17.72 87.6797 17.72C86.5997 17.72 85.7597 17.36 85.0397 16.64C84.3197 15.92 83.9597 15.08 83.9597 14C83.9597 12.92 84.3197 12.08 85.0397 11.36C85.7597 10.64 86.5997 10.28 87.6797 10.28C88.7597 10.28 89.5997 10.64 90.3197 11.36C91.0397 12.08 91.3997 12.92 91.3997 14C91.3997 15.08 91.0397 15.92 90.3197 16.64ZM85.7597 16.04C86.2397 16.52 86.9597 16.88 87.6797 16.88C88.3997 16.88 89.1197 16.64 89.5997 16.04C90.0797 15.56 90.4397 14.84 90.4397 14C90.4397 13.16 90.1997 12.44 89.5997 11.96C89.1197 11.48 88.3997 11.12 87.6797 11.12C86.9597 11.12 86.2397 11.36 85.7597 11.96C85.2797 12.44 84.9197 13.16 84.9197 14C84.9197 14.84 85.1597 15.56 85.7597 16.04ZM92.7197 17.6V10.4H93.7997L97.2797 16.04V10.4H98.2397V17.6H97.2797L93.5597 11.72V17.6H92.7197Z" fill="white" stroke="white" stroke-width="0.5"/>
<path d="M83.7203 28.16C80.8403 28.16 78.5603 30.32 78.5603 33.32C78.5603 36.2 80.8403 38.48 83.7203 38.48C86.6003 38.48 88.8803 36.32 88.8803 33.32C88.8803 30.2 86.6003 28.16 83.7203 28.16ZM83.7203 36.32C82.1603 36.32 80.8403 35 80.8403 33.2C80.8403 31.4 82.1603 30.08 83.7203 30.08C85.2803 30.08 86.6003 31.28 86.6003 33.2C86.6003 35 85.2803 36.32 83.7203 36.32ZM72.5603 28.16C69.6803 28.16 67.4003 30.32 67.4003 33.32C67.4003 36.2 69.6803 38.48 72.5603 38.48C75.4403 38.48 77.7203 36.32 77.7203 33.32C77.7203 30.2 75.4403 28.16 72.5603 28.16ZM72.5603 36.32C71.0003 36.32 69.6803 35 69.6803 33.2C69.6803 31.4 71.0003 30.08 72.5603 30.08C74.1203 30.08 75.4403 31.28 75.4403 33.2C75.4403 35 74.1203 36.32 72.5603 36.32ZM59.2403 29.72V31.88H64.4003C64.2803 33.08 63.8003 34.04 63.2003 34.64C62.4803 35.36 61.2803 36.2 59.2403 36.2C56.0003 36.2 53.6003 33.68 53.6003 30.44C53.6003 27.2 56.1203 24.68 59.2403 24.68C60.9203 24.68 62.2403 25.4 63.2003 26.24L64.7603 24.68C63.4403 23.48 61.7603 22.52 59.3603 22.52C55.0403 22.52 51.3203 26.12 51.3203 30.44C51.3203 34.76 55.0403 38.36 59.3603 38.36C61.7603 38.36 63.4403 37.64 64.8803 36.08C66.3203 34.64 66.8003 32.6 66.8003 31.04C66.8003 30.56 66.8003 30.08 66.6803 29.72H59.2403ZM113.72 31.4C113.24 30.2 112.04 28.16 109.4 28.16C106.76 28.16 104.6 30.2 104.6 33.32C104.6 36.2 106.76 38.48 109.64 38.48C111.92 38.48 113.36 37.04 113.84 36.2L112.16 35C111.56 35.84 110.84 36.44 109.64 36.44C108.44 36.44 107.72 35.96 107.12 34.88L113.96 32L113.72 31.4ZM106.76 33.08C106.76 31.16 108.32 30.08 109.4 30.08C110.24 30.08 111.08 30.56 111.32 31.16L106.76 33.08ZM101.12 38H103.4V23H101.12V38ZM97.5203 29.24C96.9203 28.64 95.9603 28.04 94.7603 28.04C92.2403 28.04 89.8403 30.32 89.8403 33.2C89.8403 36.08 92.1203 38.24 94.7603 38.24C95.9603 38.24 96.9203 37.64 97.4003 37.04H97.5203V37.76C97.5203 39.68 96.4403 40.76 94.7603 40.76C93.4403 40.76 92.4803 39.8 92.2403 38.96L90.3203 39.8C90.9203 41.12 92.3603 42.8 94.8803 42.8C97.5203 42.8 99.6803 41.24 99.6803 37.52V28.4H97.5203V29.24ZM94.8803 36.32C93.3203 36.32 92.0003 35 92.0003 33.2C92.0003 31.4 93.3203 30.08 94.8803 30.08C96.4403 30.08 97.6403 31.4 97.6403 33.2C97.6403 35 96.4403 36.32 94.8803 36.32ZM124.16 23H118.76V38H121.04V32.36H124.16C126.68 32.36 129.08 30.56 129.08 27.68C129.08 24.8 126.68 23 124.16 23ZM124.28 30.2H121.04V25.04H124.28C125.96 25.04 126.92 26.48 126.92 27.56C126.8 28.88 125.84 30.2 124.28 30.2ZM138.08 28.04C136.4 28.04 134.72 28.76 134.12 30.32L136.16 31.16C136.64 30.32 137.36 30.08 138.2 30.08C139.4 30.08 140.48 30.8 140.6 32V32.12C140.24 31.88 139.28 31.52 138.32 31.52C136.16 31.52 134 32.72 134 34.88C134 36.92 135.8 38.24 137.72 38.24C139.28 38.24 140 37.52 140.6 36.8H140.72V38H142.88V32.24C142.64 29.6 140.6 28.04 138.08 28.04ZM137.84 36.32C137.12 36.32 136.04 35.96 136.04 35C136.04 33.8 137.36 33.44 138.44 33.44C139.4 33.44 139.88 33.68 140.48 33.92C140.24 35.36 139.04 36.32 137.84 36.32ZM150.44 28.4L147.92 34.88H147.8L145.16 28.4H142.76L146.72 37.52L144.44 42.56H146.72L152.84 28.4H150.44ZM130.28 38H132.56V23H130.28V38Z" fill="white"/>
<path d="M14.4799 11C14.1199 11.36 13.8799 11.96 13.8799 12.68V39.2C13.8799 39.92 14.1199 40.52 14.4799 40.88L14.5999 41L29.4799 26.12V25.88L14.4799 11Z" fill="url(#paint0_linear)"/>
<path d="M34.4005 31.16L29.4805 26.24V25.88L34.4005 20.96L34.5205 21.08L40.4005 24.44C42.0805 25.4 42.0805 26.96 40.4005 27.92L34.4005 31.16Z" fill="url(#paint1_linear)"/>
<path d="M34.5205 31.04L29.4805 26L14.4805 41C15.0805 41.6 15.9205 41.6 17.0005 41.12L34.5205 31.04Z" fill="url(#paint2_linear)"/>
<path d="M34.5205 20.9599L17.0005 10.9999C15.9205 10.3999 15.0805 10.5199 14.4805 11.1199L29.4805 25.9999L34.5205 20.9599Z" fill="url(#paint3_linear)"/>
<path opacity="0.2" d="M34.4005 30.92L17.0005 40.76C16.0405 41.36 15.2005 41.24 14.6005 40.76L14.4805 40.88L14.6005 41C15.2005 41.48 16.0405 41.6 17.0005 41L34.4005 30.92Z" fill="black"/>
<path opacity="0.12" d="M14.48 40.76C14.12 40.4 14 39.8 14 39.08V39.2C14 39.92 14.24 40.52 14.6 40.88V40.76H14.48ZM40.4 27.56L34.4 30.92L34.52 31.04L40.4 27.68C41.24 27.2 41.6 26.6 41.6 26C41.6 26.6 41.12 27.08 40.4 27.56Z" fill="black"/>
<path opacity="0.25" d="M17 11.12L40.4 24.44C41.12 24.92 41.6 25.4 41.6 26C41.6 25.4 41.24 24.8 40.4 24.32L17 11C15.32 10.04 14 10.88 14 12.8V12.92C14 11 15.32 10.16 17 11.12Z" fill="white"/>
<defs>
<linearGradient id="paint0_linear" x1="23.4319" y1="12.452" x2="10.6399" y2="25.244" gradientUnits="userSpaceOnUse">
<stop stop-color="#00A0FF"/>
<stop offset="0.007" stop-color="#00A1FF"/>
<stop offset="0.26" stop-color="#00BEFF"/>
<stop offset="0.512" stop-color="#00D2FF"/>
<stop offset="0.76" stop-color="#00DFFF"/>
<stop offset="1" stop-color="#00E3FF"/>
</linearGradient>
<linearGradient id="paint1_linear" x1="42.6015" y1="26.002" x2="13.5655" y2="26.002" gradientUnits="userSpaceOnUse">
<stop stop-color="#FFE000"/>
<stop offset="0.409" stop-color="#FFBD00"/>
<stop offset="0.775" stop-color="#FFA500"/>
<stop offset="1" stop-color="#FF9C00"/>
</linearGradient>
<linearGradient id="paint2_linear" x1="31.7925" y1="30.768" x2="10.0045" y2="52.556" gradientUnits="userSpaceOnUse">
<stop stop-color="#FF3A44"/>
<stop offset="1" stop-color="#C31162"/>
</linearGradient>
<linearGradient id="paint3_linear" x1="10.7575" y1="8.80694" x2="20.4535" y2="18.5029" gradientUnits="userSpaceOnUse">
<stop stop-color="#32A071"/>
<stop offset="0.069" stop-color="#2DA771"/>
<stop offset="0.476" stop-color="#15CF74"/>
<stop offset="0.801" stop-color="#06E775"/>
<stop offset="1" stop-color="#00F076"/>
</linearGradient>
</defs>
</svg>
