<svg width="18" height="18" viewBox="0 0 18 18" fill="none" xmlns="http://www.w3.org/2000/svg">
<path fill-rule="evenodd" clip-rule="evenodd" d="M12.8684 13.5755C11.61 14.6704 9.96574 15.3333 8.16667 15.3333C4.20863 15.3333 1 12.1247 1 8.16667C1 4.20863 4.20863 1 8.16667 1C12.1247 1 15.3333 4.20863 15.3333 8.16667C15.3333 9.96574 14.6704 11.61 13.5755 12.8684L16.8536 16.1464C17.0488 16.3417 17.0488 16.6583 16.8536 16.8536C16.6583 17.0488 16.3417 17.0488 16.1464 16.8536L12.8684 13.5755ZM2 8.16667C2 4.76091 4.76091 2 8.16667 2C11.5724 2 14.3333 4.76091 14.3333 8.16667C14.3333 9.83839 13.6681 11.3548 12.588 12.4655C12.5646 12.4819 12.5423 12.5006 12.5214 12.5214C12.5006 12.5423 12.4819 12.5646 12.4655 12.588C11.3548 13.6681 9.83839 14.3333 8.16667 14.3333C4.76091 14.3333 2 11.5724 2 8.16667Z" fill="#4C5866" stroke="#4C5866" stroke-width="0.5" stroke-linecap="round" stroke-linejoin="round"/>
</svg>
