<svg width="16" height="16" viewBox="0 0 16 16" fill="none" xmlns="http://www.w3.org/2000/svg">
<path d="M4.21668 15.2001V5.48439H0.987401V15.2001H4.21668ZM2.60246 4.15709C3.72857 4.15709 4.42952 3.41104 4.42952 2.47873C4.40854 1.52539 3.72861 0.800049 2.62383 0.800049C1.51922 0.800049 0.796875 1.5254 0.796875 2.47873C0.796875 3.41108 1.49765 4.15709 2.58138 4.15709H2.60236H2.60246ZM6.00408 15.2001H9.23337V9.77435C9.23337 9.48398 9.25435 9.1939 9.33962 8.98633C9.57308 8.40617 10.1044 7.80528 10.9965 7.80528C12.165 7.80528 12.6325 8.69624 12.6325 10.0023V15.2H15.8616V9.62911C15.8616 6.64485 14.2684 5.2563 12.1438 5.2563C10.4017 5.2563 9.63681 6.23005 9.21188 6.89327H9.23344V5.48419H6.00416C6.04653 6.39585 6.00416 15.1998 6.00416 15.1998L6.00408 15.2001Z" fill="#4C5866"/>
</svg>
