<svg width="18" height="18" viewBox="0 0 18 18" fill="none" xmlns="http://www.w3.org/2000/svg">
<path d="M16.3611 0.00805664H1.63806C0.737057 0.00805664 0.00805664 0.737057 0.00805664 1.63806V16.3621C0.00805664 17.2621 0.737057 17.9931 1.63806 17.9931H16.3621C17.2621 17.9931 17.9931 17.2631 17.9931 16.3621V1.63806C17.9921 0.736057 17.2621 0.00805664 16.3611 0.00805664ZM6.01806 3.50506C6.61506 3.50506 7.11606 3.97706 7.11606 4.58306C7.11606 5.19906 6.61506 5.66306 6.01806 5.66306V5.68506C5.41406 5.68506 4.92806 5.19906 4.92806 4.59706C4.92806 3.99206 5.41406 3.50506 6.01806 3.50506ZM13.3721 13.8571C12.2601 13.8571 11.7211 13.1951 11.7211 12.2911C11.7211 12.0311 11.7541 11.7581 11.8351 11.4791L12.3631 9.57306C12.4311 9.36506 12.4491 9.16806 12.4491 8.99206C12.4491 8.37706 12.0741 8.00806 11.4781 8.00806C10.7171 8.00806 10.2181 8.55106 9.95806 9.60606L8.92506 13.7521H7.11406L7.44106 12.4491C6.90706 13.3221 6.17006 13.8611 5.25806 13.8611C4.15606 13.8611 3.64106 13.2291 3.64106 12.2771C3.64706 12.0051 3.67606 11.7311 3.73706 11.4661L4.56306 8.10006H3.28506L3.67306 6.67006H6.74806L5.53206 11.4741C5.45206 11.7831 5.42206 12.0331 5.42206 12.2121C5.42206 12.5191 5.57006 12.6081 5.80706 12.6641C5.95306 12.6941 7.10206 12.6751 7.72506 11.2881L8.52306 8.10006H7.22906L7.62006 6.69606H10.4071L10.0481 8.31306C10.5321 7.41406 11.5001 6.55106 12.4541 6.55106C13.4661 6.55106 14.3091 7.27906 14.3091 8.66206C14.3091 9.06206 14.2461 9.45806 14.1291 9.84206L13.6091 11.7001C13.5661 11.8881 13.5341 12.0471 13.5341 12.1921C13.5341 12.5181 13.6701 12.6761 13.9021 12.6761C14.1401 12.6761 14.4551 12.4951 14.8011 11.5041L15.5091 11.7761C15.0951 13.2491 14.3271 13.8571 13.3721 13.8571Z" fill="#8392A4"/>
</svg>
