<svg width="20" height="20" viewBox="0 0 20 20" fill="none" xmlns="http://www.w3.org/2000/svg">
<path d="M17.4487 9.16658C17.2599 7.47669 16.5022 5.9012 15.2998 4.69883C14.0974 3.49646 12.5219 2.73868 10.832 2.54992V0.833252H9.16536V2.54992C7.47547 2.73868 5.89998 3.49646 4.69761 4.69883C3.49524 5.9012 2.73746 7.47669 2.5487 9.16658H0.832031V10.8333H2.5487C2.73746 12.5231 3.49524 14.0986 4.69761 15.301C5.89998 16.5034 7.47547 17.2612 9.16536 17.4499V19.1666H10.832V17.4499C12.5219 17.2612 14.0974 16.5034 15.2998 15.301C16.5022 14.0986 17.2599 12.5231 17.4487 10.8333H19.1654V9.16658H17.4487ZM9.9987 15.8333C6.7737 15.8333 4.16536 13.2249 4.16536 9.99992C4.16536 6.77492 6.7737 4.16658 9.9987 4.16658C13.2237 4.16658 15.832 6.77492 15.832 9.99992C15.832 13.2249 13.2237 15.8333 9.9987 15.8333Z" fill="white"/>
</svg>
