<svg width="24" height="24" viewBox="0 0 24 24" fill="none" xmlns="http://www.w3.org/2000/svg">
<circle cx="12" cy="12" r="12" fill="#E6F4EE"/>
<path d="M11.9999 6C14.0371 6 15.6801 7.78586 15.7468 10.0014H16.6236C16.8183 10.0014 17 10.1905 17 10.3983V15.8977C17 17.0316 16.2118 18 15.1975 18H8.79804C7.78381 18 7 17.0316 7 15.8977V10.3985C7 10.2049 7.15489 10.0205 7.33644 10.0016H8.25323C8.31957 7.78586 9.96256 6 11.9999 6ZM12.0541 12.2644C11.6379 12.2644 11.3056 12.6235 11.3056 13.0676C11.3056 13.3653 11.4562 13.6203 11.6777 13.7575V15.3353C11.6777 15.5432 11.8548 15.737 12.0541 15.737C12.2535 15.737 12.4306 15.5433 12.4306 15.3353V13.7575C12.6521 13.6203 12.8025 13.3606 12.8025 13.0676C12.8025 12.6235 12.466 12.2644 12.0541 12.2644ZM11.9999 6.79839C10.379 6.79839 9.06799 8.20169 9.00165 10.0016H14.9937C14.9319 8.20153 13.6209 6.79839 11.9999 6.79839Z" fill="#57B68B"/>
</svg>
