<svg width="109" height="32" viewBox="0 0 109 32" fill="none" xmlns="http://www.w3.org/2000/svg">
<path d="M27.9499 23.4872C26.9888 23.4872 26.0821 23.3164 25.2267 22.9779C24.4061 22.6545 23.6853 22.1936 23.0657 21.5936C22.4582 20.9982 21.9897 20.3121 21.6633 19.5338C21.3278 18.7344 21.16 17.5662 21.16 16.0263C21.16 14.4864 21.3278 13.3182 21.6633 12.5188C21.9897 11.7405 22.4582 11.0544 23.0657 10.459C24.3744 9.19712 26.0035 8.56543 27.9499 8.56543C28.9111 8.56543 29.8178 8.7362 30.6731 9.07622C31.4983 9.39962 32.2055 9.84996 32.7964 10.4272C33.4296 11.0438 33.9102 11.7405 34.2381 12.5188C34.5736 13.3182 34.7413 14.4864 34.7413 16.0263C34.7413 17.5647 34.5736 18.7344 34.2381 19.5338C33.9102 20.3121 33.4296 21.0088 32.7964 21.6254C31.5164 22.8661 29.9024 23.4872 27.9499 23.4872ZM24.0737 16.0263C24.0737 17.8246 24.4877 19.0654 25.3174 19.7499C26.0488 20.3499 26.9268 20.6491 27.9514 20.6491C29.0652 20.6491 29.981 20.3151 30.7003 19.6472C31.4575 18.9505 31.8353 17.743 31.8353 16.0248C31.8353 14.3065 31.4575 13.1021 30.7003 12.4085C29.9825 11.7375 29.0652 11.4005 27.9514 11.4005C26.9268 11.4005 26.0488 11.6997 25.3174 12.2996C24.4877 12.9872 24.0737 14.228 24.0737 16.0263Z" fill="#DD1D18"/>
<path d="M49.7976 8.86328L44.058 23.5281H41.1187L35.3791 8.86328H38.8171L42.5921 18.9824L46.3596 8.86328H49.7976Z" fill="#DD1D18"/>
<path d="M108.43 9.01147L98.9801 32.0001H95.734L99.5725 22.7469L94.0127 9.01147H97.2588L101.218 18.7936L105.191 9.01147H108.43Z" fill="#DD1D18"/>
<path d="M62.4419 12.6337C62.25 11.8977 61.9402 11.263 61.511 10.7265C60.3806 9.28936 58.6337 8.57153 56.2701 8.57153C54.5987 8.57153 53.0845 8.73928 51.7229 9.07477V12.002C53.0875 11.5728 54.6032 11.3582 56.2701 11.3582C57.0605 11.3582 57.7436 11.4957 58.3163 11.7723C58.8392 12.0277 59.2064 12.4342 59.4195 12.9903H56.9577C55.1216 12.9903 53.5892 13.4467 52.3606 14.361C51.7833 14.7993 51.339 15.3025 51.0277 15.8722C50.7134 16.4465 50.5562 17.2353 50.5562 18.2388C50.5562 19.2422 50.7134 20.0326 51.0277 20.6114C51.3375 21.1856 51.7818 21.6874 52.3606 22.1166C53.5892 23.0384 55.1216 23.4993 56.9577 23.4993C58.0307 23.4993 59.0084 23.3663 59.9001 23.1109V23.4102H62.6701V21.6889V16.788V14.4456C62.6716 13.7988 62.5946 13.1943 62.4419 12.6337ZM59.6356 20.1142C58.6745 20.5101 57.7828 20.7066 56.9577 20.7066C55.9452 20.7066 55.1533 20.5434 54.5791 20.2154C53.9202 19.8376 53.5907 19.144 53.5907 18.136C53.5907 17.128 53.9187 16.4616 54.573 16.1337C55.0536 15.8994 55.8485 15.7831 56.9577 15.7831H59.6356V20.1142Z" fill="#DD1D18"/>
<path d="M76.6428 10.479C76.0519 9.87602 75.3658 9.41207 74.583 9.08867C73.7715 8.74865 72.904 8.57788 71.9822 8.57788C70.7113 8.57788 69.5098 8.77283 68.3795 9.16423C68.3417 9.17783 68.3054 9.19446 68.2676 9.20806V8.87559H65.496V10.7767V15.1018V31.9292H68.5321V22.5491C69.4841 23.1747 70.6342 23.486 71.9822 23.486C72.904 23.486 73.7715 23.3183 74.583 22.9828C75.3658 22.6549 76.0519 22.1924 76.6428 21.5925C77.2246 20.9925 77.6689 20.3125 77.9757 19.5523C78.3021 18.7317 78.4668 17.3248 78.4668 15.3315C78.4668 13.3382 77.8593 11.7197 76.6428 10.479ZM74.456 19.5916C73.7881 20.2807 72.9645 20.6253 71.9822 20.6253C71.2341 20.6253 70.6009 20.512 70.0811 20.2868C69.6821 20.1175 69.1653 19.7805 68.5321 19.2788V12.3725C69.4297 11.7514 70.5798 11.4416 71.9822 11.4416C72.9645 11.4416 73.7896 11.7862 74.456 12.4738C75.1059 13.1448 75.4323 14.3311 75.4323 16.0327C75.4323 17.7343 75.1074 18.9191 74.456 19.5916Z" fill="#DD1D18"/>
<path d="M92.9352 12.6337C92.7433 11.8977 92.4335 11.263 92.0043 10.7265C90.8739 9.28936 89.127 8.57153 86.7634 8.57153C85.092 8.57153 83.5778 8.73928 82.2161 9.07477V12.002C83.5808 11.5728 85.0965 11.3582 86.7634 11.3582C87.5538 11.3582 88.2368 11.4957 88.8096 11.7723C89.3325 12.0277 89.6997 12.4342 89.9128 12.9903H87.451C85.6149 12.9903 84.0825 13.4467 82.8539 14.361C82.2766 14.7993 81.8323 15.3025 81.521 15.8722C81.2067 16.4465 81.0495 17.2353 81.0495 18.2388C81.0495 19.2422 81.2067 20.0326 81.521 20.6114C81.8308 21.1856 82.2751 21.6874 82.8539 22.1166C84.0825 23.0384 85.6149 23.4993 87.451 23.4993C88.524 23.4993 89.5017 23.3663 90.3934 23.1109V23.4102H93.1634V21.6889V16.788V14.4456C93.1649 13.7988 93.0879 13.1943 92.9352 12.6337ZM90.1289 20.1142C89.1678 20.5101 88.2746 20.7066 87.451 20.7066C86.4385 20.7066 85.6466 20.5434 85.0724 20.2154C84.4135 19.8376 84.084 19.144 84.084 18.136C84.084 17.128 84.412 16.4616 85.0663 16.1337C85.5469 15.8994 86.3418 15.7831 87.451 15.7831H90.1289V20.1142Z" fill="#DD1D18"/>
<path d="M55.584 30.9557H3.08288C2.43155 30.9557 1.84217 30.6898 1.41148 30.2606C0.980779 29.8299 0.716316 29.239 0.716316 28.5892V3.08288C0.716316 2.43155 0.98229 1.84217 1.41148 1.41148C1.84217 0.980779 2.43306 0.716316 3.08288 0.716316H63.4439C64.0952 0.716316 64.6846 0.98229 65.1153 1.41148C65.546 1.84217 65.8104 2.43306 65.8104 3.08288V5.05653H66.5252V3.08288C66.5252 2.23509 66.1777 1.46286 65.62 0.905218C65.0639 0.34758 64.2917 0 63.4439 0H3.08288C2.23509 0 1.46286 0.34758 0.905218 0.905218C0.34758 1.46286 0 2.23509 0 3.08288V28.5877C0 29.4355 0.34758 30.2077 0.905218 30.7653C1.46286 31.323 2.23509 31.6706 3.08288 31.6706H55.584V30.9557Z" fill="#DD1D18"/>
<path d="M18.7089 14.6983C18.591 12.9937 17.9941 11.5852 16.9105 10.479C16.3196 9.87602 15.6335 9.41207 14.8507 9.08867C14.0392 8.74865 13.1718 8.57788 12.2484 8.57788C10.9775 8.57788 9.77606 8.77283 8.64567 9.16423C8.60789 9.17783 8.57162 9.19446 8.53384 9.20806V8.87559H5.76226V10.7767V15.1018V23.4981H8.7983V22.5476V19.2758V15.3073V12.3725C9.69596 11.7514 10.846 11.4416 12.2484 11.4416C13.2307 11.4416 14.0558 11.7862 14.7223 12.4753C15.2754 13.0465 15.5912 13.9941 15.6743 15.3103H15.6985V22.543V23.4996H18.7345V14.6983H18.7089Z" fill="#DD1D18"/>
</svg>
