<svg width="82" height="24" viewBox="0 0 82 24" fill="none" xmlns="http://www.w3.org/2000/svg">
<path d="M20.9635 17.6153C20.2427 17.6153 19.5626 17.4873 18.9211 17.2334C18.3057 16.9908 17.765 16.6451 17.3003 16.1952C16.8447 15.7486 16.4933 15.2341 16.2485 14.6503C15.9969 14.0508 15.8711 13.1747 15.8711 12.0197C15.8711 10.8648 15.9969 9.98864 16.2485 9.38907C16.4933 8.80536 16.8447 8.2908 17.3003 7.84423C18.2819 6.89784 19.5037 6.42407 20.9635 6.42407C21.6843 6.42407 22.3644 6.55215 23.0059 6.80716C23.6247 7.04971 24.1552 7.38747 24.5983 7.82043C25.0732 8.28286 25.4337 8.80536 25.6796 9.38907C25.9312 9.98864 26.057 10.8648 26.057 12.0197C26.057 13.1735 25.9312 14.0508 25.6796 14.6503C25.4337 15.2341 25.0732 15.7566 24.5983 16.219C23.6383 17.1495 22.4279 17.6153 20.9635 17.6153ZM18.0563 12.0197C18.0563 13.3685 18.3669 14.299 18.9891 14.8124C19.5377 15.2624 20.1962 15.4868 20.9646 15.4868C21.8 15.4868 22.4868 15.2363 23.0263 14.7354C23.5941 14.2129 23.8775 13.3073 23.8775 12.0186C23.8775 10.7299 23.5941 9.82656 23.0263 9.30633C22.4879 8.8031 21.8 8.55035 20.9646 8.55035C20.1962 8.55035 19.5377 8.77476 18.9891 9.22472C18.3669 9.74042 18.0563 10.671 18.0563 12.0197Z" fill="#A1ADBA"/>
<path d="M37.349 6.64746L33.0443 17.6461H30.8398L26.5352 6.64746H29.1137L31.9449 14.2368L34.7705 6.64746H37.349Z" fill="#A1ADBA"/>
<path d="M81.3205 6.75854L74.2333 24H71.7988L74.6776 17.0601L70.5078 6.75854H72.9424L75.9119 14.0951L78.8916 6.75854H81.3205Z" fill="#A1ADBA"/>
<path d="M46.8283 9.47531C46.6844 8.92334 46.452 8.44731 46.1302 8.04495C45.2824 6.96708 43.9721 6.42871 42.1995 6.42871C40.9459 6.42871 39.8103 6.55452 38.7891 6.80614V9.00155C39.8125 8.67966 40.9493 8.51872 42.1995 8.51872C42.7923 8.51872 43.3046 8.62186 43.7341 8.82927C44.1263 9.02082 44.4017 9.3257 44.5615 9.7428H42.7152C41.3381 9.7428 40.1888 10.0851 39.2674 10.7708C38.8344 11.0995 38.5012 11.4769 38.2677 11.9042C38.0319 12.3349 37.9141 12.9265 37.9141 13.6791C37.9141 14.4317 38.0319 15.0245 38.2677 15.4586C38.5 15.8893 38.8333 16.2656 39.2674 16.5875C40.1888 17.2788 41.3381 17.6245 42.7152 17.6245C43.5199 17.6245 44.2532 17.5248 44.9219 17.3332V17.5576H46.9995V16.2667V12.5911V10.8343C47.0006 10.3492 46.9428 9.89581 46.8283 9.47531ZM44.7236 15.0857C44.0027 15.3826 43.334 15.53 42.7152 15.53C41.9558 15.53 41.3619 15.4076 40.9312 15.1616C40.437 14.8783 40.1899 14.358 40.1899 13.6021C40.1899 12.8461 40.4359 12.3462 40.9267 12.1003C41.2871 11.9246 41.8833 11.8373 42.7152 11.8373H44.7236V15.0857Z" fill="#A1ADBA"/>
<path d="M57.4811 7.85918C57.038 7.40695 56.5234 7.05899 55.9363 6.81644C55.3276 6.56142 54.6771 6.43335 53.9857 6.43335C53.0325 6.43335 52.1314 6.57956 51.2836 6.87311C51.2553 6.88331 51.2281 6.89578 51.1998 6.90598V6.65663H49.1211V8.08246V11.3263V23.9468H51.3981V16.9117C52.1122 17.3809 52.9747 17.6144 53.9857 17.6144C54.6771 17.6144 55.3276 17.4886 55.9363 17.237C56.5234 16.9911 57.038 16.6442 57.4811 16.1943C57.9175 15.7443 58.2507 15.2343 58.4808 14.6642C58.7256 14.0487 58.8491 12.9935 58.8491 11.4986C58.8491 10.0036 58.3935 8.78971 57.4811 7.85918ZM55.8411 14.6936C55.3401 15.2105 54.7224 15.4689 53.9857 15.4689C53.4246 15.4689 52.9497 15.3839 52.5599 15.215C52.2606 15.0881 51.873 14.8353 51.3981 14.459V9.27934C52.0714 8.81351 52.9339 8.58116 53.9857 8.58116C54.7224 8.58116 55.3412 8.83958 55.8411 9.35528C56.3284 9.85851 56.5733 10.7482 56.5733 12.0245C56.5733 13.3007 56.3296 14.1893 55.8411 14.6936Z" fill="#A1ADBA"/>
<path d="M69.7033 9.47531C69.5594 8.92334 69.327 8.44731 69.0052 8.04495C68.1574 6.96708 66.8471 6.42871 65.0745 6.42871C63.8209 6.42871 62.6853 6.55452 61.6641 6.80614V9.00155C62.6875 8.67966 63.8243 8.51872 65.0745 8.51872C65.6673 8.51872 66.1796 8.62186 66.6091 8.82927C67.0013 9.02082 67.2767 9.3257 67.4365 9.7428H65.5902C64.2131 9.7428 63.0638 10.0851 62.1424 10.7708C61.7094 11.0995 61.3762 11.4769 61.1427 11.9042C60.9069 12.3349 60.7891 12.9265 60.7891 13.6791C60.7891 14.4317 60.9069 15.0245 61.1427 15.4586C61.375 15.8893 61.7083 16.2656 62.1424 16.5875C63.0638 17.2788 64.2131 17.6245 65.5902 17.6245C66.3949 17.6245 67.1282 17.5248 67.7969 17.3332V17.5576H69.8745V16.2667V12.5911V10.8343C69.8756 10.3492 69.8178 9.89581 69.7033 9.47531ZM67.5986 15.0857C66.8777 15.3826 66.2079 15.53 65.5902 15.53C64.8308 15.53 64.2369 15.4076 63.8062 15.1616C63.312 14.8783 63.065 14.358 63.065 13.6021C63.065 12.8461 63.3109 12.3462 63.8017 12.1003C64.1621 11.9246 64.7583 11.8373 65.5902 11.8373H67.5986V15.0857Z" fill="#A1ADBA"/>
<path d="M41.6879 23.2167H2.31215C1.82365 23.2167 1.38163 23.0173 1.0586 22.6954C0.735582 22.3724 0.537236 21.9292 0.537236 21.4418V2.31215C0.537236 1.82365 0.736716 1.38163 1.0586 1.0586C1.38163 0.735582 1.82479 0.537236 2.31215 0.537236H47.5828C48.0713 0.537236 48.5133 0.736716 48.8363 1.0586C49.1593 1.38163 49.3577 1.82479 49.3577 2.31215V3.79239H49.8938V2.31215C49.8938 1.67631 49.6331 1.09714 49.2149 0.678912C48.7978 0.260684 48.2186 0 47.5828 0H2.31215C1.67631 0 1.09714 0.260684 0.678912 0.678912C0.260684 1.09714 0 1.67631 0 2.31215V21.4407C0 22.0765 0.260684 22.6557 0.678912 23.0739C1.09714 23.4922 1.67631 23.7528 2.31215 23.7528H41.6879V23.2167Z" fill="#A1ADBA"/>
<path d="M14.0302 11.0237C13.9418 9.74517 13.4941 8.68883 12.6815 7.85918C12.2383 7.40695 11.7237 7.05899 11.1366 6.81644C10.528 6.56142 9.87742 6.43335 9.18491 6.43335C8.23171 6.43335 7.33065 6.57956 6.48286 6.87311C6.45452 6.88331 6.42732 6.89578 6.39898 6.90598V6.65663H4.32031V8.08246V11.3263V17.6235H6.59733V16.9106V14.4567V11.4804V9.27934C7.27058 8.81351 8.1331 8.58116 9.18491 8.58116C9.92162 8.58116 10.5405 8.83958 11.0403 9.35641C11.4551 9.78484 11.692 10.4955 11.7543 11.4827H11.7725V16.9072V17.6246H14.0495V11.0237H14.0302Z" fill="#A1ADBA"/>
</svg>
