<svg width="18" height="14" viewBox="0 0 18 14" fill="none" xmlns="http://www.w3.org/2000/svg">
<path d="M0.375092 1.06214C2.84552 3.09092 7.18036 6.66017 8.45442 7.77307C8.62545 7.92327 8.8089 7.99964 8.99934 7.99964C9.1894 7.99964 9.37253 7.92399 9.54317 7.7745C10.8183 6.66051 15.1532 3.09092 17.6236 1.06214C17.7774 0.936068 17.8009 0.714477 17.6764 0.560352C17.3885 0.204204 16.9593 0 16.4993 0H1.49935C1.0394 0 0.610182 0.204205 0.322358 0.560386C0.197834 0.714477 0.221284 0.936068 0.375092 1.06214Z" fill="#B6BFCD"/>
<path d="M17.7825 2.16183C17.6496 2.10183 17.4932 2.12276 17.3826 2.2144C14.6429 4.46651 11.1464 7.35326 10.0463 8.31453C9.4288 8.855 8.57187 8.855 7.95298 8.31381C6.78037 7.28931 2.85384 4.05245 0.617414 2.21437C0.506074 2.12273 0.349348 2.10251 0.217512 2.1618C0.0849726 2.22149 0 2.35005 0 2.49173V11.6366C0 12.4388 0.672715 13.0912 1.50001 13.0912H16.5C17.3273 13.0912 18 12.4388 18 11.6366V2.49173C18 2.35005 17.915 2.22115 17.7825 2.16183Z" fill="#B6BFCD"/>
</svg>
