<svg width="46" height="46" viewBox="0 0 46 46" fill="none" xmlns="http://www.w3.org/2000/svg">
<path d="M11.3137 33.9411C5.06532 27.6928 5.06532 17.5621 11.3137 11.3137C17.5621 5.06534 27.6927 5.06535 33.9411 11.3137C40.1895 17.5621 40.1895 27.6928 33.9411 33.9412L22.6274 45.2549L11.3137 33.9411Z" fill="#DD1D18"/>
<path d="M11.6673 33.5876C5.61414 27.5345 5.61414 17.7204 11.6673 11.6673C17.7204 5.61416 27.5344 5.61416 33.5876 11.6673C39.6407 17.7204 39.6407 27.5345 33.5876 33.5876L22.6274 44.5477L11.6673 33.5876Z" stroke="white"/>
<path fill-rule="evenodd" clip-rule="evenodd" d="M17.5091 31.0905H26.2827V31.8251H17.5091C16.5023 31.824 15.6848 31.0064 15.6836 29.9996V16.3533C15.6848 15.3466 16.5023 14.529 17.5091 14.5278H27.8735C28.8802 14.529 29.6978 15.3466 29.699 16.3533V17.4092H28.9643V16.3533C28.9632 16.0543 28.8417 15.7834 28.6431 15.5837C28.4434 15.3839 28.1725 15.2625 27.8735 15.2625H17.5091C17.2101 15.2636 16.9391 15.3851 16.7394 15.5837C16.5397 15.7834 16.4182 16.0543 16.4182 16.3533V30.0008C16.4194 30.301 16.5409 30.5708 16.7394 30.7705C16.9391 30.969 17.2089 31.0905 17.5091 31.0905ZM25.6287 20.3109C26.208 20.903 26.528 21.6564 26.591 22.5685H26.6039V27.2789H24.9793V26.7673V22.8967H24.9664C24.9221 22.1925 24.7527 21.6856 24.4572 21.3796C24.101 21.0117 23.6595 20.8271 23.1339 20.8271C22.3829 20.8271 21.7674 20.993 21.2874 21.3247V22.8956V25.0201V26.7696V27.2777H19.664V22.7858V20.4709V19.4536H21.1461V19.6312L21.2056 19.6078C21.8118 19.3987 22.4542 19.2936 23.1339 19.2936C23.628 19.2936 24.0916 19.3847 24.5261 19.5669C24.9454 19.7398 25.3121 19.9885 25.6287 20.3109Z" fill="white"/>
</svg>
