<svg width="241" height="30" viewBox="0 0 241 30" fill="none" xmlns="http://www.w3.org/2000/svg">
<path d="M107.728 5.6626L100.332 24.3375H106.064L107.266 20.9168H114.754L115.956 24.3375H121.78L114.384 5.6626H107.728ZM108.745 16.7566L110.871 10.6549H111.241L113.367 16.7566H108.745Z" fill="#DA291C"/>
<path d="M220.794 10.6549V5.6626H202.674V10.6549H209.053V24.3375H214.415V10.6549H220.794Z" fill="#DA291C"/>
<path d="M194.816 19.4376H189.731V5.6626H184.369V19.4376H179.284V5.6626H173.922V24.3375H176.51H179.284H194.816H198.051H200.085V5.6626H194.816V19.4376Z" fill="#DA291C"/>
<path d="M161.719 5.38525C156.08 5.38525 152.012 9.45305 152.012 15C152.012 20.547 156.08 24.6148 161.719 24.6148C167.358 24.6148 171.426 20.547 171.426 15C171.426 9.45305 167.358 5.38525 161.719 5.38525ZM161.719 19.4376C159.223 19.4376 157.281 17.5886 157.281 15C157.281 12.4114 159.13 10.5624 161.719 10.5624C164.215 10.5624 166.157 12.4114 166.157 15C166.157 17.5886 164.215 19.4376 161.719 19.4376Z" fill="#DA291C"/>
<path d="M147.295 5.6626H145.909H144.152H137.496H134.537H133.428H132.226H129.545V10.5624H132.226V24.3375H137.588V10.6549H144.244V24.4299H149.607V7.78895C149.422 6.49465 148.59 5.6626 147.295 5.6626Z" fill="#DA291C"/>
<path d="M96.8174 14.4453C98.1117 13.6132 98.9437 12.2265 98.9437 10.5624C98.9437 7.69642 97.0947 5.57007 93.3967 5.57007H82.8574V24.245H93.3967C97.2796 24.245 99.5909 21.9337 99.5909 18.8829C99.5909 16.9414 98.4815 15.3698 96.8174 14.4453ZM87.8497 9.82276H91.8251C93.1194 9.82276 93.7665 10.4699 93.7665 11.4869C93.7665 12.5038 93.0269 13.151 91.8251 13.151H87.8497V9.82276ZM92.1949 20.2696H87.8497V16.7565H92.1949C93.4892 16.7565 94.3212 17.4037 94.3212 18.5131C94.2288 19.6225 93.4892 20.2696 92.1949 20.2696Z" fill="#DA291C"/>
<path d="M234.753 24.3375H240.577L233.181 5.6626H226.525L219.129 24.3375H224.861L226.063 20.9168H233.551L234.753 24.3375ZM227.542 16.7566L229.668 10.6549H230.038L232.164 16.7566H227.542Z" fill="#DA291C"/>
<path d="M70.5627 5.38525C64.9233 5.38525 60.8555 9.45305 60.8555 15C60.8555 20.547 64.9233 24.6148 70.5627 24.6148C76.2022 24.6148 80.27 20.547 80.27 15C80.27 9.45305 76.2022 5.38525 70.5627 5.38525ZM70.5627 19.4376C68.0666 19.4376 66.1251 17.5886 66.1251 15C66.1251 12.4114 67.9741 10.5624 70.5627 10.5624C73.0589 10.5624 75.0003 12.4114 75.0003 15C75.0003 17.5886 73.1513 19.4376 70.5627 19.4376Z" fill="#DA291C"/>
<path d="M52.9964 12.5039H46.34V7.78895C46.34 6.5871 45.4155 5.6626 44.2137 5.6626H42.1798H40.9779H38.2969V10.5624H40.9779V24.3375H46.34V17.5886H52.9964V24.4299H58.2661V5.6626H52.904V12.5039H52.9964Z" fill="#DA291C"/>
<path d="M17.681 24.3374V18.1433H12.4114V24.3374H8.3436L13.2434 29.2373C14.2604 30.2542 15.832 30.2542 16.849 29.2373L21.7488 24.3374H17.681ZM5.66256 21.7488V8.34361L0.762712 13.2435C-0.254237 14.2604 -0.254237 15.832 0.762712 16.849L5.66256 21.7488ZM12.4114 5.66256V11.8567H17.681V5.66256H21.7488L16.849 0.762712C15.832 -0.254237 14.2604 -0.254237 13.2434 0.762712L8.3436 5.66256H12.4114ZM29.3297 13.2435L24.3374 8.34361V21.7488L29.2373 16.849C30.2542 15.832 30.2542 14.2604 29.3297 13.2435Z" fill="#DA291C"/>
</svg>
