<svg width="24" height="24" viewBox="0 0 24 24" fill="none" xmlns="http://www.w3.org/2000/svg">
<path d="M4.44245 12.6913H13V4.25841H13.8329C19.0184 4.25841 23.2225 8.45363 23.2225 13.6288C23.2225 18.8041 19.0183 23 13.8329 23C8.64764 23 4.44245 18.8035 4.44245 13.6288V12.6913ZM11.6324 11.6104H1L1.00023 10.3709C1.00118 5.19619 5.20569 1 10.3906 1H11.6324V11.6104ZM3.59543 9.13199H9.14883V3.58971C6.33072 4.10066 4.10782 6.31918 3.59543 9.13199ZM20.4403 15.2671C20.4403 14.7512 20.3043 14.3431 20.0322 14.0428C19.7602 13.7424 19.4386 13.5234 19.0676 13.3856C18.6966 13.2478 18.2285 13.1188 17.6632 12.9987C17.1614 12.8927 16.7975 12.7902 16.5714 12.6913C16.3452 12.5923 16.2322 12.4439 16.2322 12.2461C16.2322 12.0482 16.3276 11.8875 16.5184 11.7638C16.7092 11.6402 17.0131 11.5783 17.43 11.5783C18.0093 11.5783 18.6047 11.7234 19.2162 12.0136C19.241 12.0254 19.271 12.0402 19.3063 12.0579C19.3104 12.06 19.3146 12.0619 19.3188 12.0636C19.4148 12.1034 19.5248 12.058 19.5646 11.962L20.0458 10.8026C20.096 10.6814 20.045 10.542 19.9284 10.482C19.9051 10.4699 19.8842 10.4595 19.8657 10.4506C19.6446 10.3443 19.4033 10.2538 19.1418 10.1791C18.7708 10.0731 18.384 10.0025 17.9812 9.96712V9.24877C17.9812 8.89752 17.6964 8.61283 17.3452 8.61283C16.9939 8.61283 16.7092 8.89752 16.7092 9.24877V9.9883C15.8824 10.0872 15.2499 10.354 14.8118 10.7886C14.3737 11.2232 14.1546 11.7444 14.1546 12.3521C14.1546 12.868 14.2889 13.2778 14.5574 13.5817C14.8259 13.8856 15.1474 14.1064 15.522 14.2442C15.8965 14.382 16.3629 14.5109 16.9212 14.6311C17.43 14.7441 17.7992 14.8519 18.0289 14.9543C18.2585 15.0568 18.3733 15.2141 18.3733 15.4261C18.3733 15.8289 17.9706 16.0302 17.165 16.0302C16.741 16.0302 16.3099 15.9631 15.8718 15.8288C15.5953 15.7441 15.34 15.6425 15.1058 15.5241C15.0897 15.516 15.0725 15.507 15.0542 15.4971C15.0463 15.4929 15.0382 15.4889 15.03 15.4852C14.8472 15.4038 14.633 15.4861 14.5517 15.6689L14.207 16.4431C14.2039 16.45 14.2006 16.4573 14.1972 16.465C14.0957 16.693 14.1915 16.9605 14.4146 17.0723C14.6462 17.1884 14.9094 17.2916 15.204 17.3818C15.6775 17.5266 16.1792 17.6167 16.7092 17.652V18.3598C16.7092 18.711 16.9939 18.9957 17.3452 18.9957C17.6964 18.9957 17.9812 18.711 17.9812 18.3598V17.6096C18.7797 17.4895 19.3892 17.2156 19.8096 16.7881C20.2301 16.3606 20.4403 15.8536 20.4403 15.2671Z" fill="#DD1D18"/>
</svg>
