<svg width="24" height="24" viewBox="0 0 24 24" fill="none" xmlns="http://www.w3.org/2000/svg">
<path d="M17.5 13.2719C18.0844 12.5156 19.0812 12 20.25 12C21.3844 12 22.3813 12.4812 23 13.2031C22.725 7.6 18.2906 3.09687 12.6875 2.75312V1.6875C12.6875 1.30937 12.3781 1 12 1C11.6219 1 11.3125 1.30937 11.3125 1.6875V2.75312C5.70938 3.09687 1.275 7.6 1 13.2031C1.61875 12.4812 2.61563 12 3.75 12C4.91875 12 5.91563 12.5156 6.5 13.2719C7.08437 12.5156 8.15 12 9.31875 12C10.4187 12 11.4156 12.4469 12 13.1344C12.5844 12.4469 13.5813 12 14.6812 12C15.85 12 16.9156 12.5156 17.5 13.2719Z" fill="#DD1D18"/>
<path d="M8.21875 19.5625V20.7656C8.21875 22.0031 9.21563 23 10.4531 23C11.6906 23 12.6875 22.0031 12.6875 20.7656V13.7188H11.3125V20.7656C11.3125 21.2469 10.9344 21.625 10.4531 21.625C9.97187 21.625 9.59375 21.2469 9.59375 20.7656V19.5625H8.21875Z" fill="#DD1D18"/>
</svg>
