<svg width="24" height="24" viewBox="0 0 24 24" fill="none" xmlns="http://www.w3.org/2000/svg">
<path fill-rule="evenodd" clip-rule="evenodd" d="M3 5.72815V14.0292C3 16.0723 3.86508 17.8024 5.35596 19.2933C6.79162 20.7106 8.81627 21.907 11.2459 22.9377C11.4299 23.0113 11.6692 23.0297 11.8717 22.9377C14.3012 21.907 16.3259 20.7106 17.7431 19.2933C19.2524 17.8024 20.1175 16.0723 20.1175 14.0292V5.72815C20.1175 5.43366 19.9519 5.13916 19.6574 4.99192L11.9269 1.08986C11.706 0.979426 11.4299 0.96102 11.1906 1.08986L3.49696 4.97351C3.20247 5.08395 3 5.37844 3 5.72815Z" fill="#DD1D18"/>
<path fill-rule="evenodd" clip-rule="evenodd" d="M12.7848 15.1646C12.7848 14.4525 12.2117 13.8794 11.4996 13.8794C10.7876 13.8794 10.1971 14.4525 10.1971 15.1646C10.1971 15.8767 10.7876 16.4671 11.4996 16.4671C12.2117 16.4671 12.7848 15.8767 12.7848 15.1646ZM11.4996 12.5768C11.0307 12.5768 10.6834 12.1948 10.6313 11.7085L10.1971 7.83552C10.1276 7.15819 10.8397 6.53296 11.4996 6.53296C12.1596 6.53296 12.8717 7.15819 12.7848 7.83552L12.368 11.7085C12.3159 12.1948 11.9686 12.5768 11.4996 12.5768Z" fill="white"/>
</svg>
