<svg width="24" height="24" viewBox="0 0 24 24" fill="none" xmlns="http://www.w3.org/2000/svg">
<path d="M15.0973 1H9.60225C4.85178 1 1 4.85103 1 9.602C1 12.8683 2.82064 15.7096 5.50277 17.1657C5.52833 17.1793 5.57184 17.2228 5.57184 17.2228L5.56678 23L12.7641 18.2032H15.0976C19.848 18.2032 23.6986 14.3527 23.6986 9.60225C23.6983 4.85103 19.848 1 15.0973 1ZM6.75263 11.4558C5.72264 11.4558 4.88695 10.6206 4.88695 9.59011C4.88695 8.56037 5.72264 7.72519 6.75263 7.72519C7.78287 7.72519 8.61729 8.56037 8.61729 9.59011C8.61729 10.6206 7.78287 11.4558 6.75263 11.4558ZM12.3499 11.4558C11.3199 11.4558 10.484 10.6206 10.484 9.59011C10.484 8.56037 11.3199 7.72519 12.3499 7.72519C13.3796 7.72519 14.2143 8.56037 14.2143 9.59011C14.2143 10.6206 13.3796 11.4558 12.3499 11.4558ZM17.9469 11.4558C16.9169 11.4558 16.0813 10.6206 16.0813 9.59011C16.0813 8.56037 16.9169 7.72519 17.9469 7.72519C18.9772 7.72519 19.8114 8.56037 19.8114 9.59011C19.8114 10.6206 18.9772 11.4558 17.9469 11.4558Z" fill="#DD1D18"/>
</svg>
