<svg width="24" height="24" viewBox="0 0 24 24" fill="none" xmlns="http://www.w3.org/2000/svg">
<path d="M22.5 7.9043V6.79688C22.5 5.52834 21.4717 4.5 20.2031 4.5H3.79688C2.52834 4.5 1.5 5.52834 1.5 6.79688V7.9043C1.5 8.01754 1.59183 8.10938 1.70508 8.10938H22.2949C22.4082 8.10938 22.5 8.01754 22.5 7.9043Z" fill="#DD1D18"/>
<path d="M1.5 9.62695V16.6406C1.5 17.9092 2.52834 18.9375 3.79688 18.9375H20.2031C21.4717 18.9375 22.5 17.9092 22.5 16.6406V9.62695C22.5 9.51371 22.4082 9.42188 22.2949 9.42188H1.70508C1.59183 9.42188 1.5 9.51371 1.5 9.62695ZM6.75 15C6.75 15.3624 6.45616 15.6562 6.09375 15.6562H5.4375C5.07509 15.6562 4.78125 15.3624 4.78125 15V14.3438C4.78125 13.9813 5.07509 13.6875 5.4375 13.6875H6.09375C6.45616 13.6875 6.75 13.9813 6.75 14.3438V15Z" fill="#DD1D18"/>
</svg>
