<svg width="24" height="24" viewBox="0 0 24 24" fill="none" xmlns="http://www.w3.org/2000/svg">
<path d="M11.7692 1C8.32956 1 5 3.66863 5 7.44313C5 12.3406 8.66667 13.3662 8.66667 16.7949H14.8718C14.8718 13.3662 18.5385 12.3406 18.5385 7.44313C18.5385 3.66863 15.2089 1 11.7692 1ZM10.0329 2.70994C10.0358 2.70991 10.0387 2.70991 10.0416 2.70994C10.0563 2.70936 10.071 2.70936 10.0857 2.70994C10.2177 2.71056 10.3454 2.7575 10.4464 2.84258C10.5474 2.92766 10.6154 3.04548 10.6385 3.17552C10.6616 3.30556 10.6383 3.43957 10.5727 3.55421C10.5071 3.66885 10.4034 3.75686 10.2796 3.80288C8.90511 4.32115 7.87221 5.53824 7.60892 7.02005C7.58203 7.16732 7.49775 7.29788 7.3746 7.38301C7.25145 7.46814 7.09953 7.50084 6.95226 7.47396C6.80499 7.44707 6.67443 7.36279 6.5893 7.23964C6.50418 7.1165 6.47146 6.96458 6.49834 6.81731C6.8317 4.9413 8.13077 3.41144 9.87413 2.75401C9.92458 2.73163 9.9781 2.71679 10.0329 2.70994ZM8.66667 17.9231V19.0513H14.8718V17.9231H8.66667ZM8.66667 20.1795C8.66667 20.8277 9.1996 21.3077 9.79487 21.3077H13.7436C14.3389 21.3077 14.8718 20.8277 14.8718 20.1795H8.66667ZM10.641 21.8718C10.641 22.4968 11.1442 23 11.7692 23C12.3943 23 12.8974 22.4968 12.8974 21.8718H10.641Z" fill="#DD1D18"/>
</svg>
