<svg width="24" height="24" viewBox="0 0 24 24" fill="none" xmlns="http://www.w3.org/2000/svg">
<path fill-rule="evenodd" clip-rule="evenodd" d="M7.97106 1H15.1158C16.7428 1 18.0868 2.34405 18.0868 3.97106V20.0289C18.0868 21.6559 16.7428 23 15.1158 23H7.97106C6.34405 23 5 21.6559 5 20.0289V3.97106C5 2.34405 6.34405 1 7.97106 1ZM11.5788 20.0289C12.074 20.0289 12.5691 20.4534 12.5691 21.0193C12.5691 21.5852 12.074 22.0804 11.5788 22.0804C11.0129 22.0804 10.5884 21.5852 10.5884 21.0193C10.5884 20.4534 11.0129 20.0289 11.5788 20.0289ZM6.76849 3.26367H16.3183V18.8971H6.76849V3.26367Z" fill="#DD1D18"/>
</svg>
