<svg width="24" height="24" viewBox="0 0 24 24" fill="none" xmlns="http://www.w3.org/2000/svg">
<path fill-rule="evenodd" clip-rule="evenodd" d="M12 23C18.0751 23 23 18.0751 23 12C23 5.92487 18.0751 1 12 1C5.92487 1 1 5.92487 1 12C1 18.0751 5.92487 23 12 23ZM10.4615 8.73077C10.4615 7.76923 9.69231 7 8.73077 7C7.76923 7 7 7.76923 7 8.73077C7 9.69231 7.76923 10.4615 8.73077 10.4615C9.69231 10.4615 10.4615 9.69231 10.4615 8.73077ZM8.46154 16.5385C8.73077 16.5385 9 16.4231 9.19231 16.2308L16.2308 9.15385C16.6154 8.76923 16.6154 8.11539 16.2308 7.73077C15.8462 7.34615 15.1923 7.34615 14.8077 7.73077L7.73077 14.8077C7.34615 15.1923 7.34615 15.8462 7.73077 16.2308C7.96154 16.4231 8.19231 16.5385 8.46154 16.5385ZM13.5385 15.2692C13.5385 16.2308 14.3077 17 15.2692 17C16.2308 17 17 16.2308 17 15.2692C17 14.3077 16.2308 13.5385 15.2692 13.5385C14.3077 13.5385 13.5385 14.3077 13.5385 15.2692Z" fill="#DD1D18"/>
</svg>
