<svg width="24" height="24" viewBox="0 0 24 24" fill="none" xmlns="http://www.w3.org/2000/svg">
<path fill-rule="evenodd" clip-rule="evenodd" d="M11.9995 3C15.6698 4.98087 19.3336 6.97499 23 8.96314L21.9706 9.52109V16.4432C22.2145 16.6126 22.3743 16.8947 22.3743 17.2142C22.3743 17.7321 21.9545 18.1519 21.4365 18.1519C20.9186 18.1519 20.4988 17.7321 20.4988 17.2142C20.4988 16.9123 20.6414 16.6438 20.863 16.4723V10.1214L11.9995 14.9263C8.33619 12.9332 4.66667 10.95 1 8.96314L11.9995 3ZM5.19422 12.8184L12 16.336L19.3479 12.5381V17.15C16.8976 18.4137 14.4474 19.6784 12 20.9479C9.55261 19.6784 7.10211 18.4137 4.65186 17.15V12.5381L5.19422 12.8184Z" fill="#DD1D18"/>
</svg>
