<svg width="24" height="24" viewBox="0 0 24 24" fill="none" xmlns="http://www.w3.org/2000/svg">
<path d="M22.834 17.3883V20.65C22.8352 20.9528 22.7731 21.2525 22.6515 21.5299C22.53 21.8074 22.3517 22.0564 22.1281 22.2611C21.9046 22.4658 21.6406 22.6217 21.3532 22.7187C21.0658 22.8157 20.7613 22.8517 20.4591 22.8245C17.1068 22.4609 13.8868 21.3177 11.0576 19.4867C8.42545 17.8174 6.19384 15.5902 4.52125 12.9632C2.68015 10.1269 1.5344 6.89755 1.17681 3.53691C1.14959 3.23625 1.18539 2.93323 1.28194 2.64714C1.37849 2.36105 1.53366 2.09815 1.73759 1.8752C1.94152 1.65224 2.18974 1.4741 2.46643 1.35213C2.74312 1.23015 3.04223 1.16702 3.34471 1.16673H6.61289C7.14158 1.16154 7.65412 1.34839 8.05499 1.69245C8.45585 2.03651 8.71768 2.5143 8.79168 3.03678C8.92962 4.0806 9.18544 5.10549 9.55425 6.09191C9.70082 6.48106 9.73255 6.90398 9.64566 7.31057C9.55878 7.71716 9.35692 8.09037 9.06403 8.38598L7.6805 9.76677C9.23131 12.4887 11.4895 14.7424 14.2169 16.2902L15.6004 14.9094C15.8966 14.6171 16.2705 14.4156 16.6779 14.3289C17.0853 14.2422 17.5091 14.2739 17.899 14.4201C18.8874 14.7882 19.9143 15.0435 20.9602 15.1812C21.4894 15.2557 21.9727 15.5217 22.3182 15.9287C22.6637 16.3356 22.8472 16.8551 22.834 17.3883Z" fill="#B6BFCD" stroke="#B6BFCD" stroke-linecap="round" stroke-linejoin="round"/>
</svg>
