<svg width="52" height="52" viewBox="0 0 52 52" fill="none" xmlns="http://www.w3.org/2000/svg">
<rect width="52" height="52" rx="8" fill="#DA291C"/>
<path d="M28.8523 35.9599V29.3528H23.2335V35.9599H18.8963L24.1207 41.1864C25.205 42.2712 26.8808 42.2712 27.9651 41.1864L33.1895 35.9599H28.8523ZM16.0377 33.1988V18.8998L10.8132 24.1263C9.72892 25.2111 9.72892 26.8875 10.8132 27.9723L16.0377 33.1988ZM23.2335 16.0401V22.6471H28.8523V16.0401H33.1895L27.9651 10.8136C26.8808 9.72881 25.205 9.72881 24.1207 10.8136L18.8963 16.0401H23.2335ZM41.2726 24.1263L35.9496 18.8998V33.1988L41.174 27.9723C42.2583 26.8875 42.2583 25.2111 41.2726 24.1263Z" fill="white"/>
</svg>
