<svg width="32" height="32" viewBox="0 0 32 32" fill="none" xmlns="http://www.w3.org/2000/svg">
<g clip-path="url(#clip0)">
<path d="M19.9788 17.7094C19.844 17.7094 19.6755 17.7094 19.5407 17.7431C19.1699 16.5635 18.1925 15.6872 16.9792 15.4513C17.114 14.8446 17.3162 14.1031 17.5184 13.2942C20.4507 13.3616 23.6863 10.5304 23.6189 7.22744C23.5852 4.26147 21.5629 2.0707 18.8329 0.0484497C18.6644 -0.0863669 18.4285 0.0821539 18.4622 0.284379C19.1699 4.32888 15.2603 3.99184 13.7099 7.22744C12.7324 9.28339 13.9121 11.373 15.6647 12.4179C16.5747 10.2608 17.8892 8.07004 18.6644 6.62076C17.8892 8.71042 16.3725 13.0246 15.8332 15.4175C14.7547 15.5861 13.811 16.2602 13.3391 17.2376C12.9347 17.0691 12.4965 16.9679 12.0584 16.9679C10.4069 16.9679 9.0587 18.1476 8.78906 19.698H23.0459C22.5404 18.552 21.3607 17.7094 19.9788 17.7094Z" fill="#DD1D18"/>
<path d="M24.9999 20.8777H6.93451C6.32783 20.8777 5.88968 21.417 6.02449 22.0236L8.11415 31.2586C8.21527 31.6967 8.58601 32.0001 9.02417 32.0001H22.944C23.3821 32.0001 23.7529 31.6967 23.854 31.2586L25.9437 22.0236C26.0448 21.4507 25.6066 20.8777 24.9999 20.8777Z" fill="#DD1D18"/>
</g>
<defs>
<clipPath id="clip0">
<rect width="32" height="32" fill="white"/>
</clipPath>
</defs>
</svg>
