<svg width="32" height="32" viewBox="0 0 32 32" fill="none" xmlns="http://www.w3.org/2000/svg">
<path fill-rule="evenodd" clip-rule="evenodd" d="M16.3221 4.06045L28.6788 9.69486C28.8563 9.77598 29.0001 9.9988 29.0001 10.1928V12.7735H26.8928H26.5416V24.378C26.5416 24.5725 26.3843 24.7295 26.1901 24.7295H22.6762C22.482 24.7295 22.3249 24.5722 22.3249 24.378V12.7735H18.1088V24.378C18.1088 24.5725 17.9515 24.7295 17.7573 24.7295H14.2437C14.0497 24.7295 13.8924 24.5722 13.8924 24.378V12.7735H9.6763V24.378C9.6763 24.5725 9.519 24.7295 9.32479 24.7295H5.81144C5.61722 24.7295 5.45992 24.5722 5.45992 24.378V12.7735H3.00164V10.1928C3.00164 9.99854 3.14542 9.77598 3.323 9.69486L15.6794 4.06045C15.8567 3.97985 16.1445 3.97985 16.3221 4.06045ZM4.40529 28.5941H27.5945C28.3706 28.5941 28.9998 27.965 28.9995 27.1889C28.9995 26.413 28.3703 25.7836 27.5942 25.7836H4.40529C3.62919 25.7836 3 26.413 3 27.1889C3 27.965 3.62919 28.5941 4.40529 28.5941Z" fill="#DD1D18"/>
</svg>
