<svg width="32" height="32" viewBox="0 0 32 32" fill="none" xmlns="http://www.w3.org/2000/svg">
<path d="M29.4746 12.3188H21.1271L18.7119 6.89512C18.5 6.38664 17.7797 6.42901 17.5678 6.93749L17.0593 8.37817C16.8898 8.84427 16.8898 9.35274 17.1017 9.81884L18.161 12.3612H13.7966L17.1864 4.69173C17.3983 4.18325 17.1864 3.59003 16.678 3.33579L16.0847 3.08156C15.5763 2.86969 14.9831 3.08156 14.7288 3.59003L10.8729 12.3188H2.52542C1.67797 12.3188 1 12.9968 1 13.8443V14.0561C1 14.9036 1.67797 15.5816 2.52542 15.5816H2.90678L5.27966 27.9968C5.36441 28.5477 5.87288 28.929 6.42373 28.929H25.5763C26.1271 28.929 26.6356 28.5477 26.7203 27.9968L29.0932 15.5816H29.4746C30.322 15.5816 31 14.9036 31 14.0561V13.8443C31 12.9968 30.322 12.3188 29.4746 12.3188ZM11 24.4375C11 24.9883 10.5339 25.4544 9.98305 25.4544C9.4322 25.4544 8.9661 24.9883 8.9661 24.4375V18.8019C8.9661 18.251 9.4322 17.7849 9.98305 17.7849C10.5339 17.7849 11 18.251 11 18.8019V24.4375ZM17.017 24.4375C17.017 24.9883 16.5508 25.4544 16 25.4544C15.4492 25.4544 14.9831 24.9883 14.9831 24.4375V18.8019C14.9831 18.251 15.4492 17.7849 16 17.7849C16.5508 17.7849 17.017 18.251 17.017 18.8019V24.4375ZM23.0339 24.4375C23.0339 24.9883 22.5678 25.4544 22.0169 25.4544C21.4661 25.4544 21 24.9883 21 24.4375V18.8019C21 18.251 21.4661 17.7849 22.0169 17.7849C22.5678 17.7849 23.0339 18.251 23.0339 18.8019V24.4375Z" fill="#DD1D18"/>
</svg>
