<svg width="20" height="20" viewBox="0 0 20 20" fill="none" xmlns="http://www.w3.org/2000/svg">
<path d="M10 2.00005C5.121 2.00005 1 6.12105 1 11C1 15.879 5.121 20 10 20C14.879 20 19 15.879 19 11C19 6.12105 14.879 2.00005 10 2.00005ZM10 18C6.206 18 3 14.794 3 11C3 7.20605 6.206 4.00005 10 4.00005C13.794 4.00005 17 7.20605 17 11C17 14.794 13.794 18 10 18Z" fill="#B6BFCD"/>
<path d="M11 10V6.00005H9V12H15V10H11Z" fill="#B6BFCD"/>
<path d="M15.2839 1.70701L16.696 0.290771L19.7056 3.29167L18.2934 4.70791L15.2839 1.70701Z" fill="#B6BFCD"/>
<path d="M4.69792 1.70706L1.70761 4.70594L0.291375 3.29375L3.28168 0.294868L4.69792 1.70706Z" fill="#B6BFCD"/>
</svg>
