<svg width="20" height="16" viewBox="0 0 20 16" fill="none" xmlns="http://www.w3.org/2000/svg">
<path d="M19.6968 1.89525C19.1483 2.71111 18.4754 3.40659 17.678 3.98169C17.6859 4.13593 17.6899 4.31026 17.6899 4.50468C17.6899 5.58493 17.5324 6.66648 17.2174 7.74934C16.9024 8.8322 16.4212 9.8687 15.7739 10.8588C15.1266 11.8489 14.3556 12.7261 13.4608 13.4903C12.5659 14.2545 11.4903 14.8638 10.2339 15.3183C8.97752 15.7728 7.631 16 6.19435 16C3.95222 16 1.88743 15.3947 0 14.1841C0.334997 14.2214 0.656287 14.24 0.963871 14.24C2.83699 14.24 4.50999 13.6631 5.98286 12.5092C5.10951 12.4932 4.32735 12.2243 3.6364 11.7027C2.94544 11.181 2.46994 10.5144 2.2099 9.70285C2.46694 9.75181 2.72062 9.77629 2.97096 9.77629C3.3313 9.77629 3.68587 9.7293 4.03467 9.6353C3.10264 9.44864 2.32944 8.98442 1.71507 8.24266C1.10072 7.50092 0.793551 6.64479 0.793551 5.6743V5.62428C1.36564 5.94104 1.97585 6.10953 2.62421 6.12975C2.07208 5.76167 1.63432 5.28167 1.31094 4.68977C0.98754 4.09787 0.825839 3.45732 0.825839 2.76814C0.825839 2.04128 1.00798 1.36444 1.37225 0.737615C2.38582 1.98142 3.61397 2.97551 5.0567 3.71988C6.49945 4.46427 8.04725 4.87768 9.70009 4.96011C9.62959 4.66632 9.59428 4.35973 9.59415 4.04035C9.59415 2.92519 9.98879 1.97301 10.7781 1.18381C11.5673 0.394602 12.5196 0 13.6347 0C14.8022 0 15.7857 0.425125 16.585 1.27537C17.4982 1.09448 18.3533 0.767285 19.1503 0.293792C18.8433 1.26008 18.2516 2.00551 17.3754 2.53008C18.1807 2.43438 18.9545 2.22277 19.6968 1.89525H19.6968Z" fill="#4C5866"/>
</svg>
