<svg width="48" height="48" viewBox="0 0 48 48" fill="none" xmlns="http://www.w3.org/2000/svg">
<rect width="2.35294" height="11.7647" transform="matrix(-1 0 0 1 20.4688 6.35254)" fill="#DD1D18"/>
<rect width="2.35294" height="11.7647" transform="matrix(-1 0 0 1 22.8242 8.70605)" fill="#DD1D18"/>
<rect width="2.35294" height="11.7647" transform="matrix(-1 0 0 1 18.1172 4)" fill="#DD1D18"/>
<rect x="29.8828" y="18.1177" width="2.35294" height="11.7647" transform="rotate(-180 29.8828 18.1177)" fill="#AF1713"/>
<rect x="32.2344" y="15.7649" width="2.35294" height="11.7647" transform="rotate(-180 32.2344 15.7649)" fill="#AF1713"/>
<rect x="27.5312" y="20.4707" width="2.35294" height="11.7647" transform="rotate(-180 27.5312 20.4707)" fill="#AF1713"/>
<rect x="20.4688" y="41.6475" width="2.35294" height="11.7647" transform="rotate(-180 20.4688 41.6475)" fill="#AF1713"/>
<rect x="22.8242" y="39.2939" width="2.35294" height="11.7647" transform="rotate(-180 22.8242 39.2939)" fill="#AF1713"/>
<rect x="18.1172" y="44" width="2.35294" height="11.7647" transform="rotate(-180 18.1172 44)" fill="#AF1713"/>
<rect width="2.35294" height="11.7647" transform="matrix(-1 0 0 1 29.8828 29.8823)" fill="#DD1D18"/>
<rect width="2.35294" height="11.7647" transform="matrix(-1 0 0 1 32.2344 32.2351)" fill="#DD1D18"/>
<rect width="2.35294" height="11.7647" transform="matrix(-1 0 0 1 27.5312 27.5293)" fill="#DD1D18"/>
<rect width="2.35294" height="11.7647" transform="matrix(4.37114e-08 -1 -1 -4.37114e-08 41.6484 20.4707)" fill="#AF1713"/>
<rect width="2.35294" height="11.7647" transform="matrix(4.37114e-08 -1 -1 -4.37114e-08 39.293 22.8232)" fill="#AF1713"/>
<rect width="2.35294" height="11.7647" transform="matrix(4.37114e-08 -1 -1 -4.37114e-08 44 18.1182)" fill="#AF1713"/>
<rect x="29.8828" y="29.8816" width="2.35294" height="11.7647" transform="rotate(-90 29.8828 29.8816)" fill="#DD1D18"/>
<rect x="32.2344" y="32.2346" width="2.35294" height="11.7647" transform="rotate(-90 32.2344 32.2346)" fill="#DD1D18"/>
<rect x="27.5312" y="27.5288" width="2.35294" height="11.7647" transform="rotate(-90 27.5312 27.5288)" fill="#DD1D18"/>
<rect x="6.35156" y="20.4707" width="2.35294" height="11.7647" transform="rotate(-90 6.35156 20.4707)" fill="#DD1D18"/>
<rect x="8.70703" y="22.8232" width="2.35294" height="11.7647" transform="rotate(-90 8.70703 22.8232)" fill="#DD1D18"/>
<rect x="4" y="18.1182" width="2.35294" height="11.7647" transform="rotate(-90 4 18.1182)" fill="#DD1D18"/>
<rect width="2.35294" height="11.7647" transform="matrix(-4.37114e-08 -1 -1 4.37114e-08 18.1172 29.8816)" fill="#AF1713"/>
<rect width="2.35294" height="11.7647" transform="matrix(-4.37114e-08 -1 -1 4.37114e-08 15.7656 32.2346)" fill="#AF1713"/>
<rect width="2.35294" height="11.7647" transform="matrix(-4.37114e-08 -1 -1 4.37114e-08 20.4688 27.5288)" fill="#AF1713"/>
<rect x="22.8242" y="20.4707" width="2.35294" height="2.35294" fill="#DD1D18"/>
<rect x="22.8242" y="25.1768" width="2.35294" height="2.35294" fill="#DD1D18"/>
<rect x="20.4688" y="22.8232" width="2.35294" height="2.35294" fill="#DD1D18"/>
<rect x="25.1758" y="22.8232" width="2.35294" height="2.35294" fill="#DD1D18"/>
<rect x="36.0898" y="5.5" width="6.41177" height="6.41177" stroke="#AF1713" stroke-width="3"/>
<rect x="36.0898" y="36.0879" width="6.41177" height="6.41177" stroke="#DD1D18" stroke-width="3"/>
<rect x="5.5" y="36.0879" width="6.41177" height="6.41177" stroke="#AF1713" stroke-width="3"/>
<rect x="5.5" y="5.5" width="6.41177" height="6.41177" stroke="#DD1D18" stroke-width="3"/>
</svg>
