<svg width="48" height="48" viewBox="0 0 48 48" fill="none" xmlns="http://www.w3.org/2000/svg">
<circle cx="24" cy="24" r="20" fill="#AF1713"/>
<path d="M24 44C12.9543 44 4 35.0457 4 24C4 12.9543 12.9543 4 24 4C40.3636 4 39.4545 44 24 44Z" fill="#DD1D18"/>
<path d="M30.426 24.9662C30.6196 24.9445 30.7306 25.1834 30.7284 25.3614C30.7197 26.1843 30.5 27.0246 30.0758 27.8584C29.6734 28.6249 29.0969 29.337 28.4073 29.9189C27.0391 31.061 25.2205 31.7189 23.4172 31.7255C21.5812 31.7602 19.7474 31.1001 18.3922 29.9298C16.9848 28.7291 16.1277 27.0224 16.1016 25.3657C16.0994 25.1768 16.2256 24.9315 16.4366 24.9706C16.6106 25.001 16.752 25.2376 16.8804 25.344C17.0783 25.509 17.2828 25.6632 17.4938 25.8109C17.9136 26.1062 18.353 26.3711 18.8077 26.6121C20.4783 27.5023 22.3708 27.9821 24.2677 27.8171C25.475 27.7129 26.6475 27.3503 27.7243 26.7988C28.3704 26.4688 28.9838 26.0736 29.5603 25.6328C29.78 25.4656 30.1389 25.0183 30.4086 24.9662C30.4152 24.9662 30.4217 24.9662 30.426 24.9662Z" fill="white"/>
<path d="M17.7322 19.2994C17.7322 20.5696 17.1209 21.5988 16.3661 21.5988C15.6113 21.5966 15 20.5674 15 19.2994C15 18.0292 15.6113 17 16.3661 17C17.1209 17 17.7322 18.0292 17.7322 19.2994Z" fill="white"/>
<path d="M32.9593 20.0619C32.4351 18.7526 31.1821 17.9058 29.7703 17.9058C28.389 17.9058 27.1469 18.7265 26.6074 19.9967C26.503 20.2399 26.5857 20.5157 26.8032 20.6655C27.0229 20.8153 27.3079 20.7914 27.4993 20.6068C28.5282 19.6102 30.1532 18.8112 32.0609 20.6611C32.1675 20.7654 32.3067 20.8196 32.446 20.8196C32.5525 20.8196 32.6591 20.7892 32.7549 20.7241C32.9746 20.5786 33.0572 20.3072 32.9593 20.0619Z" fill="white"/>
<g clip-path="url(#clip0)">
<path d="M39.9062 1C38.4686 7.88138 33 9.5 33 9.5C33 9.5 38.4686 11.1186 39.9062 18C41.3439 11.1186 46.8125 9.5 46.8125 9.5C46.8125 9.5 41.3439 7.88138 39.9062 1Z" fill="#EE6663"/>
<path d="M39.9062 1C38.4686 7.88138 33 9.5 33 9.5C33 9.5 40.3396 10.5602 39.9062 1Z" fill="white"/>
</g>
<defs>
<clipPath id="clip0">
<rect width="13.8125" height="17" fill="white" transform="translate(33 1)"/>
</clipPath>
</defs>
</svg>
