<svg width="40" height="39" viewBox="0 0 40 39" fill="none" xmlns="http://www.w3.org/2000/svg">
<path d="M28.8788 0C25.0034 0 21.6153 2.07854 19.7576 5.17732C17.8998 2.07854 14.5193 0 10.644 0C4.76618 0 0 4.76618 0 10.644C0 24.3258 19.7652 38.0076 19.7652 38.0076C19.7652 38.0076 39.5227 24.3258 39.5227 10.644C39.5227 4.76618 34.7566 0 28.8788 0Z" fill="#DD1D18"/>
<path d="M28.879 0C25.0037 0 21.6156 2.07854 19.7578 5.17732V38C19.7578 38 39.5154 24.3182 39.5154 10.6363C39.523 4.76618 34.7568 0 28.879 0Z" fill="#AF1713"/>
</svg>
