<svg width="48" height="48" viewBox="0 0 48 48" fill="none" xmlns="http://www.w3.org/2000/svg">
<path d="M8.56539 21.2449L13.5343 23.3053C12.974 24.7197 12.5271 26.1764 12.1978 27.6616L12.0093 28.5183L19.1328 35.6461L19.9895 35.4619C21.4748 35.1326 22.9315 34.6857 24.3459 34.1255L26.4062 39.0943C26.4264 39.1436 26.4585 39.187 26.4997 39.2208C26.5408 39.2546 26.5897 39.2776 26.642 39.2878C26.6942 39.298 26.7481 39.295 26.799 39.2792C26.8498 39.2634 26.8959 39.2352 26.9331 39.1971L30.0472 36.083C30.5554 35.5749 30.9514 34.9658 31.2097 34.2951C31.4679 33.6244 31.5826 32.9071 31.5464 32.1893L31.4351 30.1889C37.2007 25.9311 43.0348 18.4649 44.624 5.43447C44.6691 5.10777 44.6381 4.77507 44.5335 4.46231C44.4289 4.14955 44.2534 3.86517 44.0208 3.63135C43.7883 3.39753 43.5048 3.22058 43.1926 3.11428C42.8804 3.00799 42.5479 2.97524 42.221 3.01857C29.1948 4.6206 21.7243 10.459 17.4665 16.2075L15.4704 16.1047C14.7542 16.0657 14.0378 16.1771 13.3672 16.4316C12.6966 16.6861 12.0867 17.0782 11.5767 17.5825L8.46258 20.6966C8.41944 20.7333 8.38675 20.7807 8.36784 20.8341C8.34893 20.8875 8.34447 20.9449 8.35491 21.0006C8.36534 21.0563 8.39031 21.1082 8.42727 21.1511C8.46423 21.194 8.51188 21.2264 8.56539 21.2449ZM28.5437 13.6545C29.0834 13.1167 29.7703 12.7509 30.5178 12.6032C31.2653 12.4555 32.0397 12.5327 32.7434 12.8249C33.447 13.117 34.0483 13.6112 34.4714 14.2449C34.8944 14.8785 35.1201 15.6234 35.1201 16.3853C35.1201 17.1472 34.8944 17.892 34.4714 18.5257C34.0483 19.1594 33.447 19.6535 32.7434 19.9457C32.0397 20.2379 31.2653 20.315 30.5178 20.1673C29.7703 20.0197 29.0834 19.6538 28.5437 19.116C28.1843 18.7579 27.8991 18.3323 27.7046 17.8637C27.51 17.3951 27.4098 16.8927 27.4098 16.3853C27.4098 15.8779 27.51 15.3755 27.7046 14.9069C27.8991 14.4383 28.1843 14.0127 28.5437 13.6545ZM7.63586 36.2158C6.8113 35.9264 5.92584 35.8556 5.06575 36.0102C4.98931 36.0267 4.90993 36.0236 4.83502 36.0011C4.76011 35.9787 4.69212 35.9376 4.6374 35.8817C4.56957 35.8141 4.52415 35.7273 4.50729 35.6331C4.49044 35.5389 4.50296 35.4417 4.54317 35.3548C5.45555 33.393 7.87574 29.4479 12.2578 32.6348C12.2807 32.6553 12.299 32.6804 12.3115 32.7084C12.3241 32.7365 12.3305 32.7668 12.3305 32.7976C12.3305 32.8283 12.3241 32.8587 12.3115 32.8867C12.299 32.9148 12.2807 32.9398 12.2578 32.9603C11.6711 33.4224 11.2014 34.0159 10.8866 34.6931C10.5719 35.3703 10.4209 36.112 10.4459 36.8583C10.449 36.9459 10.4853 37.0291 10.5472 37.0911C10.6092 37.153 10.6924 37.1893 10.78 37.1925C11.5231 37.2223 12.2629 37.0774 12.9399 36.7695C13.6169 36.4615 14.2122 35.9989 14.678 35.4191C14.6985 35.394 14.7243 35.3738 14.7535 35.3599C14.7828 35.346 14.8148 35.3388 14.8472 35.3388C14.8796 35.3388 14.9115 35.346 14.9408 35.3599C14.9701 35.3738 14.9959 35.394 15.0164 35.4191C15.6246 36.143 17.2995 38.5075 15.4447 40.7906C14.635 41.7638 13.4748 42.3793 12.2149 42.504C10.4159 42.6968 7.09186 43.2836 5.73398 44.8342C5.67947 44.8988 5.60846 44.9474 5.52851 44.9748C5.44856 45.0022 5.36267 45.0074 5.28001 44.9898C5.19735 44.9722 5.12101 44.9325 5.05914 44.8749C4.99727 44.8174 4.95218 44.7441 4.92868 44.6629C4.44893 43.0266 3.7036 39.3685 7.63586 36.2158Z" fill="#AF1713"/>
<path fill-rule="evenodd" clip-rule="evenodd" d="M44.2104 3.84959C44.1524 3.77286 44.0891 3.69993 44.0208 3.63135C43.7883 3.39753 43.5048 3.22058 43.1926 3.11428C42.8804 3.00799 42.5479 2.97524 42.221 3.01857C29.1948 4.6206 21.7243 10.459 17.4665 16.2075L15.4704 16.1047C14.7542 16.0657 14.0378 16.1771 13.3672 16.4316C12.6966 16.6861 12.0867 17.0782 11.5767 17.5825L8.46258 20.6966C8.41944 20.7333 8.38675 20.7807 8.36784 20.8341C8.34893 20.8875 8.34447 20.9449 8.35491 21.0006C8.36534 21.0563 8.39031 21.1082 8.42727 21.1511C8.46423 21.194 8.51188 21.2264 8.56539 21.2449L13.5343 23.3053C12.974 24.7197 12.5271 26.1764 12.1978 27.6616L12.0093 28.5183L16.0768 32.5882L28.9332 19.4553C28.7965 19.3515 28.6663 19.2382 28.5437 19.116C28.1843 18.7579 27.8991 18.3323 27.7046 17.8637C27.51 17.3951 27.4098 16.8927 27.4098 16.3853C27.4098 15.8779 27.51 15.3755 27.7046 14.9069C27.8991 14.4383 28.1843 14.0127 28.5437 13.6545C29.0834 13.1167 29.7703 12.7509 30.5178 12.6032C31.2653 12.4555 32.0397 12.5327 32.7434 12.8249C33.3492 13.0764 33.8791 13.4776 34.2847 13.9887L44.2104 3.84959ZM11.6077 37.1535C11.3343 37.1904 11.0574 37.2036 10.78 37.1925C10.6924 37.1893 10.6092 37.153 10.5472 37.0911C10.4853 37.0291 10.449 36.9459 10.4459 36.8583C10.4209 36.112 10.5719 35.3703 10.8866 34.6931C11.2014 34.0159 11.6711 33.4224 12.2578 32.9603C12.2807 32.9398 12.299 32.9148 12.3115 32.8867C12.3241 32.8587 12.3305 32.8283 12.3305 32.7976C12.3305 32.7668 12.3241 32.7365 12.3115 32.7084C12.299 32.6804 12.2807 32.6553 12.2578 32.6348C7.87574 29.4479 5.45555 33.393 4.54317 35.3548C4.50296 35.4417 4.49044 35.5389 4.50729 35.6331C4.52415 35.7273 4.56957 35.8141 4.6374 35.8817C4.69212 35.9376 4.76011 35.9787 4.83502 36.0011C4.90993 36.0236 4.98931 36.0267 5.06575 36.0102C5.92584 35.8556 6.8113 35.9264 7.63586 36.2158C4.09039 39.0584 4.34756 42.3118 4.78411 44.1238L11.6077 37.1535Z" fill="#DD1D18"/>
<path d="M17.4648 16.2076L15.4687 16.1048C14.7525 16.0658 14.036 16.1771 13.3654 16.4317C12.6948 16.6862 12.0849 17.0782 11.575 17.5826L8.46083 20.6967C8.41769 20.7334 8.385 20.7808 8.36609 20.8342C8.34718 20.8876 8.34272 20.945 8.35316 21.0007C8.3636 21.0563 8.38856 21.1082 8.42552 21.1511C8.46249 21.194 8.51013 21.2264 8.56364 21.245L13.5325 23.3054L17.4648 16.2076Z" fill="#EE6663"/>
<path d="M26.408 39.0944L24.3477 34.1255L31.4369 30.189L31.5482 32.1894C31.5844 32.9071 31.4697 33.6245 31.2115 34.2952C30.9532 34.9659 30.5572 35.5749 30.049 36.0831L26.9349 39.1972C26.8977 39.2352 26.8516 39.2634 26.8008 39.2793C26.7499 39.2951 26.696 39.298 26.6437 39.2878C26.5915 39.2776 26.5426 39.2546 26.5015 39.2209C26.4603 39.1871 26.4282 39.1436 26.408 39.0944Z" fill="#941410"/>
</svg>
